SplineFontDB: 3.2
FontName: KaTeX_Main-Regular
FullName: KaTeX_Main-Regular
FamilyName: KaTeX_Main
Weight: Book
Copyright: Copyright (c) 2009-2010 Design Science, Inc.\nCopyright (c) 2014-2018 Khan Academy
Version: 3698457769
ItalicAngle: 0
UnderlinePosition: -150
UnderlineWidth: 50
Ascent: 800
Descent: 200
InvalidEm: 0
sfntRevision: 0x00010000
LayerCount: 2
Layer: 0 1 "Arri+AOgA-re" 1
Layer: 1 1 "Avant" 0
XUID: [1021 456 -934859018 7631667]
StyleMap: 0x0040
FSType: 0
OS2Version: 2
OS2_WeightWidthSlopeOnly: 0
OS2_UseTypoMetrics: 0
CreationTime: 1615612969
ModificationTime: 1625473960
PfmFamily: 81
TTFWeight: 400
TTFWidth: 5
LineGap: 90
VLineGap: 0
Panose: 0 0 0 0 0 0 0 0 0 0
OS2TypoAscent: 800
OS2TypoAOffset: 0
OS2TypoDescent: -200
OS2TypoDOffset: 0
OS2TypoLinegap: 90
OS2WinAscent: 900
OS2WinAOffset: 0
OS2WinDescent: 272
OS2WinDOffset: 0
HheadAscent: 900
HheadAOffset: 0
HheadDescent: -272
HheadDOffset: 0
OS2SubXSize: 650
OS2SubYSize: 700
OS2SubXOff: 0
OS2SubYOff: 140
OS2SupXSize: 650
OS2SupYSize: 700
OS2SupXOff: 0
OS2SupYOff: 480
OS2StrikeYSize: 49
OS2StrikeYPos: 258
OS2CapHeight: 683
OS2XHeight: 442
OS2Vendor: 'PfEd'
OS2CodePages: 2000008f.5e030000
OS2UnicodeRanges: 800000ef.1000eced.00000000.00000000
DEI: 91125
TtTable: prep
SVTCA[y-axis]
MPPEM
PUSHW_1
 200
GT
IF
PUSHB_2
 1
 1
INSTCTRL
EIF
PUSHB_1
 1
PUSHW_2
 2048
 2048
MUL
WCVTF
PUSHB_2
 0
 6
WS
PUSHB_3
 24
 1
 0
LOOPCALL
PUSHB_2
 0
 6
WS
PUSHB_4
 11
 8
 1
 8
LOOPCALL
PUSHB_2
 0
 6
WS
PUSHB_4
 21
 6
 1
 8
LOOPCALL
PUSHB_2
 0
 7
WS
PUSHW_3
 768
 1
 9
LOOPCALL
PUSHB_2
 0
 8
WS
PUSHW_3
 64
 1
 9
LOOPCALL
PUSHB_2
 3
 0
WCVTP
PUSHB_2
 36
 1
GETINFO
LTEQ
IF
PUSHB_1
 64
GETINFO
IF
PUSHB_2
 3
 100
WCVTP
PUSHB_2
 38
 1
GETINFO
LTEQ
IF
PUSHW_3
 2176
 1
 1088
GETINFO
MUL
EQ
IF
PUSHB_2
 3
 0
WCVTP
EIF
EIF
EIF
EIF
PUSHB_4
 13
 8
 1
 12
LOOPCALL
PUSHW_1
 511
SCANCTRL
PUSHB_1
 4
SCANTYPE
PUSHB_2
 2
 0
WCVTP
PUSHB_2
 5
 100
WCVTP
EndTTInstrs
TtTable: fpgm
PUSHB_1
 0
FDEF
DUP
PUSHB_1
 0
NEQ
IF
RCVT
EIF
DUP
DUP
MPPEM
PUSHW_1
 14

StartChar: .notdef
Encoding: 65536 -1 0
Width: 250
Flags: W
LayerCount: 2
Fore
SplineSet
50 0 m 1,0,-1
 50 533 l 1,1,-1
 200 533 l 1,2,-1
 200 0 l 1,3,-1
 50 0 l 1,0,-1
100 50 m 1,4,-1
 150 50 l 1,5,-1
 150 483 l 1,6,-1
 100 483 l 1,7,-1
 100 50 l 1,4,-1
EndSplineSet
EndChar

StartChar: exclam
Encoding: 33 33 4
Width: 278
Flags: W
LayerCount: 2
Fore
SplineSet
78 661 m 0,0,1
 78 682 78 682 95.5 699 c 128,-1,2
 113 716 113 716 138 716 c 0,3,4
 162 716 162 716 180.5 699.5 c 128,-1,5
 199 683 199 683 199 661 c 0,6,7
 199 654 199 654 179 431.5 c 128,-1,8
 159 209 159 209 158 206 c 0,9,10
 156 198 156 198 139 198 c 0,11,12
 121 198 121 198 119 206 c 0,13,14
 118 209 118 209 98 431.5 c 128,-1,15
 78 654 78 654 78 661 c 0,0,1
141 121 m 0,16,17
 166 119 166 119 182 103.5 c 128,-1,18
 198 88 198 88 198 61 c 0,19,20
 198 25 198 25 171 10 c 0,21,22
 158 1 158 1 139 1 c 0,23,24
 119 1 119 1 106 10 c 0,25,26
 79 25 79 25 79 61 c 0,27,28
 79 89 79 89 96.5 105 c 128,-1,29
 114 121 114 121 141 121 c 0,16,17
EndSplineSet
EndChar

StartChar: quotedbl
Encoding: 34 34 5
Width: 500
Flags: W
LayerCount: 2
Fore
SplineSet
34 634 m 0,0,1
 34 659 34 659 50.5 676.5 c 128,-1,2
 67 694 67 694 93 694 c 0,3,4
 117 694 117 694 138 675 c 0,5,6
 168 641 168 641 168 579 c 0,7,8
 168 518 168 518 140 464 c 0,9,10
 120 423 120 423 91 394 c 0,11,12
 76 379 76 379 73 379 c 128,-1,13
 70 379 70 379 60 388.5 c 128,-1,14
 50 398 50 398 50 401 c 0,15,16
 50 405 50 405 62 417 c 0,17,18
 127 483 127 483 131 572 c 0,19,20
 131 584 131 584 130 584 c 0,21,22
 127 582 127 582 123 580 c 0,23,24
 110 573 110 573 94 573 c 0,25,26
 69 573 69 573 51.5 590.5 c 128,-1,27
 34 608 34 608 34 634 c 0,0,1
238 634 m 0,28,29
 238 659 238 659 254.5 676.5 c 128,-1,30
 271 694 271 694 297 694 c 0,31,32
 321 694 321 694 342 675 c 0,33,34
 372 641 372 641 372 579 c 0,35,36
 372 518 372 518 344 464 c 0,37,38
 324 423 324 423 295 394 c 0,39,40
 280 379 280 379 277 379 c 128,-1,41
 274 379 274 379 264 388.5 c 128,-1,42
 254 398 254 398 254 401 c 0,43,44
 254 405 254 405 266 417 c 0,45,46
 331 483 331 483 335 572 c 0,47,48
 335 584 335 584 334 584 c 0,49,50
 331 582 331 582 327 580 c 0,51,52
 314 573 314 573 298 573 c 0,53,54
 273 573 273 573 255.5 590.5 c 128,-1,55
 238 608 238 608 238 634 c 0,28,29
EndSplineSet
EndChar

StartChar: numbersign
Encoding: 35 35 6
Width: 833
Flags: W
LayerCount: 2
Fore
SplineSet
56 347 m 0,0,1
 56 360 56 360 70 367 c 1,2,-1
 313 367 l 1,3,-1
 355 524 l 2,4,5
 396 679 396 679 400 685 c 0,6,7
 404 694 404 694 416 694 c 0,8,9
 434 694 434 694 436 676 c 0,10,11
 436 672 436 672 396 522 c 0,12,13
 355 374 355 374 355 369 c 2,14,-1
 354 367 l 1,15,-1
 543 367 l 1,16,-1
 585 524 l 2,17,18
 626 679 626 679 630 685 c 0,19,20
 636 694 636 694 646 694 c 0,21,22
 652 694 652 694 658.5 689.5 c 128,-1,23
 665 685 665 685 665 678 c 0,24,25
 665 668 665 668 626 522 c 0,26,27
 585 374 585 374 585 369 c 2,28,-1
 584 367 l 1,29,-1
 762 367 l 1,30,31
 777 360 777 360 777 347 c 0,32,33
 777 335 777 335 767 330 c 0,34,35
 761 327 761 327 667 327 c 2,36,-1
 572 327 l 1,37,-1
 552 251 l 1,38,-1
 531 174 l 2,39,40
 531 173 531 173 647 173 c 0,41,42
 761 173 761 173 767 170 c 0,43,44
 777 164 777 164 777 153 c 0,45,46
 777 140 777 140 762 133 c 1,47,-1
 519 133 l 1,48,-1
 477 -24 l 2,49,50
 436 -179 436 -179 432 -185 c 0,51,52
 426 -194 426 -194 416 -194 c 0,53,54
 410 -194 410 -194 403.5 -189 c 128,-1,55
 397 -184 397 -184 397 -177 c 0,56,57
 397 -167 397 -167 436 -21 c 0,58,59
 477 125 477 125 477 131 c 2,60,-1
 478 133 l 1,61,-1
 289 133 l 1,62,-1
 247 -24 l 2,63,64
 206 -179 206 -179 202 -185 c 0,65,66
 196 -194 196 -194 186 -194 c 0,67,68
 180 -194 180 -194 173.5 -189 c 128,-1,69
 167 -184 167 -184 167 -177 c 0,70,71
 167 -167 167 -167 206 -21 c 0,72,73
 247 125 247 125 247 131 c 2,74,-1
 248 133 l 1,75,-1
 70 133 l 1,76,77
 56 140 56 140 56 153 c 0,78,79
 56 168 56 168 72 173 c 1,80,-1
 260 173 l 1,81,-1
 280 249 l 1,82,-1
 301 326 l 2,83,84
 301 327 301 327 186 327 c 2,85,-1
 72 327 l 1,86,87
 56 332 56 332 56 347 c 0,0,1
531 326 m 2,88,89
 531 327 531 327 437 327 c 2,90,-1
 342 327 l 1,91,-1
 322 251 l 1,92,-1
 301 174 l 2,93,94
 301 173 301 173 395 173 c 2,95,-1
 490 173 l 1,96,-1
 510 249 l 1,97,-1
 531 326 l 2,88,89
EndSplineSet
EndChar

StartChar: dollar
Encoding: 36 36 7
Width: 500
Flags: W
LayerCount: 2
Fore
SplineSet
162 187 m 0,0,1
 162 165 162 165 147 149 c 128,-1,2
 132 133 132 133 109 133 c 2,3,-1
 103 133 l 1,4,-1
 103 130 l 1,5,6
 108 115 108 115 115 105 c 0,7,8
 146 45 146 45 223 37 c 1,9,-1
 227 36 l 1,10,-1
 227 313 l 1,11,-1
 223 314 l 2,12,13
 222 314 222 314 219.5 315 c 128,-1,14
 217 316 217 316 212.5 317 c 128,-1,15
 208 318 208 318 205 319 c 0,16,17
 117 339 117 339 75 423 c 0,18,19
 55 465 55 465 55 508 c 0,20,21
 55 570 55 570 86 616 c 128,-1,22
 117 662 117 662 165 685 c 0,23,24
 186 696 186 696 225 704 c 1,25,-1
 227 704 l 1,26,-1
 227 750 l 1,27,-1
 273 750 l 1,28,-1
 273 704 l 1,29,-1
 286 703 l 1,30,31
 368 690 368 690 413 631 c 0,32,33
 441 588 441 588 444 531 c 0,34,35
 444 514 444 514 443 509 c 0,36,37
 439 490 439 490 424.5 479 c 128,-1,38
 410 468 410 468 391 468 c 0,39,40
 368 468 368 468 352.5 483.5 c 128,-1,41
 337 499 337 499 337 522 c 0,42,43
 337 544 337 544 352 559.5 c 128,-1,44
 367 575 367 575 390 575 c 1,45,-1
 394 576 l 1,46,-1
 394 578 l 1,47,48
 365 646 365 646 277 657 c 1,49,-1
 273 658 l 1,50,-1
 273 408 l 1,51,-1
 288 405 l 2,52,53
 329 394 329 394 355 376 c 0,54,55
 396 348 396 348 420 300 c 128,-1,56
 444 252 444 252 444 199 c 0,57,58
 444 128 444 128 407 75 c 128,-1,59
 370 22 370 22 313 1 c 0,60,61
 286 -9 286 -9 276 -9 c 2,62,-1
 273 -9 l 1,63,-1
 273 -56 l 1,64,-1
 227 -56 l 1,65,-1
 227 -10 l 1,66,-1
 221 -10 l 1,67,68
 127 8 127 8 89 66 c 0,69,70
 58 112 58 112 55 176 c 0,71,72
 55 194 55 194 56 199 c 0,73,74
 64 230 64 230 95 238 c 0,75,76
 102 241 102 241 111 241 c 0,77,78
 132 241 132 241 147 224 c 128,-1,79
 162 207 162 207 162 187 c 0,0,1
227 539 m 2,80,81
 227 657 227 657 225 657 c 0,82,83
 221 657 221 657 202 650 c 0,84,85
 167 637 167 637 144 607.5 c 128,-1,86
 121 578 121 578 121 538 c 0,87,88
 121 499 121 499 146.5 467.5 c 128,-1,89
 172 436 172 436 214 424 c 0,90,91
 217 423 217 423 220 422 c 128,-1,92
 223 421 223 421 225 420 c 2,93,-1
 227 420 l 1,94,-1
 227 539 l 2,80,81
286 298 m 0,95,96
 277 301 277 301 274 301 c 0,97,98
 273 301 273 301 273 169 c 2,99,-1
 273 37 l 1,100,101
 317 48 317 48 347.5 84.5 c 128,-1,102
 378 121 378 121 378 169 c 128,-1,103
 378 217 378 217 352.5 251.5 c 128,-1,104
 327 286 327 286 286 298 c 0,95,96
EndSplineSet
EndChar

StartChar: percent
Encoding: 37 37 8
Width: 833
Flags: W
LayerCount: 2
Fore
SplineSet
581 630 m 0,0,1
 526 605 526 605 465 605 c 0,2,3
 398 605 398 605 332 635 c 0,4,5
 329 636 329 636 326 637.5 c 128,-1,6
 323 639 323 639 321 640 c 2,7,-1
 319 641 l 1,8,9
 320 637 320 637 322 632 c 0,10,11
 332 598 332 598 332 548 c 0,12,13
 332 460 332 460 293 403 c 0,14,15
 256 347 256 347 202 347 c 0,16,17
 171 347 171 347 136 369 c 0,18,19
 56 424 56 424 56 548 c 0,20,21
 56 627 56 627 93 683 c 128,-1,22
 130 739 130 739 185 748 c 0,23,24
 197 750 197 750 202 750 c 0,25,26
 241 750 241 750 272 719 c 0,27,28
 343 656 343 656 429 643 c 0,29,30
 435 642 435 642 464 642 c 128,-1,31
 493 642 493 642 500 643 c 0,32,33
 593 658 593 658 650 732 c 0,34,35
 652 734 652 734 654.5 738 c 128,-1,36
 657 742 657 742 658 743 c 128,-1,37
 659 744 659 744 660.5 746 c 128,-1,38
 662 748 662 748 663.5 748.5 c 128,-1,39
 665 749 665 749 667.5 749.5 c 128,-1,40
 670 750 670 750 673 750 c 0,41,42
 682 750 682 750 688 743 c 128,-1,43
 694 736 694 736 693 726 c 1,44,45
 178 -47 178 -47 170 -52 c 0,46,47
 166 -56 166 -56 160 -56 c 0,48,49
 152 -56 152 -56 145.5 -50 c 128,-1,50
 139 -44 139 -44 139 -36 c 0,51,52
 139 -32 139 -32 142 -27 c 0,53,54
 143 -24 143 -24 363 304 c 0,55,56
 469 462 469 462 525.5 546 c 128,-1,57
 582 630 582 630 581 630 c 0,0,1
245 693 m 0,58,59
 226 712 226 712 200 712 c 0,60,61
 180 712 180 712 163 693 c 0,62,63
 144 671 144 671 138 639 c 128,-1,64
 132 607 132 607 132 548 c 128,-1,65
 132 489 132 489 138.5 456 c 128,-1,66
 145 423 145 423 165 403 c 0,67,68
 183 385 183 385 203 385 c 2,69,-1
 207 385 l 2,70,71
 226 385 226 385 245 404 c 0,72,73
 292 451 292 451 292 548 c 0,74,75
 292 646 292 646 245 693 c 0,58,59
500 146 m 0,76,77
 500 225 500 225 537 280.5 c 128,-1,78
 574 336 574 336 629 345 c 0,79,80
 641 347 641 347 647 347 c 0,81,82
 698 347 698 347 737 292 c 0,83,84
 776 234 776 234 776 146 c 0,85,86
 776 57 776 57 737 0 c 0,87,88
 700 -56 700 -56 646 -56 c 0,89,90
 615 -56 615 -56 580 -34 c 0,91,92
 500 21 500 21 500 146 c 0,76,77
689 290 m 0,93,94
 670 309 670 309 644 309 c 0,95,96
 624 309 624 309 607 290 c 0,97,98
 587 267 587 267 582 238.5 c 128,-1,99
 577 210 577 210 577 146 c 0,100,101
 577 79 577 79 582 55 c 0,102,103
 593 0 593 0 630 -16 c 0,104,105
 636 -18 636 -18 647 -18 c 2,106,-1
 651 -18 l 2,107,108
 670 -18 670 -18 689 1 c 0,109,110
 736 48 736 48 736 146 c 0,111,112
 736 243 736 243 689 290 c 0,93,94
EndSplineSet
EndChar

StartChar: ampersand
Encoding: 38 38 9
Width: 778
Flags: W
LayerCount: 2
Fore
SplineSet
195 347 m 1,0,1
 156 448 156 448 156 540 c 0,2,3
 156 623 156 623 208 675 c 0,4,5
 249 716 249 716 302 716 c 0,6,7
 317 716 317 716 326 713 c 0,8,9
 359 704 359 704 380 666.5 c 128,-1,10
 401 629 401 629 401 578 c 0,11,12
 401 548 401 548 384 513 c 0,13,14
 357 459 357 459 287 386 c 2,15,-1
 274 373 l 1,16,17
 313 276 313 276 416 148 c 2,18,-1
 429 132 l 1,19,-1
 437 142 l 2,20,21
 474 191 474 191 543 309 c 2,22,-1
 562 341 l 1,23,-1
 562 349 l 2,24,25
 562 366 562 366 542.5 375.5 c 128,-1,26
 523 385 523 385 498 385 c 2,27,-1
 493 385 l 1,28,-1
 493 431 l 1,29,-1
 502 431 l 2,30,31
 520 428 520 428 626 428 c 0,32,33
 708 428 708 428 721 431 c 2,34,-1
 727 431 l 1,35,-1
 727 385 l 1,36,-1
 712 385 l 1,37,38
 634 380 634 380 608 344 c 0,39,40
 607 343 607 343 603 336.5 c 128,-1,41
 599 330 599 330 591.5 317.5 c 128,-1,42
 584 305 584 305 578 295 c 0,43,44
 506 171 506 171 460 113 c 0,45,46
 453 104 453 104 454 103 c 0,47,48
 456 101 456 101 473 84.5 c 128,-1,49
 490 68 490 68 497 62 c 0,50,51
 543 24 543 24 585 24 c 0,52,53
 623 24 623 24 651 50.5 c 128,-1,54
 679 77 679 77 682 113 c 2,55,-1
 682 121 l 1,56,-1
 722 121 l 1,57,-1
 722 112 l 1,58,59
 717 53 717 53 677.5 15.5 c 128,-1,60
 638 -22 638 -22 574 -22 c 0,61,62
 491 -19 491 -19 414 42 c 2,63,-1
 402 51 l 1,64,-1
 391 42 l 2,65,66
 312 -22 312 -22 224 -22 c 0,67,68
 148 -22 148 -22 95 24 c 128,-1,69
 42 70 42 70 42 135 c 0,70,71
 42 179 42 179 68 217 c 0,72,73
 75 228 75 228 156 308 c 2,74,-1
 195 347 l 1,0,1
315 678 m 0,75,76
 312 679 312 679 305 679 c 0,77,78
 270 679 270 679 251 648.5 c 128,-1,79
 232 618 232 618 232 572 c 0,80,81
 232 497 232 497 255 426 c 2,82,-1
 259 411 l 1,83,-1
 267 420 l 1,84,85
 350 507 350 507 360 562 c 0,86,87
 360 564 360 564 360.5 568.5 c 128,-1,88
 361 573 361 573 361 576 c 0,89,90
 361 590 361 590 358 607 c 0,91,92
 349 668 349 668 315 678 c 0,75,76
140 164 m 0,93,94
 140 101 140 101 168 62.5 c 128,-1,95
 196 24 196 24 240 24 c 0,96,97
 304 24 304 24 366 70 c 0,98,99
 374 75 374 75 374 77 c 0,100,101
 371 80 371 80 368 84 c 0,102,103
 339 111 339 111 300 163.5 c 128,-1,104
 261 216 261 216 235 262 c 2,105,-1
 220 292 l 1,106,-1
 210 310 l 1,107,-1
 193 293 l 2,108,109
 164 264 164 264 152 237.5 c 128,-1,110
 140 211 140 211 140 164 c 0,93,94
EndSplineSet
EndChar

StartChar: quotesingle
Encoding: 39 39 10
Width: 278
Flags: W
LayerCount: 2
Fore
SplineSet
78 634 m 0,0,1
 78 659 78 659 95 676.5 c 128,-1,2
 112 694 112 694 138 694 c 0,3,4
 162 694 162 694 183 675 c 0,5,6
 212 642 212 642 212 579 c 128,-1,7
 212 516 212 516 185 464 c 0,8,9
 165 423 165 423 136 394 c 0,10,11
 121 379 121 379 118 379 c 0,12,13
 114 379 114 379 104.5 388.5 c 128,-1,14
 95 398 95 398 95 401 c 0,15,16
 95 405 95 405 107 417 c 0,17,18
 172 483 172 483 176 572 c 0,19,20
 176 584 176 584 175 584 c 0,21,22
 172 582 172 582 168 580 c 0,23,24
 155 573 155 573 139 573 c 0,25,26
 114 573 114 573 96 590.5 c 128,-1,27
 78 608 78 608 78 634 c 0,0,1
EndSplineSet
EndChar

StartChar: parenleft
Encoding: 40 40 11
Width: 389
Flags: W
LayerCount: 2
Fore
SplineSet
333 -241 m 0,0,1
 333 -250 333 -250 315 -250 c 2,2,-1
 302 -250 l 1,3,4
 295 -244 295 -244 274 -226 c 0,5,6
 94 -62 94 -62 94 250 c 0,7,8
 94 372 94 372 123 473 c 0,9,10
 169 630 169 630 274 726 c 0,11,12
 281 732 281 732 290 739.5 c 128,-1,13
 299 747 299 747 302 750 c 2,14,-1
 315 750 l 2,15,16
 327 750 327 750 330 747 c 128,-1,17
 333 744 333 744 333 741 c 0,18,19
 333 737 333 737 322 726 c 0,20,21
 167 562 167 562 167 250 c 128,-1,22
 167 -62 167 -62 322 -226 c 0,23,24
 333 -237 333 -237 333 -241 c 0,0,1
EndSplineSet
EndChar

StartChar: parenright
Encoding: 41 41 12
Width: 389
Flags: W
LayerCount: 2
Fore
SplineSet
60 749 m 2,0,-1
 64 750 l 2,1,2
 69 750 69 750 74 750 c 2,3,-1
 86 750 l 1,4,5
 93 744 93 744 114 726 c 0,6,7
 294 562 294 562 294 250 c 0,8,9
 294 127 294 127 265 28 c 0,10,11
 219 -130 219 -130 114 -226 c 0,12,13
 107 -232 107 -232 98 -239.5 c 128,-1,14
 89 -247 89 -247 86 -250 c 2,15,-1
 74 -250 l 2,16,17
 62 -250 62 -250 58.5 -248 c 128,-1,18
 55 -246 55 -246 55 -238 c 0,19,20
 56 -237 56 -237 66 -225 c 0,21,22
 221 -64 221 -64 221 250 c 128,-1,23
 221 564 221 564 66 725 c 0,24,25
 56 737 56 737 55 738 c 0,26,27
 55 746 55 746 60 749 c 2,0,-1
EndSplineSet
EndChar

StartChar: asterisk
Encoding: 42 42 13
Width: 500
Flags: W
LayerCount: 2
Fore
SplineSet
100 409 m 0,0,1
 85 409 85 409 74.5 420.5 c 128,-1,2
 64 432 64 432 64 447 c 0,3,4
 64 461 64 461 75 470 c 0,5,6
 126 496 126 496 210 534 c 1,7,8
 180 548 180 548 144 566 c 0,9,10
 78 596 78 596 74 600 c 0,11,12
 64 608 64 608 64 624 c 0,13,14
 64 646 64 646 86 657 c 0,15,16
 100 663 100 663 111 657 c 0,17,18
 115 655 115 655 171.5 613.5 c 128,-1,19
 228 572 228 572 229 571 c 1,20,21
 229 578 229 578 222 643.5 c 128,-1,22
 215 709 215 709 215 721 c 0,23,24
 216 732 216 732 225.5 741 c 128,-1,25
 235 750 235 750 248 750 c 0,26,27
 263 750 263 750 273 741.5 c 128,-1,28
 283 733 283 733 284 721 c 2,29,-1
 270 571 l 1,30,-1
 388 657 l 2,31,32
 399 663 399 663 413 657 c 0,33,34
 435 646 435 646 435 624 c 0,35,36
 435 608 435 608 425 600 c 0,37,38
 421 596 421 596 355 566 c 2,39,-1
 289 534 l 1,40,41
 373 496 373 496 424 470 c 0,42,43
 435 461 435 461 435 447 c 0,44,45
 435 428 435 428 413 412 c 0,46,47
 399 406 399 406 388 412 c 0,48,49
 384 414 384 414 354.5 436 c 128,-1,50
 325 458 325 458 298 478 c 2,51,-1
 270 498 l 1,52,-1
 277 423 l 1,53,-1
 284 348 l 2,54,55
 283 337 283 337 273.5 328.5 c 128,-1,56
 264 320 264 320 250 320 c 0,57,58
 235 320 235 320 225.5 328 c 128,-1,59
 216 336 216 336 215 348 c 2,60,-1
 229 498 l 1,61,62
 207 482 207 482 175.5 459 c 128,-1,63
 144 436 144 436 129 424.5 c 128,-1,64
 114 413 114 413 111 412 c 0,65,66
 105 409 105 409 100 409 c 0,0,1
EndSplineSet
EndChar

StartChar: plus
Encoding: 43 43 14
Width: 778
Flags: W
LayerCount: 2
Fore
SplineSet
56 250 m 128,-1,1
 56 263 56 263 70 270 c 1,2,-1
 369 270 l 1,3,-1
 369 420 l 1,4,-1
 370 570 l 1,5,6
 380 583 380 583 389 583 c 0,7,8
 402 583 402 583 409 568 c 1,9,-1
 409 270 l 1,10,-1
 707 270 l 1,11,12
 722 262 722 262 722 250 c 128,-1,13
 722 238 722 238 707 230 c 1,14,-1
 409 230 l 1,15,-1
 409 -68 l 1,16,17
 402 -82 402 -82 389 -82 c 128,-1,18
 376 -82 376 -82 369 -68 c 1,19,-1
 369 230 l 1,20,-1
 70 230 l 1,21,0
 56 237 56 237 56 250 c 128,-1,1
EndSplineSet
EndChar

StartChar: comma
Encoding: 44 44 15
Width: 278
Flags: W
LayerCount: 2
Fore
SplineSet
78 60 m 128,-1,1
 78 85 78 85 94.5 103 c 128,-1,2
 111 121 111 121 137 121 c 0,3,4
 175 121 175 121 192.5 89 c 128,-1,5
 210 57 210 57 210 8 c 0,6,7
 210 -11 210 -11 208 -27 c 0,8,9
 194 -116 194 -116 135 -180 c 0,10,11
 121 -194 121 -194 117 -194 c 128,-1,12
 113 -194 113 -194 104 -185 c 128,-1,13
 95 -176 95 -176 95 -172 c 0,14,15
 95 -167 95 -167 105 -157 c 0,16,17
 167 -94 167 -94 173 -3 c 1,18,-1
 173 9 l 1,19,20
 172 9 172 9 167 6 c 0,21,22
 154 0 154 0 140 0 c 0,23,24
 114 0 114 0 96 17.5 c 128,-1,0
 78 35 78 35 78 60 c 128,-1,1
EndSplineSet
EndChar

StartChar: hyphen
Encoding: 45 45 16
Width: 333
Flags: W
LayerCount: 2
Fore
SplineSet
11 179 m 1,0,-1
 11 252 l 1,1,-1
 277 252 l 1,2,-1
 277 179 l 1,3,-1
 11 179 l 1,0,-1
EndSplineSet
EndChar

StartChar: period
Encoding: 46 46 17
Width: 278
Flags: W
LayerCount: 2
Fore
SplineSet
78 60 m 0,0,1
 78 86 78 86 95 103 c 128,-1,2
 112 120 112 120 138 120 c 128,-1,3
 164 120 164 120 181.5 102.5 c 128,-1,4
 199 85 199 85 199 61 c 0,5,6
 199 35 199 35 181 17.5 c 128,-1,7
 163 0 163 0 139 0 c 0,8,9
 113 0 113 0 95.5 18 c 128,-1,10
 78 36 78 36 78 60 c 0,0,1
EndSplineSet
EndChar

StartChar: slash
Encoding: 47 47 18
Width: 500
Flags: W
LayerCount: 2
Fore
SplineSet
75 -250 m 0,0,1
 68 -250 68 -250 62 -244 c 128,-1,2
 56 -238 56 -238 56 -231 c 0,3,4
 56 -221 56 -221 230 257.5 c 128,-1,5
 404 736 404 736 407 740 c 0,6,7
 412 750 412 750 425 750 c 0,8,9
 433 749 433 749 439 743 c 128,-1,10
 445 737 445 737 444 730 c 0,11,12
 444 725 444 725 270.5 247.5 c 128,-1,13
 97 -230 97 -230 92 -240 c 0,14,15
 85 -250 85 -250 75 -250 c 0,0,1
EndSplineSet
EndChar

StartChar: zero
Encoding: 48 48 19
Width: 500
Flags: W
LayerCount: 2
Fore
SplineSet
96 585 m 0,0,1
 152 666 152 666 249 666 c 0,2,3
 322 666 322 666 377 616 c 0,4,5
 404 590 404 590 423 548 c 0,6,7
 460 465 460 465 460 320 c 0,8,9
 460 165 460 165 417 83 c 0,10,11
 389 25 389 25 335 -1 c 0,12,13
 293 -22 293 -22 250 -22 c 0,14,15
 135 -22 135 -22 82 83 c 0,16,17
 39 165 39 165 39 320 c 0,18,19
 39 413 39 413 51.5 473.5 c 128,-1,20
 64 534 64 534 96 585 c 0,0,1
321 597 m 0,21,22
 292 629 292 629 250 629 c 128,-1,23
 208 629 208 629 178 597 c 0,24,25
 156 574 156 574 148 541 c 128,-1,26
 140 508 140 508 138 427 c 0,27,28
 138 421 138 421 137.5 388 c 128,-1,29
 137 355 137 355 137 333 c 0,30,31
 137 237 137 237 139 199 c 0,32,33
 143 129 143 129 151 98.5 c 128,-1,34
 159 68 159 68 181 46 c 0,35,36
 208 16 208 16 250 16 c 0,37,38
 291 16 291 16 318 46 c 0,39,40
 340 68 340 68 348 98.5 c 128,-1,41
 356 129 356 129 360 199 c 0,42,43
 362 237 362 237 362 333 c 0,44,45
 362 355 362 355 361.5 388 c 128,-1,46
 361 421 361 421 361 427 c 0,47,48
 359 508 359 508 351 541 c 128,-1,49
 343 574 343 574 321 597 c 0,21,22
EndSplineSet
EndChar

StartChar: one
Encoding: 49 49 20
Width: 500
Flags: W
LayerCount: 2
Fore
SplineSet
416 0 m 2,0,1
 399 3 399 3 257 3 c 0,2,3
 117 3 117 3 100 0 c 2,4,-1
 88 0 l 1,5,-1
 88 46 l 1,6,-1
 114 46 l 2,7,8
 172 46 172 46 189 49 c 0,9,10
 197 50 197 50 213 61 c 1,11,-1
 213 578 l 1,12,13
 211 578 211 578 205 575 c 0,14,15
 159 557 159 557 102 556 c 2,16,-1
 83 556 l 1,17,-1
 83 602 l 1,18,-1
 102 602 l 2,19,20
 186 605 186 605 242 640 c 0,21,22
 260 650 260 650 273 663 c 0,23,24
 275 666 275 666 285 666 c 128,-1,25
 295 666 295 666 302 660 c 1,26,-1
 302 361 l 1,27,-1
 303 61 l 1,28,29
 318 46 318 46 368 46 c 2,30,-1
 401 46 l 1,31,-1
 427 46 l 1,32,-1
 427 0 l 1,33,-1
 416 0 l 2,0,1
EndSplineSet
EndChar

StartChar: two
Encoding: 50 50 21
Width: 500
Flags: W
LayerCount: 2
Fore
SplineSet
110 429 m 0,0,1
 82 429 82 429 66 447 c 128,-1,2
 50 465 50 465 50 491 c 0,3,4
 50 563 50 563 104.5 614.5 c 128,-1,5
 159 666 159 666 235 666 c 0,6,7
 321 666 321 666 377.5 619.5 c 128,-1,8
 434 573 434 573 447 498 c 0,9,10
 449 480 449 480 449 465 c 0,11,12
 449 407 449 407 414 356 c 0,13,14
 386 314 386 314 301 241 c 0,15,16
 265 210 265 210 201 149 c 2,17,-1
 142 93 l 1,18,-1
 218 92 l 2,19,20
 375 92 375 92 385 97 c 0,21,22
 389 98 389 98 395 118 c 0,23,24
 399 129 399 129 409 186 c 1,25,-1
 409 189 l 1,26,-1
 449 189 l 1,27,-1
 449 186 l 1,28,-1
 421 3 l 1,29,-1
 421 0 l 1,30,-1
 50 0 l 1,31,-1
 50 19 l 2,32,33
 50 39 50 39 52 42 c 0,34,35
 53 43 53 43 136 137 c 0,36,37
 245 258 245 258 276 297 c 0,38,39
 343 388 343 388 343 464 c 0,40,41
 343 530 343 530 308.5 574.5 c 128,-1,42
 274 619 274 619 212 619 c 0,43,44
 154 619 154 619 118 567 c 0,45,46
 116 563 116 563 112 556 c 0,47,48
 109 551 109 551 109 550 c 128,-1,49
 109 549 109 549 114 549 c 0,50,51
 139 549 139 549 154.5 531 c 128,-1,52
 170 513 170 513 170 489 c 0,53,54
 170 464 170 464 153.5 446.5 c 128,-1,55
 137 429 137 429 110 429 c 0,0,1
EndSplineSet
EndChar

StartChar: three
Encoding: 51 51 22
Width: 500
Flags: W
LayerCount: 2
Fore
SplineSet
127 463 m 0,0,1
 100 463 100 463 84.5 480 c 128,-1,2
 69 497 69 497 69 524 c 0,3,4
 69 581 69 581 114 619.5 c 128,-1,5
 159 658 159 658 218 665 c 1,6,-1
 233 665 l 2,7,8
 268 665 268 665 277 664 c 0,9,10
 310 659 310 659 344 643 c 0,11,12
 410 610 410 610 427 549 c 0,13,14
 430 539 430 539 430 522 c 0,15,16
 430 463 430 463 393.5 416.5 c 128,-1,17
 357 370 357 370 302 350 c 0,18,19
 297 348 297 348 302 347 c 0,20,21
 304 346 304 346 312 344 c 0,22,23
 373 327 373 327 415 280.5 c 128,-1,24
 457 234 457 234 457 175 c 0,25,26
 457 134 457 134 438 96 c 0,27,28
 414 45 414 45 359.5 11.5 c 128,-1,29
 305 -22 305 -22 238 -22 c 0,30,31
 172 -22 172 -22 121 6 c 128,-1,32
 70 34 70 34 52 81 c 0,33,34
 42 102 42 102 42 130 c 128,-1,35
 42 158 42 158 60.5 175.5 c 128,-1,36
 79 193 79 193 105 193 c 0,37,38
 133 193 133 193 151 175 c 128,-1,39
 169 157 169 157 169 130 c 0,40,41
 169 107 169 107 156 90 c 128,-1,42
 143 73 143 73 121 68 c 2,43,-1
 114 66 l 1,44,45
 168 21 168 21 238 21 c 0,46,47
 293 21 293 21 321 74 c 0,48,49
 338 107 338 107 338 175 c 2,50,-1
 338 195 l 2,51,52
 338 290 338 290 274 322 c 0,53,54
 259 328 259 328 213 329 c 2,55,-1
 171 330 l 1,56,-1
 168 332 l 2,57,58
 166 335 166 335 166 348 c 0,59,60
 166 360 166 360 169 363 c 128,-1,61
 172 366 172 366 174 366 c 0,62,63
 202 366 202 366 232 371 c 0,64,65
 276 377 276 377 299 420.5 c 128,-1,66
 322 464 322 464 322 525 c 0,67,68
 322 590 322 590 287 612 c 0,69,70
 266 626 266 626 240 626 c 0,71,72
 190 626 190 626 152 599 c 0,73,74
 148 597 148 597 143 592.5 c 128,-1,75
 138 588 138 588 135 584 c 2,76,-1
 132 580 l 1,77,78
 135 579 135 579 139 578 c 0,79,80
 159 576 159 576 172.5 559 c 128,-1,81
 186 542 186 542 186 520 c 0,82,83
 186 496 186 496 169.5 479.5 c 128,-1,84
 153 463 153 463 127 463 c 0,0,1
EndSplineSet
EndChar

StartChar: four
Encoding: 52 52 23
Width: 500
Flags: W
LayerCount: 2
Fore
SplineSet
462 0 m 2,0,1
 448 3 448 3 333 3 c 0,2,3
 213 3 213 3 199 0 c 2,4,-1
 190 0 l 1,5,-1
 190 46 l 1,6,-1
 221 46 l 2,7,8
 264 47 264 47 274 51 c 0,9,10
 282 53 282 53 286 61 c 0,11,12
 287 63 287 63 287 115 c 2,13,-1
 287 165 l 1,14,-1
 28 165 l 1,15,-1
 28 211 l 1,16,-1
 179 442 l 2,17,18
 332 674 332 674 334 675 c 0,19,20
 336 677 336 677 355 677 c 2,21,-1
 373 677 l 1,22,-1
 379 671 l 1,23,-1
 379 211 l 1,24,-1
 471 211 l 1,25,-1
 471 165 l 1,26,-1
 379 165 l 1,27,-1
 379 114 l 2,28,29
 379 73 379 73 379.5 66 c 128,-1,30
 380 59 380 59 385 54 c 0,31,32
 393 47 393 47 442 46 c 2,33,-1
 471 46 l 1,34,-1
 471 0 l 1,35,-1
 462 0 l 2,0,1
293 211 m 1,36,-1
 293 545 l 1,37,-1
 74 212 l 1,38,-1
 183 211 l 1,39,-1
 293 211 l 1,36,-1
EndSplineSet
EndChar

StartChar: five
Encoding: 53 53 24
Width: 500
Flags: W
LayerCount: 2
Fore
SplineSet
107 214 m 0,0,1
 131 214 131 214 147.5 197.5 c 128,-1,2
 164 181 164 181 164 156 c 0,3,4
 164 133 164 133 147 117 c 128,-1,5
 130 101 130 101 109 101 c 2,6,-1
 102 101 l 1,7,-1
 105 96 l 2,8,9
 120 64 120 64 151 43 c 128,-1,10
 182 22 182 22 224 22 c 0,11,12
 295 22 295 22 326 82 c 0,13,14
 345 119 345 119 345 210 c 0,15,16
 345 313 345 313 318 349 c 0,17,18
 292 382 292 382 254 382 c 0,19,20
 176 382 176 382 136 314 c 0,21,22
 132 307 132 307 128.5 305.5 c 128,-1,23
 125 304 125 304 114 304 c 0,24,25
 97 304 97 304 95 310 c 0,26,27
 93 314 93 314 93 485 c 0,28,29
 93 515 93 515 92.5 556 c 128,-1,30
 92 597 92 597 92 608 c 0,31,32
 92 664 92 664 98 664 c 0,33,34
 100 666 100 666 102 666 c 2,35,-1
 120 660 l 1,36,37
 185 634 185 634 253 634 c 0,38,39
 324 634 324 634 389 662 c 0,40,41
 397 666 397 666 402 666 c 0,42,43
 410 666 410 666 410 648 c 2,44,-1
 410 635 l 1,45,46
 329 538 329 538 205 538 c 0,47,48
 174 538 174 538 149 544 c 2,49,-1
 139 546 l 1,50,-1
 139 374 l 1,51,52
 196 420 196 420 256 420 c 0,53,54
 275 420 275 420 297 415 c 0,55,56
 364 398 364 398 406.5 339 c 128,-1,57
 449 280 449 280 449 201 c 0,58,59
 449 110 449 110 385.5 44 c 128,-1,60
 322 -22 322 -22 229 -22 c 0,61,62
 166 -22 166 -22 122 13 c 0,63,64
 103 25 103 25 89 46 c 0,65,66
 59 82 59 82 51 135 c 0,67,68
 51 138 51 138 50.5 144.5 c 128,-1,69
 50 151 50 151 50 154 c 0,70,71
 50 182 50 182 66 198 c 128,-1,72
 82 214 82 214 107 214 c 0,0,1
EndSplineSet
EndChar

StartChar: six
Encoding: 54 54 25
Width: 500
Flags: W
LayerCount: 2
Fore
SplineSet
373 601 m 1,0,1
 351 623 351 623 311 626 c 0,2,3
 241 626 241 626 194 566 c 0,4,5
 147 501 147 501 147 364 c 1,6,-1
 148 360 l 1,7,-1
 156 373 l 2,8,9
 197 433 197 433 267 433 c 0,10,11
 313 433 313 433 348 414 c 0,12,13
 372 400 372 400 396 373.5 c 128,-1,14
 420 347 420 347 435 317 c 0,15,16
 456 268 456 268 456 210 c 2,17,-1
 456 192 l 2,18,19
 456 169 456 169 451 149 c 0,20,21
 439 90 439 90 389 38 c 0,22,23
 346 -7 346 -7 293 -18 c 0,24,25
 277 -22 277 -22 253 -22 c 0,26,27
 234 -22 234 -22 219 -19 c 0,28,29
 145 -5 145 -5 101 61 c 0,30,31
 42 154 42 154 42 313 c 0,32,33
 42 421 42 421 80 502 c 128,-1,34
 118 583 118 583 186 628 c 0,35,36
 240 666 240 666 303 666 c 0,37,38
 361 666 361 666 396.5 635 c 128,-1,39
 432 604 432 604 432 550 c 0,40,41
 432 525 432 525 417.5 510 c 128,-1,42
 403 495 403 495 379 495 c 128,-1,43
 355 495 355 495 340.5 509 c 128,-1,44
 326 523 326 523 326 548 c 0,45,46
 326 593 326 593 373 601 c 1,0,1
329 361 m 0,47,48
 301 397 301 397 257 397 c 0,49,50
 220 397 220 397 197 374 c 0,51,52
 148 325 148 325 148 216 c 0,53,54
 148 127 148 127 160 93 c 0,55,56
 170 63 170 63 194 42 c 128,-1,57
 218 21 218 21 251 21 c 0,58,59
 302 21 302 21 329 59 c 0,60,61
 344 80 344 80 348 109 c 128,-1,62
 352 138 352 138 352 193 c 2,63,-1
 352 209 l 1,64,-1
 352 225 l 2,65,66
 352 282 352 282 348 311 c 128,-1,67
 344 340 344 340 329 361 c 0,47,48
EndSplineSet
EndChar

StartChar: seven
Encoding: 55 55 26
Width: 500
Flags: W
LayerCount: 2
Fore
SplineSet
55 458 m 2,0,1
 56 460 56 460 72 567 c 2,2,-1
 88 674 l 2,3,4
 88 676 88 676 108 676 c 2,5,-1
 128 676 l 1,6,-1
 128 672 l 2,7,8
 128 662 128 662 143 655 c 128,-1,9
 158 648 158 648 195.5 646 c 128,-1,10
 233 644 233 644 364 644 c 2,11,-1
 485 644 l 1,12,-1
 485 605 l 1,13,-1
 417 512 l 2,14,15
 402 491 402 491 383 465.5 c 128,-1,16
 364 440 364 440 354 426 c 128,-1,17
 344 412 344 412 342 409 c 0,18,19
 290 328 290 328 280 192 c 0,20,21
 276 151 276 151 275 80 c 0,22,23
 275 66 275 66 274.5 51.5 c 128,-1,24
 274 37 274 37 274 28 c 2,25,-1
 274 19 l 1,26,27
 270 2 270 2 254.5 -10 c 128,-1,28
 239 -22 239 -22 221 -22 c 0,29,30
 197 -22 197 -22 182.5 -5.5 c 128,-1,31
 168 11 168 11 168 40 c 0,32,33
 168 55 168 55 172 97 c 0,34,35
 187 232 187 232 265 368 c 0,36,37
 285 400 285 400 349 489 c 2,38,-1
 395 552 l 1,39,-1
 302 552 l 2,40,41
 128 552 128 552 119 546 c 0,42,43
 115 544 115 544 108 524 c 0,44,45
 102 504 102 504 98 477 c 0,46,47
 96 460 96 460 95 458 c 2,48,-1
 95 455 l 1,49,-1
 55 455 l 1,50,-1
 55 458 l 2,0,1
EndSplineSet
EndChar

StartChar: eight
Encoding: 56 56 27
Width: 500
Flags: W
LayerCount: 2
Fore
SplineSet
172 335 m 1,0,1
 123 367 123 367 96.5 402 c 128,-1,2
 70 437 70 437 70 494 c 0,3,4
 70 537 70 537 86 566 c 0,5,6
 108 611 108 611 150.5 638.5 c 128,-1,7
 193 666 193 666 248 666 c 0,8,9
 316 666 316 666 366 630.5 c 128,-1,10
 416 595 416 595 428 539 c 0,11,12
 429 533 429 533 429 515 c 0,13,14
 429 493 429 493 427 485 c 0,15,16
 412 419 412 419 336 371 c 2,17,-1
 324 363 l 1,18,19
 380 325 380 325 382 323 c 0,20,21
 457 263 457 263 457 174 c 0,22,23
 457 93 457 93 397.5 35.5 c 128,-1,24
 338 -22 338 -22 249 -22 c 0,25,26
 126 -22 126 -22 68 68 c 0,27,28
 43 104 43 104 43 155 c 0,29,30
 43 264 43 264 172 335 c 1,0,1
371 513 m 0,31,32
 371 556 371 556 343 586 c 128,-1,33
 315 616 315 616 275 624 c 0,34,35
 268 625 268 625 242 625 c 0,36,37
 189 625 189 625 153 589 c 0,38,39
 128 566 128 566 128 534 c 0,40,41
 128 491 128 491 164 466 c 0,42,43
 169 461 169 461 228 424 c 2,44,-1
 286 386 l 2,45,46
 287 387 287 387 299 394.5 c 128,-1,47
 311 402 311 402 317 408 c 0,48,49
 371 451 371 451 371 513 c 0,31,32
107 157 m 0,50,51
 107 98 107 98 150 59.5 c 128,-1,52
 193 21 193 21 250 21 c 0,53,54
 291 21 291 21 324.5 38 c 128,-1,55
 358 55 358 55 375 82 c 0,56,57
 392 108 392 108 392 137 c 0,58,59
 392 180 392 180 357 213 c 0,60,61
 349 221 349 221 274 270 c 0,62,63
 260 279 260 279 243.5 289.5 c 128,-1,64
 227 300 227 300 218 306 c 2,65,-1
 210 311 l 1,66,-1
 198 305 l 1,67,68
 135 264 135 264 115 205 c 0,69,70
 107 179 107 179 107 157 c 0,50,51
EndSplineSet
EndChar

StartChar: nine
Encoding: 57 57 28
Width: 500
Flags: W
LayerCount: 2
Fore
SplineSet
173 96 m 0,0,1
 173 75 173 75 162.5 61 c 128,-1,2
 152 47 152 47 135 44 c 2,3,-1
 131 43 l 2,4,5
 131 42 131 42 138 37.5 c 128,-1,6
 145 33 145 33 149 32 c 0,7,8
 172 22 172 22 206 22 c 0,9,10
 225 22 225 22 232 24 c 0,11,12
 280 36 280 36 313 86 c 0,13,14
 352 142 352 142 352 280 c 2,15,-1
 352 287 l 1,16,-1
 347 279 l 2,17,18
 306 211 306 211 232 211 c 0,19,20
 152 211 152 211 96 280 c 0,21,22
 67 316 67 316 54.5 350 c 128,-1,23
 42 384 42 384 42 436 c 0,24,25
 42 494 42 494 57.5 531 c 128,-1,26
 73 568 73 568 111 606 c 0,27,28
 163 658 163 658 235 665 c 1,29,-1
 238 666 l 2,30,31
 241 666 241 666 243 666 c 128,-1,32
 245 666 245 666 249.5 665.5 c 128,-1,33
 254 665 254 665 257 665 c 0,34,35
 278 665 278 665 286 663 c 0,36,37
 367 645 367 645 413 560 c 0,38,39
 456 473 456 473 456 334 c 0,40,41
 456 194 456 194 396 97 c 0,42,43
 361 41 361 41 311.5 9.5 c 128,-1,44
 262 -22 262 -22 208 -22 c 0,45,46
 145 -22 145 -22 106.5 7.5 c 128,-1,47
 68 37 68 37 68 93 c 128,-1,48
 68 149 68 149 121 149 c 0,49,50
 144 149 144 149 158.5 135 c 128,-1,51
 173 121 173 121 173 96 c 0,0,1
274 623 m 0,52,53
 264 625 264 625 246 625 c 0,54,55
 208 625 208 625 181 598 c 0,56,57
 160 576 160 576 153.5 545.5 c 128,-1,58
 147 515 147 515 147 441 c 0,59,60
 147 373 147 373 152 333 c 0,61,62
 157 295 157 295 181.5 271.5 c 128,-1,63
 206 248 206 248 244 248 c 2,64,-1
 248 248 l 1,65,66
 302 253 302 253 326.5 304.5 c 128,-1,67
 351 356 351 356 351 430 c 0,68,69
 351 508 351 508 343 542 c 0,70,71
 338 571 338 571 318.5 594 c 128,-1,72
 299 617 299 617 274 623 c 0,52,53
EndSplineSet
EndChar

StartChar: colon
Encoding: 58 58 29
Width: 278
Flags: W
LayerCount: 2
Fore
SplineSet
78 370 m 0,0,1
 78 396 78 396 95 413 c 128,-1,2
 112 430 112 430 138 430 c 128,-1,3
 164 430 164 430 181.5 412.5 c 128,-1,4
 199 395 199 395 199 371 c 0,5,6
 199 345 199 345 181 327.5 c 128,-1,7
 163 310 163 310 139 310 c 0,8,9
 113 310 113 310 95.5 328 c 128,-1,10
 78 346 78 346 78 370 c 0,0,1
78 60 m 0,11,12
 78 86 78 86 95 103 c 128,-1,13
 112 120 112 120 138 120 c 128,-1,14
 164 120 164 120 181.5 102.5 c 128,-1,15
 199 85 199 85 199 61 c 0,16,17
 199 35 199 35 181 17.5 c 128,-1,18
 163 0 163 0 139 0 c 0,19,20
 113 0 113 0 95.5 18 c 128,-1,21
 78 36 78 36 78 60 c 0,11,12
EndSplineSet
EndChar

StartChar: semicolon
Encoding: 59 59 30
Width: 278
Flags: W
LayerCount: 2
Fore
SplineSet
78 370 m 0,0,1
 78 396 78 396 95 413 c 128,-1,2
 112 430 112 430 138 430 c 128,-1,3
 164 430 164 430 181.5 412.5 c 128,-1,4
 199 395 199 395 199 371 c 0,5,6
 199 345 199 345 181 327.5 c 128,-1,7
 163 310 163 310 139 310 c 0,8,9
 113 310 113 310 95.5 328 c 128,-1,10
 78 346 78 346 78 370 c 0,0,1
78 60 m 128,-1,12
 78 86 78 86 94.5 103.5 c 128,-1,13
 111 121 111 121 137 121 c 0,14,15
 202 121 202 121 202 8 c 0,16,17
 202 -20 202 -20 198 -40 c 0,18,19
 184 -121 184 -121 130 -185 c 0,20,21
 121 -194 121 -194 118 -194 c 128,-1,22
 115 -194 115 -194 106 -186 c 128,-1,23
 97 -178 97 -178 95 -174 c 0,24,25
 94 -170 94 -170 105 -157 c 0,26,27
 150 -101 150 -101 160 -38 c 0,28,29
 161 -32 161 -32 162.5 -22 c 128,-1,30
 164 -12 164 -12 165 -4 c 128,-1,31
 166 4 166 4 165 4 c 0,32,33
 146 1 146 1 142 0 c 0,34,35
 114 0 114 0 96 17 c 128,-1,11
 78 34 78 34 78 60 c 128,-1,12
EndSplineSet
EndChar

StartChar: less
Encoding: 60 60 31
Width: 778
Flags: W
LayerCount: 2
Fore
SplineSet
694 -19 m 0,0,1
 694 -25 694 -25 689.5 -32.5 c 128,-1,2
 685 -40 685 -40 678 -40 c 128,-1,3
 671 -40 671 -40 524 29 c 128,-1,4
 377 98 377 98 234 166 c 2,5,-1
 90 235 l 2,6,7
 83 240 83 240 83 250 c 0,8,9
 83 261 83 261 91 266 c 0,10,11
 664 540 664 540 678 540 c 0,12,13
 685 540 685 540 689.5 532.5 c 128,-1,14
 694 525 694 525 694 519 c 0,15,16
 694 511 694 511 687 505 c 0,17,18
 402 369 402 369 151 250 c 1,19,-1
 687 -5 l 2,20,21
 694 -11 694 -11 694 -19 c 0,0,1
EndSplineSet
EndChar

StartChar: equal
Encoding: 61 61 32
Width: 778
Flags: W
LayerCount: 2
Fore
SplineSet
56 347 m 0,0,1
 56 360 56 360 70 367 c 1,2,-1
 707 367 l 1,3,4
 722 360 722 360 722 347 c 0,5,6
 722 336 722 336 708 328 c 1,7,-1
 390 327 l 1,8,-1
 72 327 l 1,9,10
 56 332 56 332 56 347 c 0,0,1
56 153 m 0,11,12
 56 168 56 168 72 173 c 1,13,-1
 708 173 l 2,14,15
 709 172 709 172 712.5 169.5 c 128,-1,16
 716 167 716 167 717.5 165.5 c 128,-1,17
 719 164 719 164 720.5 160.5 c 128,-1,18
 722 157 722 157 722 153 c 0,19,20
 722 140 722 140 707 133 c 1,21,-1
 70 133 l 1,22,23
 56 140 56 140 56 153 c 0,11,12
EndSplineSet
EndChar

StartChar: greater
Encoding: 62 62 33
Width: 778
Flags: W
LayerCount: 2
Fore
SplineSet
84 520 m 128,-1,1
 84 527 84 527 88.5 533.5 c 128,-1,2
 93 540 93 540 99 540 c 0,3,4
 106 540 106 540 253 471 c 128,-1,5
 400 402 400 402 544 334 c 2,6,-1
 687 265 l 2,7,8
 694 260 694 260 694 250 c 128,-1,9
 694 240 694 240 687 235 c 0,10,11
 685 233 685 233 395 96 c 2,12,-1
 107 -40 l 1,13,-1
 101 -40 l 2,14,15
 83 -38 83 -38 83 -20 c 0,16,17
 83 -15 83 -15 86 -9 c 0,18,19
 90 -4 90 -4 378 132 c 2,20,-1
 626 250 l 1,21,22
 514 303 514 303 378 368 c 0,23,24
 90 504 90 504 86 509 c 0,25,0
 84 513 84 513 84 520 c 128,-1,1
EndSplineSet
EndChar

StartChar: question
Encoding: 63 63 34
Width: 472
Flags: W
LayerCount: 2
Fore
SplineSet
109 514 m 128,-1,1
 86 514 86 514 70.5 528.5 c 128,-1,2
 55 543 55 543 55 566 c 0,3,4
 55 638 55 638 115 673 c 0,5,6
 154 699 154 699 199 704 c 0,7,8
 201 704 201 704 210 704.5 c 128,-1,9
 219 705 219 705 224 705 c 2,10,-1
 228 705 l 2,11,12
 361 705 361 705 401 626 c 0,13,14
 416 598 416 598 416 567 c 0,15,16
 416 504 416 504 361 462 c 0,17,18
 267 395 267 395 247 303 c 0,19,20
 242 279 242 279 242 241 c 0,21,22
 242 213 242 213 241 207 c 128,-1,23
 240 201 240 201 236 199 c 0,24,25
 233 198 233 198 222 198 c 0,26,27
 206 198 206 198 203 203 c 0,28,29
 202 205 202 205 202 249 c 0,30,31
 203 309 203 309 210.5 341 c 128,-1,32
 218 373 218 373 238 414 c 0,33,34
 260 456 260 456 289 488 c 0,35,36
 307 507 307 507 312 522.5 c 128,-1,37
 317 538 317 538 317 574 c 2,38,-1
 317 587 l 2,39,40
 317 630 317 630 299 648 c 0,41,42
 274 668 274 668 226 668 c 0,43,44
 170 668 170 668 133 640 c 0,45,46
 132 639 132 639 130.5 637.5 c 128,-1,47
 129 636 129 636 127 634.5 c 128,-1,48
 125 633 125 633 123.5 631 c 128,-1,49
 122 629 122 629 120 627.5 c 128,-1,50
 118 626 118 626 117 624.5 c 128,-1,51
 116 623 116 623 115 622 c 2,52,-1
 114 621 l 1,53,54
 117 620 117 620 121 619 c 0,55,56
 162 608 162 608 162 567 c 0,57,58
 162 544 162 544 147 529 c 128,-1,0
 132 514 132 514 109 514 c 128,-1,1
224 121 m 0,59,60
 249 119 249 119 265 103.5 c 128,-1,61
 281 88 281 88 281 61 c 0,62,63
 281 25 281 25 254 10 c 0,64,65
 241 1 241 1 222 1 c 0,66,67
 202 1 202 1 189 10 c 0,68,69
 162 25 162 25 162 61 c 0,70,71
 162 89 162 89 179.5 105 c 128,-1,72
 197 121 197 121 224 121 c 0,59,60
EndSplineSet
EndChar

StartChar: at
Encoding: 64 64 35
Width: 778
Flags: W
LayerCount: 2
Fore
SplineSet
722 349 m 0,0,1
 722 301 722 301 717.5 265.5 c 128,-1,2
 713 230 713 230 702 196 c 128,-1,3
 691 162 691 162 667 144 c 128,-1,4
 643 126 643 126 608 126 c 0,5,6
 539 126 539 126 513 176 c 0,7,8
 512 177 512 177 511.5 179 c 128,-1,9
 511 181 511 181 510 182 c 2,10,-1
 509 183 l 1,11,12
 504 178 504 178 497 172 c 0,13,14
 451 126 451 126 385 126 c 0,15,16
 366 126 366 126 360 127 c 0,17,18
 231 157 231 157 197 286 c 0,19,20
 190 314 190 314 190 347 c 0,21,22
 190 425 190 425 227 477 c 0,23,24
 273 550 273 550 360 567 c 0,25,26
 366 568 366 568 385 568 c 0,27,28
 473 568 473 568 528 485 c 1,29,-1
 531 479 l 1,30,-1
 555 479 l 2,31,32
 580 479 580 479 582 478 c 0,33,34
 586 477 586 477 587 468 c 0,35,36
 588 454 588 454 588 338 c 0,37,38
 588 195 588 195 593 182 c 0,39,40
 601 163 601 163 619 163 c 0,41,42
 634 163 634 163 644 170 c 0,43,44
 682 196 682 196 682 330 c 0,45,46
 682 426 682 426 647 500 c 0,47,48
 599 595 599 595 509 639 c 0,49,50
 449 668 449 668 388 668 c 0,51,52
 328 668 328 668 268 639 c 0,53,54
 191 601 191 601 143.5 525.5 c 128,-1,55
 96 450 96 450 96 347 c 0,56,57
 96 296 96 296 109 250 c 0,58,59
 132 167 132 167 194.5 106.5 c 128,-1,60
 257 46 257 46 343 30 c 0,61,62
 363 26 363 26 396 26 c 0,63,64
 457 26 457 26 529 42 c 128,-1,65
 601 58 601 58 650 81 c 2,66,-1
 657 84 l 1,67,-1
 716 84 l 1,68,69
 722 78 722 78 722 74 c 0,70,71
 722 65 722 65 639 33 c 0,72,73
 518 -11 518 -11 392 -11 c 0,74,75
 315 -11 315 -11 247 23 c 0,76,77
 171 61 171 61 120 134 c 128,-1,78
 69 207 69 207 57 304 c 0,79,80
 56 314 56 314 56 347 c 0,81,82
 56 493 56 493 145 592.5 c 128,-1,83
 234 692 234 692 361 704 c 0,84,85
 369 705 369 705 386 705 c 0,86,87
 462 705 462 705 530 671 c 0,88,89
 606 633 606 633 657 560 c 128,-1,90
 708 487 708 487 720 391 c 0,91,92
 722 369 722 369 722 349 c 0,0,1
413 529 m 0,93,94
 402 532 402 532 387 532 c 0,95,96
 377 532 377 532 374 531 c 0,97,98
 328 520 328 520 301 467 c 128,-1,99
 274 414 274 414 274 347 c 0,100,101
 274 264 274 264 309 214 c 0,102,103
 343 162 343 162 390 162 c 0,104,105
 401 162 401 162 413 165 c 0,106,107
 465 179 465 179 498 235 c 2,108,-1
 504 245 l 1,109,-1
 504 449 l 1,110,-1
 498 459 l 2,111,112
 465 515 465 515 413 529 c 0,93,94
EndSplineSet
EndChar

StartChar: A
Encoding: 65 65 36
Width: 750
Flags: W
LayerCount: 2
Fore
SplineSet
255 0 m 2,0,1
 237 3 237 3 140 3 c 0,2,3
 51 3 51 3 39 0 c 2,4,-1
 32 0 l 1,5,-1
 32 46 l 1,6,-1
 47 46 l 2,7,8
 119 49 119 49 139 88 c 0,9,10
 140 91 140 91 192 245.5 c 128,-1,11
 244 400 244 400 295.5 553.5 c 128,-1,12
 347 707 347 707 348 708 c 0,13,14
 351 716 351 716 367 716 c 2,15,-1
 376 716 l 2,16,17
 396 715 396 715 400 709 c 0,18,19
 401 708 401 708 497.5 423 c 128,-1,20
 594 138 594 138 617 67 c 0,21,22
 620 61 620 61 624 57 c 0,23,24
 635 47 635 47 687 46 c 2,25,-1
 717 46 l 1,26,-1
 717 0 l 1,27,-1
 708 0 l 2,28,29
 693 3 693 3 581 3 c 0,30,31
 452 3 452 3 437 0 c 2,32,-1
 427 0 l 1,33,-1
 427 46 l 1,34,-1
 440 46 l 2,35,36
 510 46 510 46 510 64 c 0,37,38
 510 66 510 66 486 138 c 2,39,-1
 462 209 l 1,40,-1
 229 209 l 1,41,-1
 209 150 l 2,42,43
 189 91 189 91 189 85 c 0,44,45
 189 80 189 80 192 76 c 0,46,47
 198 63 198 63 217.5 54.5 c 128,-1,48
 237 46 237 46 259 46 c 2,49,-1
 264 46 l 1,50,-1
 264 0 l 1,51,-1
 255 0 l 2,0,1
416 347 m 2,52,53
 387 434 387 434 365 498 c 2,54,-1
 345 557 l 1,55,-1
 295 407 l 1,56,-1
 244 256 l 2,57,58
 244 255 244 255 345 255 c 2,59,-1
 447 255 l 1,60,-1
 416 347 l 2,52,53
EndSplineSet
EndChar

StartChar: B
Encoding: 66 66 37
Width: 708
Flags: W
LayerCount: 2
Fore
SplineSet
131 622 m 1,0,1
 121 632 121 632 111.5 634 c 128,-1,2
 102 636 102 636 61 637 c 2,3,-1
 28 637 l 1,4,-1
 28 683 l 1,5,-1
 229 683 l 2,6,7
 430 682 430 682 443 680 c 0,8,9
 497 671 497 671 531 651 c 0,10,11
 589 618 589 618 612 567 c 0,12,13
 624 540 624 540 624 512 c 0,14,15
 624 461 624 461 583 418.5 c 128,-1,16
 542 376 542 376 476 360 c 2,17,-1
 466 357 l 1,18,19
 536 349 536 349 586.5 310 c 128,-1,20
 637 271 637 271 650 211 c 0,21,22
 651 205 651 205 651 187 c 0,23,24
 651 164 651 164 649 156 c 0,25,26
 636 97 636 97 587 55 c 128,-1,27
 538 13 538 13 469 3 c 0,28,29
 456 1 456 1 242 0 c 2,30,-1
 28 0 l 1,31,-1
 28 46 l 1,32,-1
 61 46 l 2,33,34
 102 47 102 47 111.5 49 c 128,-1,35
 121 51 121 51 131 61 c 1,36,-1
 131 622 l 1,0,1
511 513 m 0,37,38
 511 560 511 560 484.5 594 c 128,-1,39
 458 628 458 628 416 636 c 0,40,41
 415 636 415 636 402.5 636 c 128,-1,42
 390 636 390 636 370.5 636.5 c 128,-1,43
 351 637 351 637 333 637 c 128,-1,44
 315 637 315 637 295.5 636.5 c 128,-1,45
 276 636 276 636 263 636 c 128,-1,46
 250 636 250 636 248 636 c 0,47,48
 235 635 235 635 232 628 c 0,49,50
 229 624 229 624 229 499 c 2,51,-1
 229 374 l 1,52,-1
 312 374 l 1,53,-1
 396 375 l 1,54,-1
 406 377 l 2,55,56
 409 378 409 378 416 380 c 2,57,-1
 422 382 l 2,58,59
 461 396 461 396 486 430.5 c 128,-1,60
 511 465 511 465 511 513 c 0,37,38
537 188 m 0,61,62
 537 245 537 245 507 285 c 128,-1,63
 477 325 477 325 430 336 c 1,64,-1
 329 337 l 1,65,-1
 229 337 l 1,66,-1
 229 200 l 2,67,68
 229 61 229 61 230 59 c 0,69,70
 232 54 232 54 234 52 c 0,71,72
 240 47 240 47 334 47 c 2,73,-1
 383 47 l 2,74,75
 425 47 425 47 443 53 c 0,76,77
 486 67 486 67 511.5 104 c 128,-1,78
 537 141 537 141 537 188 c 0,61,62
EndSplineSet
EndChar

StartChar: C
Encoding: 67 67 38
Width: 722
Flags: W
LayerCount: 2
Fore
SplineSet
660 257 m 1,0,-1
 666 251 l 1,1,-1
 666 236 l 1,2,3
 661 146 661 146 607 77 c 128,-1,4
 553 8 553 8 468 -14 c 0,5,6
 439 -21 439 -21 403 -21 c 0,7,8
 366 -21 366 -21 340 -15 c 0,9,10
 228 7 228 7 151.5 91 c 128,-1,11
 75 175 75 175 57 299 c 0,12,13
 56 308 56 308 56 342 c 0,14,15
 56 375 56 375 57 385 c 0,16,17
 74 507 74 507 151 591.5 c 128,-1,18
 228 676 228 676 340 699 c 0,19,20
 372 705 372 705 391 705 c 0,21,22
 393 705 393 705 399 704.5 c 128,-1,23
 405 704 405 704 408 704 c 0,24,25
 432 704 432 704 442 702 c 0,26,27
 515 689 515 689 569 636 c 2,28,-1
 582 624 l 1,29,-1
 612 663 l 2,30,31
 639 700 639 700 643 704 c 0,32,33
 644 704 644 704 647 704.5 c 128,-1,34
 650 705 650 705 653 705 c 0,35,36
 660 705 660 705 666 699 c 1,37,-1
 666 419 l 1,38,-1
 660 413 l 1,39,-1
 626 413 l 1,40,41
 620 419 620 419 619 430 c 0,42,43
 610 512 610 512 571 572 c 128,-1,44
 532 632 532 632 476 651 c 0,45,46
 457 658 457 658 426 658 c 0,47,48
 322 658 322 658 252 588 c 0,49,50
 173 509 173 509 173 342 c 0,51,52
 173 221 173 221 211 151 c 0,53,54
 242 92 242 92 299.5 58 c 128,-1,55
 357 24 357 24 428 24 c 0,56,57
 501 24 501 24 555 76.5 c 128,-1,58
 609 129 609 129 621 200 c 0,59,60
 626 225 626 225 626 244 c 0,61,62
 626 251 626 251 632 257 c 1,63,-1
 660 257 l 1,0,-1
EndSplineSet
EndChar

StartChar: D
Encoding: 68 68 39
Width: 764
Flags: W
LayerCount: 2
Fore
SplineSet
130 622 m 1,0,1
 120 632 120 632 110.5 634 c 128,-1,2
 101 636 101 636 60 637 c 2,3,-1
 27 637 l 1,4,-1
 27 683 l 1,5,-1
 228 683 l 2,6,7
 399 682 399 682 419 681.5 c 128,-1,8
 439 681 439 681 461 676 c 0,9,10
 559 655 559 655 625.5 572 c 128,-1,11
 692 489 692 489 706 379 c 0,12,13
 708 359 708 359 708 336 c 128,-1,14
 708 313 708 313 706 293 c 0,15,16
 692 182 692 182 621 101.5 c 128,-1,17
 550 21 550 21 442 3 c 0,18,19
 429 1 429 1 228 0 c 2,20,-1
 27 0 l 1,21,-1
 27 46 l 1,22,-1
 60 46 l 2,23,24
 101 47 101 47 110.5 49 c 128,-1,25
 120 51 120 51 130 61 c 1,26,-1
 130 622 l 1,0,1
395 636 m 0,27,28
 393 636 393 636 381.5 636 c 128,-1,29
 370 636 370 636 353 636.5 c 128,-1,30
 336 637 336 637 322 637 c 128,-1,31
 308 637 308 637 291 636.5 c 128,-1,32
 274 636 274 636 263 636 c 128,-1,33
 252 636 252 636 250 636 c 0,34,35
 237 635 237 635 234 628 c 0,36,37
 231 624 231 624 231 344 c 0,38,39
 231 62 231 62 232 59 c 0,40,41
 234 50 234 50 244 48 c 0,42,43
 252 46 252 46 339 46 c 0,44,45
 404 46 404 46 441.5 56 c 128,-1,46
 479 66 479 66 515 95 c 0,47,48
 593 160 593 160 593 338 c 0,49,50
 593 406 593 406 586 442 c 0,51,52
 570 550 570 550 493 602 c 0,53,54
 449 631 449 631 395 636 c 0,27,28
EndSplineSet
EndChar

StartChar: E
Encoding: 69 69 40
Width: 681
Flags: W
LayerCount: 2
Fore
SplineSet
128 619 m 1,0,1
 118 629 118 629 108.5 631 c 128,-1,2
 99 633 99 633 58 634 c 2,3,-1
 25 634 l 1,4,-1
 25 680 l 1,5,-1
 597 680 l 1,6,-1
 597 676 l 1,7,-1
 611 560 l 2,8,9
 625 445 625 445 625 444 c 2,10,-1
 625 440 l 1,11,-1
 585 440 l 1,12,-1
 585 444 l 2,13,14
 584 447 584 447 582 465 c 0,15,16
 570 559 570 559 536.5 593.5 c 128,-1,17
 503 628 503 628 421 633 c 0,18,19
 411 634 411 634 353 634 c 0,20,21
 253 634 253 634 245 632 c 0,22,23
 236 631 236 631 233 621 c 0,24,25
 232 619 232 619 232 497 c 2,26,-1
 232 376 l 1,27,-1
 286 376 l 2,28,29
 351 377 351 377 366 382 c 0,30,31
 394 390 394 390 404 410.5 c 128,-1,32
 414 431 414 431 416 473 c 2,33,-1
 416 493 l 1,34,-1
 456 493 l 1,35,-1
 456 213 l 1,36,-1
 416 213 l 1,37,-1
 416 233 l 2,38,39
 414 275 414 275 404 295.5 c 128,-1,40
 394 316 394 316 366 324 c 0,41,42
 351 329 351 329 286 330 c 2,43,-1
 232 330 l 1,44,-1
 232 196 l 2,45,46
 232 61 232 61 233 59 c 0,47,48
 234 54 234 54 237 52 c 0,49,50
 243 47 243 47 289 47 c 2,51,-1
 340 47 l 2,52,53
 430 47 430 47 444 48 c 0,54,55
 502 55 502 55 534.5 77.5 c 128,-1,56
 567 100 567 100 584 146 c 0,57,58
 598 183 598 183 607 243 c 0,59,60
 611 268 611 268 612 270 c 2,61,-1
 612 273 l 1,62,-1
 652 273 l 1,63,-1
 652 270 l 2,64,65
 651 267 651 267 631.5 136.5 c 128,-1,66
 612 6 612 6 610 3 c 2,67,-1
 610 0 l 1,68,-1
 25 0 l 1,69,-1
 25 46 l 1,70,-1
 58 46 l 2,71,72
 99 47 99 47 108.5 49 c 128,-1,73
 118 51 118 51 128 61 c 1,74,-1
 128 619 l 1,0,1
EndSplineSet
EndChar

StartChar: F
Encoding: 70 70 41
Width: 653
Flags: W
LayerCount: 2
Fore
SplineSet
128 619 m 1,0,1
 118 629 118 629 108.5 631 c 128,-1,2
 99 633 99 633 58 634 c 2,3,-1
 25 634 l 1,4,-1
 25 680 l 1,5,-1
 582 680 l 1,6,-1
 582 676 l 1,7,-1
 596 560 l 2,8,9
 610 445 610 445 610 444 c 2,10,-1
 610 440 l 1,11,-1
 570 440 l 1,12,-1
 570 444 l 1,13,14
 563 493 563 493 561 501 c 0,15,16
 552 558 552 558 528.5 588 c 128,-1,17
 505 618 505 618 455 628 c 0,18,19
 429 633 429 633 334 633 c 2,20,-1
 286 633 l 2,21,22
 243 633 243 633 237 628 c 0,23,24
 234 626 234 626 233 621 c 0,25,26
 232 619 232 619 232 490 c 2,27,-1
 232 363 l 1,28,-1
 284 363 l 2,29,30
 326 364 326 364 345 366 c 128,-1,31
 364 368 364 368 380.5 378 c 128,-1,32
 397 388 397 388 402.5 406.5 c 128,-1,33
 408 425 408 425 410 459 c 2,34,-1
 410 480 l 1,35,-1
 450 480 l 1,36,-1
 450 200 l 1,37,-1
 410 200 l 1,38,-1
 410 221 l 2,39,40
 408 255 408 255 402.5 273.5 c 128,-1,41
 397 292 397 292 380.5 302 c 128,-1,42
 364 312 364 312 345 314 c 128,-1,43
 326 316 326 316 284 317 c 2,44,-1
 232 317 l 1,45,-1
 232 189 l 1,46,-1
 233 61 l 1,47,48
 241 53 241 53 249 50.5 c 128,-1,49
 257 48 257 48 285 47 c 0,50,51
 296 46 296 46 333 46 c 2,52,-1
 360 46 l 1,53,-1
 360 0 l 1,54,-1
 348 0 l 2,55,56
 322 3 322 3 182 3 c 0,57,58
 55 3 55 3 36 0 c 2,59,-1
 25 0 l 1,60,-1
 25 46 l 1,61,-1
 58 46 l 2,62,63
 99 47 99 47 108.5 49 c 128,-1,64
 118 51 118 51 128 61 c 1,65,-1
 128 619 l 1,0,1
EndSplineSet
EndChar

StartChar: G
Encoding: 71 71 42
Width: 785
Flags: W
LayerCount: 2
Fore
SplineSet
449 273 m 2,0,1
 473 270 473 270 609 270 c 0,2,3
 619 270 619 270 637.5 270.5 c 128,-1,4
 656 271 656 271 666 271 c 0,5,6
 677 271 677 271 693 271.5 c 128,-1,7
 709 272 709 272 717 272.5 c 128,-1,8
 725 273 725 273 727 273 c 2,9,-1
 735 273 l 1,10,-1
 735 227 l 1,11,-1
 721 227 l 1,12,-1
 711 227 l 2,13,14
 675 227 675 227 668 215 c 0,15,16
 666 211 666 211 666 108 c 2,17,-1
 666 6 l 1,18,19
 660 0 660 0 657 0 c 0,20,21
 653 0 653 0 639 10 c 0,22,23
 617 25 617 25 600 42 c 2,24,-1
 587 54 l 1,25,26
 568 22 568 22 504 -6 c 1,27,28
 456 -22 456 -22 406 -22 c 0,29,30
 369 -22 369 -22 340 -15 c 0,31,32
 228 7 228 7 151.5 91 c 128,-1,33
 75 175 75 175 57 299 c 0,34,35
 56 308 56 308 56 342 c 0,36,37
 56 375 56 375 57 385 c 0,38,39
 74 507 74 507 151 591.5 c 128,-1,40
 228 676 228 676 340 699 c 0,41,42
 372 705 372 705 391 705 c 0,43,44
 393 705 393 705 399 704.5 c 128,-1,45
 405 704 405 704 408 704 c 0,46,47
 432 704 432 704 442 702 c 0,48,49
 515 689 515 689 569 636 c 2,50,-1
 582 624 l 1,51,-1
 612 663 l 2,52,53
 639 700 639 700 643 704 c 0,54,55
 644 704 644 704 647 704.5 c 128,-1,56
 650 705 650 705 653 705 c 0,57,58
 660 705 660 705 666 699 c 1,59,-1
 666 419 l 1,60,-1
 660 413 l 1,61,-1
 626 413 l 1,62,63
 620 419 620 419 619 430 c 0,64,65
 610 512 610 512 571 572 c 128,-1,66
 532 632 532 632 476 651 c 0,67,68
 457 658 457 658 426 658 c 0,69,70
 322 658 322 658 252 588 c 0,71,72
 173 509 173 509 173 335 c 0,73,74
 173 179 173 179 248 101 c 0,75,76
 320 24 320 24 431 24 c 0,77,78
 478 24 478 24 513.5 45 c 128,-1,79
 549 66 549 66 559 100 c 0,80,81
 562 110 562 110 562 160 c 2,82,-1
 562 212 l 1,83,84
 546 223 546 223 538 224 c 0,85,86
 521 227 521 227 463 227 c 2,87,-1
 437 227 l 1,88,-1
 437 273 l 1,89,-1
 449 273 l 2,0,1
EndSplineSet
EndChar

StartChar: H
Encoding: 72 72 43
Width: 750
Flags: W
LayerCount: 2
Fore
SplineSet
128 622 m 1,0,1
 118 632 118 632 108.5 634 c 128,-1,2
 99 636 99 636 58 637 c 2,3,-1
 25 637 l 1,4,-1
 25 683 l 1,5,-1
 36 683 l 2,6,7
 53 680 53 680 180 680 c 128,-1,8
 307 680 307 680 324 683 c 2,9,-1
 335 683 l 1,10,-1
 335 637 l 1,11,-1
 302 637 l 2,12,13
 261 636 261 636 250.5 634 c 128,-1,14
 240 632 240 632 233 622 c 1,15,-1
 232 500 l 1,16,-1
 232 378 l 1,17,-1
 517 378 l 1,18,-1
 517 622 l 1,19,20
 507 632 507 632 497.5 634 c 128,-1,21
 488 636 488 636 447 637 c 2,22,-1
 414 637 l 1,23,-1
 414 683 l 1,24,-1
 425 683 l 2,25,26
 442 680 442 680 569 680 c 128,-1,27
 696 680 696 680 713 683 c 2,28,-1
 724 683 l 1,29,-1
 724 637 l 1,30,-1
 691 637 l 2,31,32
 650 636 650 636 639.5 634 c 128,-1,33
 629 632 629 632 622 622 c 1,34,-1
 622 61 l 1,35,36
 629 51 629 51 639.5 49 c 128,-1,37
 650 47 650 47 691 46 c 2,38,-1
 724 46 l 1,39,-1
 724 0 l 1,40,-1
 713 0 l 2,41,42
 696 3 696 3 569 3 c 128,-1,43
 442 3 442 3 425 0 c 2,44,-1
 414 0 l 1,45,-1
 414 46 l 1,46,-1
 447 46 l 2,47,48
 488 47 488 47 497.5 49 c 128,-1,49
 507 51 507 51 517 61 c 1,50,-1
 517 332 l 1,51,-1
 232 332 l 1,52,-1
 232 197 l 1,53,-1
 233 61 l 1,54,55
 240 51 240 51 250.5 49 c 128,-1,56
 261 47 261 47 302 46 c 2,57,-1
 335 46 l 1,58,-1
 335 0 l 1,59,-1
 324 0 l 2,60,61
 307 3 307 3 180 3 c 128,-1,62
 53 3 53 3 36 0 c 2,63,-1
 25 0 l 1,64,-1
 25 46 l 1,65,-1
 58 46 l 2,66,67
 99 47 99 47 108.5 49 c 128,-1,68
 118 51 118 51 128 61 c 1,69,-1
 128 622 l 1,0,1
EndSplineSet
EndChar

StartChar: I
Encoding: 73 73 44
Width: 361
Flags: W
LayerCount: 2
Fore
SplineSet
328 0 m 2,0,1
 312 3 312 3 180 3 c 128,-1,2
 48 3 48 3 32 0 c 2,3,-1
 21 0 l 1,4,-1
 21 46 l 1,5,-1
 43 46 l 2,6,7
 82 46 82 46 109 49 c 0,8,9
 121 52 121 52 126 60 c 0,10,11
 128 63 128 63 128 342 c 0,12,13
 128 620 128 620 126 623 c 0,14,15
 121 631 121 631 109 634 c 0,16,17
 82 637 82 637 43 637 c 2,18,-1
 21 637 l 1,19,-1
 21 683 l 1,20,-1
 32 683 l 2,21,22
 48 680 48 680 180 680 c 128,-1,23
 312 680 312 680 328 683 c 2,24,-1
 339 683 l 1,25,-1
 339 637 l 1,26,-1
 317 637 l 2,27,28
 278 637 278 637 251 634 c 0,29,30
 239 631 239 631 234 623 c 0,31,32
 232 620 232 620 232 342 c 0,33,34
 232 63 232 63 234 60 c 0,35,36
 239 52 239 52 251 49 c 0,37,38
 278 46 278 46 317 46 c 2,39,-1
 339 46 l 1,40,-1
 339 0 l 1,41,-1
 328 0 l 2,0,1
EndSplineSet
EndChar

StartChar: J
Encoding: 74 74 45
Width: 514
Flags: W
LayerCount: 2
Fore
SplineSet
89 177 m 0,0,1
 116 177 116 177 134 159.5 c 128,-1,2
 152 142 152 142 152 112 c 0,3,4
 152 88 152 88 137.5 72 c 128,-1,5
 123 56 123 56 102 52 c 0,6,7
 99 51 99 51 101 49 c 0,8,9
 106 43 106 43 129 29 c 0,10,11
 159 15 159 15 190 15 c 0,12,13
 204 15 204 15 213 18 c 0,14,15
 242 27 242 27 261.5 56 c 128,-1,16
 281 85 281 85 286 126 c 0,17,18
 286 127 286 127 286 142.5 c 128,-1,19
 286 158 286 158 286 183 c 128,-1,20
 286 208 286 208 286.5 238 c 128,-1,21
 287 268 287 268 287 306 c 128,-1,22
 287 344 287 344 287 378 c 0,23,24
 287 403 287 403 287 429.5 c 128,-1,25
 287 456 287 456 287 479 c 128,-1,26
 287 502 287 502 286.5 524 c 128,-1,27
 286 546 286 546 286 563 c 128,-1,28
 286 580 286 580 286 593 c 128,-1,29
 286 606 286 606 286 614 c 2,30,-1
 286 621 l 1,31,32
 280 631 280 631 261 634 c 0,33,34
 243 637 243 637 182 637 c 2,35,-1
 154 637 l 1,36,-1
 154 683 l 1,37,-1
 166 683 l 2,38,39
 189 680 189 680 332 680 c 0,40,41
 342 680 342 680 362 680.5 c 128,-1,42
 382 681 382 681 393 681 c 128,-1,43
 404 681 404 681 420.5 681.5 c 128,-1,44
 437 682 437 682 446 682.5 c 128,-1,45
 455 683 455 683 457 683 c 2,46,-1
 465 683 l 1,47,-1
 465 637 l 1,48,-1
 449 637 l 2,49,50
 422 637 422 637 401 634 c 0,51,52
 393 631 393 631 389 623 c 0,53,54
 388 621 388 621 388 376 c 128,-1,55
 388 131 388 131 387 123 c 0,56,57
 377 60 377 60 321 19 c 128,-1,58
 265 -22 265 -22 194 -22 c 0,59,60
 188 -22 188 -22 175.5 -21 c 128,-1,61
 163 -20 163 -20 160 -20 c 0,62,63
 106 -11 106 -11 70 20 c 128,-1,64
 34 51 34 51 26 95 c 0,65,66
 25 100 25 100 25 110 c 0,67,68
 25 141 25 141 43 159 c 128,-1,69
 61 177 61 177 89 177 c 0,0,1
EndSplineSet
EndChar

StartChar: K
Encoding: 75 75 46
Width: 778
Flags: W
LayerCount: 2
Fore
SplineSet
128 622 m 1,0,1
 118 632 118 632 108.5 634 c 128,-1,2
 99 636 99 636 58 637 c 2,3,-1
 25 637 l 1,4,-1
 25 683 l 1,5,-1
 36 683 l 2,6,7
 53 680 53 680 180 680 c 128,-1,8
 307 680 307 680 324 683 c 2,9,-1
 335 683 l 1,10,-1
 335 637 l 1,11,-1
 313 637 l 1,12,-1
 289 637 l 2,13,14
 235 637 235 637 233 620 c 0,15,16
 232 618 232 618 232 462 c 2,17,-1
 233 307 l 1,18,-1
 379 449 l 2,19,20
 525 592 525 592 527 596 c 0,21,22
 529 599 529 599 531 607 c 0,23,24
 531 629 531 629 503 636 c 0,25,26
 501 636 501 636 497.5 636.5 c 128,-1,27
 494 637 494 637 493 637 c 2,28,-1
 489 637 l 1,29,-1
 489 683 l 1,30,-1
 499 683 l 2,31,32
 516 680 516 680 630 680 c 0,33,34
 638 680 638 680 652 680.5 c 128,-1,35
 666 681 666 681 673 681 c 0,36,37
 681 681 681 681 692 681.5 c 128,-1,38
 703 682 703 682 709 682.5 c 128,-1,39
 715 683 715 683 716 683 c 2,40,-1
 722 683 l 1,41,-1
 722 637 l 1,42,-1
 708 637 l 1,43,44
 633 633 633 633 589 597 c 0,45,46
 584 592 584 592 495 506 c 128,-1,47
 406 420 406 420 406 419 c 128,-1,48
 406 418 406 418 515.5 253.5 c 128,-1,49
 625 89 625 89 631 80 c 0,50,51
 641 65 641 65 655 57 c 0,52,53
 673 47 673 47 715 46 c 2,54,-1
 736 46 l 1,55,-1
 736 0 l 1,56,-1
 728 0 l 2,57,58
 726 0 726 0 718.5 0.5 c 128,-1,59
 711 1 711 1 695.5 1.5 c 128,-1,60
 680 2 680 2 670 2 c 128,-1,61
 660 2 660 2 642 2.5 c 128,-1,62
 624 3 624 3 615 3 c 0,63,64
 493 3 493 3 472 0 c 2,65,-1
 461 0 l 1,66,-1
 461 46 l 1,67,-1
 469 46 l 2,68,69
 515 46 515 46 515 72 c 0,70,71
 515 78 515 78 512 84 c 0,72,73
 501 100 501 100 423 220 c 2,74,-1
 336 351 l 1,75,76
 331 347 331 347 324 340 c 128,-1,77
 317 333 317 333 304 320.5 c 128,-1,78
 291 308 291 308 278 296 c 2,79,-1
 232 251 l 1,80,-1
 232 156 l 2,81,82
 232 62 232 62 235 58 c 0,83,84
 243 47 243 47 302 46 c 2,85,-1
 335 46 l 1,86,-1
 335 0 l 1,87,-1
 324 0 l 2,88,89
 307 3 307 3 180 3 c 128,-1,90
 53 3 53 3 36 0 c 2,91,-1
 25 0 l 1,92,-1
 25 46 l 1,93,-1
 58 46 l 2,94,95
 99 47 99 47 108.5 49 c 128,-1,96
 118 51 118 51 128 61 c 1,97,-1
 128 622 l 1,0,1
EndSplineSet
EndChar

StartChar: L
Encoding: 76 76 47
Width: 625
Flags: W
LayerCount: 2
Fore
SplineSet
128 622 m 1,0,1
 118 632 118 632 108.5 634 c 128,-1,2
 99 636 99 636 58 637 c 2,3,-1
 25 637 l 1,4,-1
 25 683 l 1,5,-1
 36 683 l 2,6,7
 54 680 54 680 182 680 c 0,8,9
 330 680 330 680 348 683 c 2,10,-1
 360 683 l 1,11,-1
 360 637 l 1,12,-1
 333 637 l 2,13,14
 296 637 296 637 285 636 c 0,15,16
 257 635 257 635 249 632.5 c 128,-1,17
 241 630 241 630 233 622 c 1,18,-1
 232 342 l 2,19,20
 232 62 232 62 233 59 c 0,21,22
 234 54 234 54 237 52 c 0,23,24
 243 47 243 47 313 47 c 0,25,26
 384 47 384 47 410 53 c 0,27,28
 469 70 469 70 497 109 c 128,-1,29
 525 148 525 148 536 221 c 0,30,31
 536 226 536 226 537.5 238.5 c 128,-1,32
 539 251 539 251 540.5 261 c 128,-1,33
 542 271 542 271 542 272 c 128,-1,34
 542 273 542 273 562 273 c 2,35,-1
 582 273 l 1,36,-1
 582 268 l 2,37,38
 580 265 580 265 568 136.5 c 128,-1,39
 556 8 556 8 554 5 c 2,40,-1
 554 0 l 1,41,-1
 25 0 l 1,42,-1
 25 46 l 1,43,-1
 58 46 l 2,44,45
 99 47 99 47 108.5 49 c 128,-1,46
 118 51 118 51 128 61 c 1,47,-1
 128 622 l 1,0,1
EndSplineSet
EndChar

StartChar: M
Encoding: 77 77 48
Width: 917
Flags: W
LayerCount: 2
Fore
SplineSet
132 622 m 1,0,1
 122 632 122 632 112.5 634 c 128,-1,2
 103 636 103 636 62 637 c 2,3,-1
 29 637 l 1,4,-1
 29 683 l 1,5,-1
 135 683 l 2,6,7
 240 683 240 683 244 680 c 2,8,-1
 249 675 l 2,9,10
 250 671 250 671 458 124 c 1,11,12
 557 384 557 384 636 594 c 0,13,14
 666 674 666 674 668 675 c 0,15,16
 669 677 669 677 672 680 c 0,17,18
 676 683 676 683 781 683 c 2,19,-1
 887 683 l 1,20,-1
 887 637 l 1,21,-1
 854 637 l 2,22,23
 813 636 813 636 802.5 634 c 128,-1,24
 792 632 792 632 785 622 c 1,25,-1
 785 61 l 1,26,27
 792 51 792 51 802.5 49 c 128,-1,28
 813 47 813 47 854 46 c 2,29,-1
 887 46 l 1,30,-1
 887 0 l 1,31,-1
 876 0 l 2,32,33
 860 3 860 3 736 3 c 128,-1,34
 612 3 612 3 596 0 c 2,35,-1
 585 0 l 1,36,-1
 585 46 l 1,37,-1
 618 46 l 2,38,39
 659 47 659 47 668.5 49 c 128,-1,40
 678 51 678 51 688 61 c 1,41,-1
 688 347 l 2,42,43
 688 424 688 424 688 461 c 128,-1,44
 688 498 688 498 688 546 c 128,-1,45
 688 594 688 594 688 613 c 2,46,-1
 687 632 l 1,47,48
 454 14 454 14 450 7 c 0,49,50
 446 1 446 1 430 1 c 128,-1,51
 414 1 414 1 410 7 c 2,52,-1
 176 624 l 1,53,-1
 176 606 l 2,54,55
 175 588 175 588 175 543 c 128,-1,56
 175 498 175 498 175 463 c 128,-1,57
 175 428 175 428 175 356 c 2,58,-1
 176 86 l 1,59,60
 188 50 188 50 261 46 c 1,61,-1
 278 46 l 1,62,-1
 278 0 l 1,63,-1
 269 0 l 2,64,65
 256 3 256 3 154 3 c 0,66,67
 50 3 50 3 37 0 c 2,68,-1
 29 0 l 1,69,-1
 29 46 l 1,70,-1
 46 46 l 1,71,72
 114 50 114 50 129 80 c 2,73,-1
 132 86 l 1,74,-1
 132 622 l 1,0,1
EndSplineSet
EndChar

StartChar: N
Encoding: 78 78 49
Width: 750
Flags: W
LayerCount: 2
Fore
SplineSet
265 0 m 2,0,1
 252 3 252 3 150 3 c 0,2,3
 46 3 46 3 33 0 c 2,4,-1
 25 0 l 1,5,-1
 25 46 l 1,6,-1
 42 46 l 1,7,8
 110 50 110 50 125 80 c 2,9,-1
 128 86 l 1,10,-1
 128 634 l 1,11,-1
 124 634 l 2,12,13
 114 637 114 637 52 637 c 2,14,-1
 25 637 l 1,15,-1
 25 683 l 1,16,-1
 232 683 l 1,17,-1
 235 680 l 2,18,19
 237 679 237 679 322.5 553.5 c 128,-1,20
 408 428 408 428 493 303 c 2,21,-1
 578 178 l 1,22,-1
 578 598 l 1,23,24
 559 634 559 634 492 637 c 2,25,-1
 475 637 l 1,26,-1
 475 683 l 1,27,-1
 483 683 l 2,28,29
 501 680 501 680 600 680 c 0,30,31
 702 680 702 680 715 683 c 2,32,-1
 724 683 l 1,33,-1
 724 637 l 1,34,-1
 707 637 l 1,35,36
 634 633 634 633 622 598 c 1,37,-1
 621 302 l 1,38,-1
 621 6 l 2,39,40
 618 4 618 4 614 0 c 1,41,-1
 600 0 l 2,42,43
 585 0 585 0 582 3 c 0,44,45
 576 9 576 9 376 303 c 128,-1,46
 176 597 176 597 171 605 c 1,47,-1
 171 345 l 1,48,-1
 172 86 l 1,49,50
 184 50 184 50 257 46 c 1,51,-1
 274 46 l 1,52,-1
 274 0 l 1,53,-1
 265 0 l 2,0,1
EndSplineSet
EndChar

StartChar: O
Encoding: 79 79 50
Width: 778
Flags: W
LayerCount: 2
Fore
SplineSet
722 341 m 0,0,1
 722 190 722 190 624 84 c 128,-1,2
 526 -22 526 -22 388 -22 c 0,3,4
 362 -22 362 -22 339 -18 c 0,5,6
 233 -1 233 -1 156.5 79.5 c 128,-1,7
 80 160 80 160 61 273 c 0,8,9
 56 298 56 298 56 340 c 0,10,11
 56 475 56 475 138 581 c 0,12,13
 169 617 169 617 191 633 c 0,14,15
 266 695 266 695 362 704 c 0,16,17
 371 705 371 705 388 705 c 0,18,19
 497 705 497 705 587 633 c 0,20,21
 609 616 609 616 639 581 c 0,22,23
 705 499 705 499 720 383 c 0,24,25
 722 365 722 365 722 341 c 0,0,1
467 647 m 0,26,27
 426 665 426 665 388 665 c 0,28,29
 348 665 348 665 311 647 c 0,30,31
 258 621 258 621 223.5 567.5 c 128,-1,32
 189 514 189 514 179 439 c 0,33,34
 174 411 174 411 174 354 c 0,35,36
 174 143 174 143 277 61 c 0,37,38
 326 20 326 20 389 20 c 0,39,40
 411 20 411 20 417 21 c 0,41,42
 485 35 485 35 537 99 c 0,43,44
 603 187 603 187 603 354 c 0,45,46
 603 411 603 411 598 439 c 0,47,48
 577 592 577 592 467 647 c 0,26,27
EndSplineSet
EndChar

StartChar: P
Encoding: 80 80 51
Width: 681
Flags: W
LayerCount: 2
Fore
SplineSet
130 622 m 1,0,1
 120 632 120 632 110.5 634 c 128,-1,2
 101 636 101 636 60 637 c 2,3,-1
 27 637 l 1,4,-1
 27 683 l 1,5,-1
 214 683 l 2,6,7
 406 683 406 683 413 682 c 0,8,9
 490 676 490 676 549.5 631 c 128,-1,10
 609 586 609 586 622 519 c 0,11,12
 624 511 624 511 624 489 c 0,13,14
 624 468 624 468 622 460 c 0,15,16
 610 403 610 403 562 361.5 c 128,-1,17
 514 320 514 320 451 307 c 0,18,19
 429 302 429 302 328 301 c 2,20,-1
 234 301 l 1,21,-1
 234 181 l 2,22,23
 234 62 234 62 237 58 c 0,24,25
 245 47 245 47 304 46 c 2,26,-1
 337 46 l 1,27,-1
 337 0 l 1,28,-1
 326 0 l 2,29,30
 309 3 309 3 182 3 c 128,-1,31
 55 3 55 3 38 0 c 2,32,-1
 27 0 l 1,33,-1
 27 46 l 1,34,-1
 60 46 l 2,35,36
 101 47 101 47 110.5 49 c 128,-1,37
 120 51 120 51 130 61 c 1,38,-1
 130 622 l 1,0,1
474 604 m 0,39,40
 448 626 448 626 420.5 631.5 c 128,-1,41
 393 637 393 637 333 637 c 2,42,-1
 307 637 l 2,43,44
 295 637 295 637 282.5 636.5 c 128,-1,45
 270 636 270 636 261 636 c 128,-1,46
 252 636 252 636 251 636 c 0,47,48
 237 635 237 635 234 628 c 0,49,50
 231 624 231 624 231 483 c 2,51,-1
 231 342 l 1,52,-1
 302 342 l 2,53,54
 379 342 379 342 385 343 c 0,55,56
 452 349 452 349 479.5 382 c 128,-1,57
 507 415 507 415 507 488 c 0,58,59
 507 535 507 535 500.5 560.5 c 128,-1,60
 494 586 494 586 474 604 c 0,39,40
EndSplineSet
EndChar

StartChar: Q
Encoding: 81 81 52
Width: 778
Flags: W
LayerCount: 2
Fore
SplineSet
388 -22 m 0,0,1
 250 -22 250 -22 153 84 c 128,-1,2
 56 190 56 190 56 341 c 0,3,4
 56 374 56 374 57 383 c 0,5,6
 71 495 71 495 138 581 c 0,7,8
 169 617 169 617 191 633 c 0,9,10
 266 695 266 695 362 704 c 0,11,12
 371 705 371 705 388 705 c 0,13,14
 497 705 497 705 587 633 c 0,15,16
 609 616 609 616 639 581 c 0,17,18
 705 499 705 499 720 383 c 0,19,20
 722 365 722 365 722 341 c 128,-1,21
 722 317 722 317 720 299 c 0,22,23
 706 181 706 181 636 97 c 0,24,25
 594 48 594 48 536 15 c 0,26,27
 523 9 523 9 523 8 c 0,28,29
 536 -18 536 -18 541 -26 c 0,30,31
 570 -76 570 -76 615 -76 c 0,32,33
 653 -76 653 -76 678 -56.5 c 128,-1,34
 703 -37 703 -37 706 -3 c 0,35,36
 707 10 707 10 716 10 c 0,37,38
 721 10 721 10 728 5 c 1,39,-1
 727 -13 l 2,40,41
 727 -84 727 -84 700.5 -132.5 c 128,-1,42
 674 -181 674 -181 631 -191 c 0,43,44
 625 -193 625 -193 606 -193 c 0,45,46
 565 -193 565 -193 540 -168 c 0,47,48
 512 -142 512 -142 498 -83 c 0,49,50
 483 -23 483 -23 483 -8 c 1,51,-1
 473 -10 l 2,52,53
 431 -22 431 -22 388 -22 c 0,0,1
301 68 m 0,54,55
 301 105 301 105 327.5 130 c 128,-1,56
 354 155 354 155 391 155 c 0,57,58
 408 155 408 155 431 146 c 0,59,60
 468 127 468 127 495 70 c 2,61,-1
 501 58 l 1,62,63
 513 66 513 66 537 92 c 0,64,65
 607 177 607 177 607 339 c 0,66,67
 607 482 607 482 554 566 c 0,68,69
 500 651 500 651 410 664 c 0,70,71
 403 665 403 665 390 665 c 0,72,73
 325 665 325 665 271 620 c 0,74,75
 254 606 254 606 236 584 c 0,76,77
 170 496 170 496 170 339 c 0,78,79
 170 143 170 143 277 57 c 0,80,81
 301 39 301 39 305 39 c 1,82,-1
 304 42 l 2,83,84
 304 44 304 44 304 46 c 0,85,86
 301 53 301 53 301 68 c 0,54,55
338 67 m 0,87,88
 338 46 338 46 351 32 c 128,-1,89
 364 18 364 18 385 18 c 0,90,91
 418 18 418 18 445 28 c 0,92,93
 472 37 472 37 472 40 c 0,94,95
 472 50 472 50 461 69 c 0,96,97
 441 117 441 117 386 117 c 0,98,99
 365 117 365 117 351.5 101.5 c 128,-1,100
 338 86 338 86 338 67 c 0,87,88
EndSplineSet
EndChar

StartChar: R
Encoding: 82 82 53
Width: 736
Flags: W
LayerCount: 2
Fore
SplineSet
130 622 m 1,0,1
 120 632 120 632 110.5 634 c 128,-1,2
 101 636 101 636 60 637 c 2,3,-1
 27 637 l 1,4,-1
 27 683 l 1,5,-1
 202 683 l 2,6,7
 388 682 388 682 407 679 c 0,8,9
 410 678 410 678 420 676 c 0,10,11
 465 667 465 667 500 648 c 0,12,13
 595 600 595 600 609 517 c 0,14,15
 610 512 610 512 610 501 c 0,16,17
 610 445 610 445 567.5 403 c 128,-1,18
 525 361 525 361 467 342 c 0,19,20
 465 341 465 341 462.5 340.5 c 128,-1,21
 460 340 460 340 458 339 c 2,22,-1
 456 338 l 1,23,24
 459 335 459 335 467 332 c 0,25,26
 539 292 539 292 556 226 c 0,27,28
 557 222 557 222 567 160 c 128,-1,29
 577 98 577 98 578 94 c 0,30,31
 585 58 585 58 595.5 41 c 128,-1,32
 606 24 606 24 623 18 c 0,33,34
 627 16 627 16 640 16 c 2,35,-1
 645 16 l 2,36,37
 658 16 658 16 669 27 c 0,38,39
 689 47 689 47 692 87 c 0,40,41
 692 98 692 98 695.5 101.5 c 128,-1,42
 699 105 699 105 712 105 c 0,43,44
 724 105 724 105 728 102.5 c 128,-1,45
 732 100 732 100 732 90 c 0,46,47
 732 54 732 54 714.5 24.5 c 128,-1,48
 697 -5 697 -5 672 -16 c 0,49,50
 656 -22 656 -22 630 -22 c 0,51,52
 481 -16 481 -16 458 90 c 0,53,54
 456 101 456 101 455.5 163 c 128,-1,55
 455 225 455 225 449 246 c 0,56,57
 440 273 440 273 419.5 292.5 c 128,-1,58
 399 312 399 312 373 320 c 2,59,-1
 363 322 l 1,60,-1
 297 323 l 1,61,-1
 231 323 l 1,62,-1
 231 192 l 1,63,-1
 232 61 l 1,64,65
 239 51 239 51 249.5 49 c 128,-1,66
 260 47 260 47 301 46 c 2,67,-1
 334 46 l 1,68,-1
 334 0 l 1,69,-1
 323 0 l 2,70,71
 307 3 307 3 181 3 c 0,72,73
 54 3 54 3 38 0 c 2,74,-1
 27 0 l 1,75,-1
 27 46 l 1,76,-1
 60 46 l 2,77,78
 101 47 101 47 110.5 49 c 128,-1,79
 120 51 120 51 130 61 c 1,80,-1
 130 622 l 1,0,1
490 539 m 0,81,82
 480 599 480 599 436.5 618 c 128,-1,83
 393 637 393 637 304 637 c 0,84,85
 289 637 289 637 270 636.5 c 128,-1,86
 251 636 251 636 250 636 c 0,87,88
 237 635 237 635 234 628 c 0,89,90
 231 624 231 624 231 492 c 2,91,-1
 231 360 l 1,92,-1
 289 360 l 2,93,94
 364 360 364 360 400 366.5 c 128,-1,95
 436 373 436 373 463 400 c 0,96,97
 480 417 480 417 485.5 438 c 128,-1,98
 491 459 491 459 491 499 c 0,99,100
 491 531 491 531 490 539 c 0,81,82
EndSplineSet
EndChar

StartChar: S
Encoding: 83 83 54
Width: 556
Flags: W
LayerCount: 2
Fore
SplineSet
89 227 m 1,0,1
 95 221 95 221 95 214 c 0,2,3
 95 125 95 125 152.5 74.5 c 128,-1,4
 210 24 210 24 305 24 c 0,5,6
 317 24 317 24 321 25 c 0,7,8
 365 34 365 34 392.5 70 c 128,-1,9
 420 106 420 106 420 155 c 0,10,11
 420 198 420 198 397.5 233.5 c 128,-1,12
 375 269 375 269 340 281 c 0,13,14
 284 295 284 295 266 300 c 0,15,16
 191 318 191 318 189 319 c 0,17,18
 131 339 131 339 93 389.5 c 128,-1,19
 55 440 55 440 55 507 c 0,20,21
 55 567 55 567 86 614 c 128,-1,22
 117 661 117 661 163 684 c 0,23,24
 203 704 203 704 243 704 c 0,25,26
 322 704 322 704 371 670 c 0,27,28
 386 660 386 660 405 641 c 1,29,-1
 426 672 l 2,30,31
 431 679 431 679 436.5 687 c 128,-1,32
 442 695 442 695 446 700 c 2,33,-1
 449 704 l 2,34,35
 450 704 450 704 453 704.5 c 128,-1,36
 456 705 456 705 459 705 c 0,37,38
 466 705 466 705 472 699 c 1,39,-1
 472 462 l 1,40,-1
 466 456 l 1,41,-1
 448 456 l 2,42,43
 437 456 437 456 435 459 c 128,-1,44
 433 462 433 462 430 479 c 0,45,46
 413 605 413 605 329 646 c 0,47,48
 292 662 292 662 254 662 c 0,49,50
 202 662 202 662 168.5 628.5 c 128,-1,51
 135 595 135 595 135 542 c 0,52,53
 135 508 135 508 152 479.5 c 128,-1,54
 169 451 169 451 200 435 c 0,55,56
 210 430 210 430 294 410 c 0,57,58
 365 391 365 391 370 389 c 0,59,60
 427 367 427 367 463.5 314.5 c 128,-1,61
 500 262 500 262 500 191 c 0,62,63
 500 109 500 109 455 52.5 c 128,-1,64
 410 -4 410 -4 337 -19 c 0,65,66
 327 -21 327 -21 301 -21 c 0,67,68
 195 -21 195 -21 129 37 c 0,69,70
 124 42 124 42 122 41 c 0,71,72
 118 36 118 36 107 20.5 c 128,-1,73
 96 5 96 5 87 -7.5 c 128,-1,74
 78 -20 78 -20 78 -21 c 0,75,76
 76 -22 76 -22 68 -22 c 0,77,78
 61 -22 61 -22 55 -16 c 1,79,-1
 55 101 l 2,80,81
 55 220 55 220 56 222 c 0,82,83
 58 227 58 227 76 227 c 2,84,-1
 89 227 l 1,0,1
EndSplineSet
EndChar

StartChar: T
Encoding: 84 84 55
Width: 722
Flags: W
LayerCount: 2
Fore
SplineSet
36 443 m 2,0,1
 37 445 37 445 46 557 c 128,-1,2
 55 669 55 669 55 671 c 2,3,-1
 55 677 l 1,4,-1
 666 677 l 1,5,-1
 666 671 l 2,6,7
 667 669 667 669 676 557 c 128,-1,8
 685 445 685 445 685 443 c 2,9,-1
 685 437 l 1,10,-1
 645 437 l 1,11,-1
 645 443 l 2,12,13
 644 447 644 447 642 467 c 0,14,15
 635 564 635 564 610 593 c 0,16,17
 593 614 593 614 555 625 c 0,18,19
 534 630 534 630 478 630 c 2,20,-1
 451 630 l 2,21,22
 428 630 428 630 422.5 628.5 c 128,-1,23
 417 627 417 627 414 618 c 0,24,25
 413 616 413 616 413 339 c 2,26,-1
 413 63 l 1,27,28
 421 52 421 52 438 49 c 0,29,30
 474 46 474 46 528 46 c 2,31,-1
 558 46 l 1,32,-1
 558 0 l 1,33,-1
 545 0 l 2,34,35
 524 3 524 3 361 3 c 128,-1,36
 198 3 198 3 177 0 c 2,37,-1
 164 0 l 1,38,-1
 164 46 l 1,39,-1
 194 46 l 2,40,41
 248 46 248 46 284 49 c 0,42,43
 301 52 301 52 309 63 c 1,44,-1
 309 339 l 2,45,46
 309 616 309 616 308 618 c 0,47,48
 305 627 305 627 299.5 628.5 c 128,-1,49
 294 630 294 630 271 630 c 2,50,-1
 244 630 l 2,51,52
 197 630 197 630 187 629 c 0,53,54
 144 622 144 622 119 601 c 0,55,56
 87 574 87 574 79 467 c 0,57,58
 77 447 77 447 76 443 c 2,59,-1
 76 437 l 1,60,-1
 36 437 l 1,61,-1
 36 443 l 2,0,1
EndSplineSet
EndChar

StartChar: U
Encoding: 85 85 56
Width: 750
Flags: W
LayerCount: 2
Fore
SplineSet
128 622 m 1,0,1
 118 632 118 632 108.5 634 c 128,-1,2
 99 636 99 636 58 637 c 2,3,-1
 25 637 l 1,4,-1
 25 683 l 1,5,-1
 36 683 l 2,6,7
 53 680 53 680 180 680 c 128,-1,8
 307 680 307 680 324 683 c 2,9,-1
 335 683 l 1,10,-1
 335 637 l 1,11,-1
 302 637 l 2,12,13
 261 636 261 636 250.5 634 c 128,-1,14
 240 632 240 632 233 622 c 1,15,-1
 232 418 l 2,16,17
 232 194 232 194 236 169 c 0,18,19
 245 104 245 104 280 67 c 0,20,21
 325 24 325 24 389 24 c 0,22,23
 406 24 406 24 422 27 c 0,24,25
 482 38 482 38 521 78.5 c 128,-1,26
 560 119 560 119 571 183 c 0,27,28
 575 206 575 206 575 410 c 2,29,-1
 575 598 l 1,30,31
 556 634 556 634 489 637 c 2,32,-1
 472 637 l 1,33,-1
 472 683 l 1,34,-1
 481 683 l 2,35,36
 494 680 494 680 598 680 c 128,-1,37
 702 680 702 680 715 683 c 2,38,-1
 724 683 l 1,39,-1
 724 637 l 1,40,-1
 707 637 l 1,41,42
 634 633 634 633 622 598 c 1,43,-1
 621 399 l 2,44,45
 620 194 620 194 617 180 c 0,46,47
 617 179 617 179 615 171 c 0,48,49
 598 91 598 91 536 34.5 c 128,-1,50
 474 -22 474 -22 389 -22 c 0,51,52
 324 -22 324 -22 264 9 c 0,53,54
 152 67 152 67 130 192 c 0,55,56
 129 201 129 201 128 412 c 2,57,-1
 128 622 l 1,0,1
EndSplineSet
EndChar

StartChar: V
Encoding: 86 86 57
Width: 750
Flags: W
LayerCount: 2
Fore
SplineSet
114 620 m 0,0,1
 103 631 103 631 94 633.5 c 128,-1,2
 85 636 85 636 48 637 c 2,3,-1
 19 637 l 1,4,-1
 19 683 l 1,5,-1
 28 683 l 2,6,7
 42 680 42 680 152 680 c 0,8,9
 272 680 272 680 294 683 c 2,10,-1
 305 683 l 1,11,-1
 305 637 l 1,12,-1
 284 637 l 2,13,14
 238 636 238 636 227 626 c 0,15,16
 223 623 223 623 223 620 c 0,17,18
 223 618 223 618 313 372 c 128,-1,19
 403 126 403 126 404 126 c 0,20,21
 443 231 443 231 490 358 c 0,22,23
 575 588 575 588 575 597 c 0,24,25
 575 616 575 616 554 626.5 c 128,-1,26
 533 637 533 637 508 637 c 2,27,-1
 503 637 l 1,28,-1
 503 683 l 1,29,-1
 512 683 l 2,30,31
 529 680 529 680 627 680 c 0,32,33
 713 680 713 680 724 683 c 2,34,-1
 730 683 l 1,35,-1
 730 637 l 1,36,-1
 723 637 l 2,37,38
 649 637 649 637 627 596 c 0,39,40
 627 595 627 595 514.5 291 c 128,-1,41
 402 -13 402 -13 401 -14 c 0,42,43
 398 -22 398 -22 383 -22 c 2,44,-1
 374 -22 l 1,45,-1
 365 -22 l 2,46,47
 351 -22 351 -22 348 -14 c 0,48,49
 346 -12 346 -12 231 303 c 0,50,51
 114 617 114 617 114 620 c 0,0,1
EndSplineSet
EndChar

StartChar: W
Encoding: 87 87 58
Width: 1028
Flags: W
LayerCount: 2
Fore
SplineSet
792 683 m 2,0,1
 810 680 810 680 914 680 c 0,2,3
 991 680 991 680 1003 683 c 2,4,-1
 1009 683 l 1,5,-1
 1009 637 l 1,6,-1
 996 637 l 2,7,8
 948 634 948 634 926 612 c 0,9,10
 918 604 918 604 915 598 c 0,11,12
 912 591 912 591 863 438 c 128,-1,13
 814 285 814 285 766 135 c 128,-1,14
 718 -15 718 -15 716 -17 c 0,15,16
 711 -22 711 -22 694 -22 c 0,17,18
 676 -22 676 -22 673 -15 c 0,19,20
 671 -13 671 -13 593 231 c 2,21,-1
 514 477 l 1,22,23
 492 413 492 413 453 291 c 128,-1,24
 414 169 414 169 385.5 79 c 128,-1,25
 357 -11 357 -11 355 -15 c 0,26,27
 351 -22 351 -22 331 -22 c 0,28,29
 314 -21 314 -21 310 -15 c 0,30,31
 309 -14 309 -14 208 302 c 128,-1,32
 107 618 107 618 104 622 c 0,33,34
 98 632 98 632 87 633 c 0,35,36
 73 637 73 637 35 637 c 2,37,-1
 18 637 l 1,38,-1
 18 683 l 1,39,-1
 27 683 l 2,40,41
 69 681 69 681 154 681 c 0,42,43
 272 681 272 681 287 683 c 2,44,-1
 298 683 l 1,45,-1
 298 637 l 1,46,-1
 285 637 l 2,47,48
 239 637 239 637 223 629 c 0,49,50
 213 626 213 626 213 620 c 0,51,52
 213 616 213 616 289 381 c 2,53,-1
 364 144 l 1,54,-1
 427 339 l 2,55,56
 492 544 492 544 492 546 c 0,57,58
 470 619 470 619 464 625 c 0,59,60
 454 636 454 636 408 637 c 2,61,-1
 380 637 l 1,62,-1
 380 683 l 1,63,-1
 388 683 l 2,64,65
 402 680 402 680 508 680 c 0,66,67
 629 680 629 680 650 683 c 2,68,-1
 660 683 l 1,69,-1
 660 637 l 1,70,-1
 647 637 l 2,71,72
 576 637 576 637 576 619 c 1,73,-1
 727 146 l 1,74,75
 869 580 869 580 869 600 c 0,76,77
 869 602 869 602 867 606 c 0,78,79
 851 634 851 634 794 637 c 2,80,-1
 783 637 l 1,81,-1
 783 683 l 1,82,-1
 792 683 l 2,0,1
EndSplineSet
EndChar

StartChar: X
Encoding: 88 88 59
Width: 750
Flags: W
LayerCount: 2
Fore
SplineSet
270 0 m 2,0,1
 257 3 257 3 141 3 c 0,2,3
 43 3 43 3 31 0 c 2,4,-1
 23 0 l 1,5,-1
 23 46 l 1,6,-1
 40 46 l 2,7,8
 129 49 129 49 161 88 c 0,9,10
 165 94 165 94 244.5 216 c 128,-1,11
 324 338 324 338 324 339 c 0,12,13
 324 341 324 341 235 480 c 128,-1,14
 146 619 146 619 143 622 c 0,15,16
 125 637 125 637 71 637 c 2,17,-1
 57 637 l 1,18,-1
 37 637 l 1,19,-1
 37 683 l 1,20,-1
 46 683 l 2,21,22
 61 680 61 680 172 680 c 0,23,24
 296 680 296 680 318 683 c 2,25,-1
 329 683 l 1,26,-1
 329 637 l 1,27,-1
 324 637 l 2,28,29
 307 637 307 637 286 631.5 c 128,-1,30
 265 626 265 626 263 621 c 0,31,32
 263 618 263 618 322.5 524.5 c 128,-1,33
 382 431 382 431 384 431 c 0,34,35
 385 431 385 431 437 511.5 c 128,-1,36
 489 592 489 592 489 593 c 0,37,38
 495 604 495 604 482 617 c 0,39,40
 467 634 467 634 436 637 c 2,41,-1
 428 637 l 1,42,-1
 428 683 l 1,43,-1
 437 683 l 2,44,45
 450 680 450 680 566 680 c 0,46,47
 664 680 664 680 676 683 c 2,48,-1
 684 683 l 1,49,-1
 684 637 l 1,50,-1
 667 637 l 2,51,52
 585 634 585 634 551 599 c 0,53,54
 548 596 548 596 478 491 c 0,55,56
 412 388 412 388 412 387 c 0,57,58
 412 385 412 385 514.5 225 c 128,-1,59
 617 65 617 65 620 62 c 0,60,61
 628 53 628 53 642 50 c 128,-1,62
 656 47 656 47 695 46 c 2,63,-1
 726 46 l 1,64,-1
 726 0 l 1,65,-1
 717 0 l 2,66,67
 702 3 702 3 591 3 c 0,68,69
 468 3 468 3 445 0 c 2,70,-1
 434 0 l 1,71,-1
 434 46 l 1,72,-1
 440 46 l 2,73,74
 457 46 457 46 478 51.5 c 128,-1,75
 499 57 499 57 499 64 c 0,76,77
 499 67 499 67 463 124 c 128,-1,78
 427 181 427 181 390 238 c 2,79,-1
 353 295 l 1,80,-1
 350 292 l 2,81,82
 348 290 348 290 343 283 c 128,-1,83
 338 276 338 276 330.5 264.5 c 128,-1,84
 323 253 323 253 312 235.5 c 128,-1,85
 301 218 301 218 286 195 c 0,86,87
 220 95 220 95 219 92 c 0,88,89
 218 91 218 91 218 84 c 0,90,91
 218 70 218 70 234 59 c 128,-1,92
 250 48 250 48 272 46 c 2,93,-1
 280 46 l 1,94,-1
 280 0 l 1,95,-1
 270 0 l 2,0,1
EndSplineSet
EndChar

StartChar: Y
Encoding: 89 89 60
Width: 750
Flags: W
LayerCount: 2
Fore
SplineSet
518 0 m 2,0,1
 502 3 502 3 374 3 c 0,2,3
 248 3 248 3 232 0 c 2,4,-1
 221 0 l 1,5,-1
 221 46 l 1,6,-1
 254 46 l 2,7,8
 313 47 313 47 321 58 c 0,9,10
 324 62 324 62 324 167 c 2,11,-1
 324 273 l 1,12,-1
 221 446 l 2,13,14
 117 620 117 620 114 623 c 0,15,16
 100 637 100 637 52 637 c 2,17,-1
 31 637 l 1,18,-1
 11 637 l 1,19,-1
 11 683 l 1,20,-1
 20 683 l 2,21,22
 36 680 36 680 148 680 c 0,23,24
 272 680 272 680 294 683 c 2,25,-1
 305 683 l 1,26,-1
 305 637 l 1,27,-1
 287 637 l 2,28,29
 239 636 239 636 236 621 c 0,30,31
 236 619 236 619 321 475 c 2,32,-1
 407 332 l 1,33,-1
 483 460 l 2,34,35
 561 591 561 591 561 592 c 0,36,37
 563 595 563 595 563 604 c 0,38,39
 563 633 563 633 517 637 c 1,40,-1
 508 637 l 1,41,-1
 508 683 l 1,42,-1
 517 683 l 2,43,44
 528 681 528 681 626 681 c 0,45,46
 695 681 695 681 731 683 c 2,47,-1
 738 683 l 1,48,-1
 738 637 l 1,49,-1
 723 637 l 1,50,51
 640 633 640 633 613 588 c 0,52,53
 612 587 612 587 517 427 c 2,54,-1
 425 273 l 1,55,-1
 425 169 l 2,56,57
 425 64 425 64 427 60 c 0,58,59
 430 52 430 52 444 49 c 0,60,61
 459 46 459 46 506 46 c 2,62,-1
 528 46 l 1,63,-1
 528 0 l 1,64,-1
 518 0 l 2,0,1
EndSplineSet
EndChar

StartChar: Z
Encoding: 90 90 61
Width: 611
Flags: W
LayerCount: 2
Fore
SplineSet
69 443 m 1,0,1
 69 452 69 452 74.5 554 c 128,-1,2
 80 656 80 656 80 683 c 1,3,-1
 549 683 l 1,4,5
 555 677 555 677 555 664 c 0,6,7
 555 649 555 649 554 648 c 0,8,9
 552 645 552 645 366 348 c 128,-1,10
 180 51 180 51 179 50 c 128,-1,11
 178 49 178 49 192 49 c 128,-1,12
 206 49 206 49 263 49 c 0,13,14
 352 50 352 50 361 51 c 0,15,16
 426 60 426 60 460 88 c 128,-1,17
 494 116 494 116 507 173 c 0,18,19
 513 200 513 200 520 273 c 1,20,-1
 520 282 l 1,21,-1
 560 282 l 1,22,-1
 560 274 l 2,23,24
 559 272 559 272 551 141.5 c 128,-1,25
 543 11 543 11 543 8 c 2,26,-1
 543 0 l 1,27,-1
 302 0 l 1,28,-1
 61 1 l 1,29,-1
 58 3 l 2,30,31
 55 8 55 8 55 21 c 2,32,-1
 55 35 l 1,33,34
 59 43 59 43 153.5 193 c 128,-1,35
 248 343 248 343 340 489.5 c 128,-1,36
 432 636 432 636 432 637 c 1,37,38
 288 637 288 637 275 636 c 0,39,40
 181 630 181 630 141 573 c 0,41,42
 109 521 109 521 109 445 c 0,43,44
 109 443 109 443 89 443 c 2,45,-1
 69 443 l 1,0,1
EndSplineSet
EndChar

StartChar: bracketleft
Encoding: 91 91 62
Width: 278
Flags: W
LayerCount: 2
Fore
SplineSet
118 -250 m 1,0,-1
 118 750 l 1,1,-1
 255 750 l 1,2,-1
 255 710 l 1,3,-1
 158 710 l 1,4,-1
 158 -210 l 1,5,-1
 255 -210 l 1,6,-1
 255 -250 l 1,7,-1
 118 -250 l 1,0,-1
EndSplineSet
EndChar

StartChar: backslash
Encoding: 92 92 63
Width: 500
Flags: W
LayerCount: 2
Fore
SplineSet
56 731 m 0,0,1
 56 738 56 738 62 744 c 128,-1,2
 68 750 68 750 75 750 c 0,3,4
 85 750 85 750 92 740 c 0,5,6
 96 733 96 733 270 254.5 c 128,-1,7
 444 -224 444 -224 444 -231 c 128,-1,8
 444 -238 444 -238 438 -244 c 128,-1,9
 432 -250 432 -250 424 -250 c 0,10,11
 414 -250 414 -250 407 -240 c 0,12,13
 404 -236 404 -236 230 242.5 c 128,-1,14
 56 721 56 721 56 731 c 0,0,1
EndSplineSet
EndChar

StartChar: bracketright
Encoding: 93 93 64
Width: 278
Flags: W
LayerCount: 2
Fore
SplineSet
22 710 m 1,0,-1
 22 750 l 1,1,-1
 159 750 l 1,2,-1
 159 -250 l 1,3,-1
 22 -250 l 1,4,-1
 22 -210 l 1,5,-1
 119 -210 l 1,6,-1
 119 710 l 1,7,-1
 22 710 l 1,0,-1
EndSplineSet
EndChar

StartChar: asciicircum
Encoding: 94 94 65
Width: 500
Flags: W
LayerCount: 2
Fore
SplineSet
190 637 m 2,0,-1
 249 694 l 1,1,-1
 257 686 l 1,2,3
 387 562 387 562 387 560 c 0,4,5
 381 553 381 553 374 545 c 2,6,-1
 361 531 l 1,7,8
 357 533 357 533 303 581 c 2,9,-1
 250 627 l 1,10,-1
 195 580 l 2,11,12
 182 569 182 569 168.5 557 c 128,-1,13
 155 545 155 545 148 538 c 2,14,-1
 140 532 l 2,15,16
 138 530 138 530 125 546 c 2,17,-1
 112 560 l 1,18,-1
 122 570 l 2,19,20
 158 606 158 606 190 637 c 2,0,-1
EndSplineSet
EndChar

StartChar: underscore
Encoding: 95 95 66
Width: 500
Flags: W
LayerCount: 2
Fore
SplineSet
0 -62 m 1,0,-1
 0 -25 l 1,1,-1
 499 -25 l 1,2,-1
 499 -62 l 1,3,-1
 0 -62 l 1,0,-1
EndSplineSet
EndChar

StartChar: a
Encoding: 97 97 67
Width: 500
Flags: W
LayerCount: 2
Fore
SplineSet
116 305 m 128,-1,1
 93 305 93 305 78 321 c 128,-1,2
 63 337 63 337 63 359 c 0,3,4
 63 373 63 373 71 391 c 0,5,6
 84 418 84 418 123 433 c 128,-1,7
 162 448 162 448 218 448 c 0,8,9
 284 448 284 448 332.5 418 c 128,-1,10
 381 388 381 388 396 340 c 0,11,12
 401 326 401 326 401.5 308.5 c 128,-1,13
 402 291 402 291 402 194 c 0,14,15
 402 96 402 96 402.5 79.5 c 128,-1,16
 403 63 403 63 408 54 c 0,17,18
 414 40 414 40 428 40 c 0,19,20
 441 40 441 40 447 54 c 0,21,22
 453 66 453 66 453 109 c 2,23,-1
 453 145 l 1,24,-1
 493 145 l 1,25,-1
 493 106 l 2,26,27
 492 66 492 66 490 59 c 0,28,29
 481 31 481 31 457 12.5 c 128,-1,30
 433 -6 433 -6 400 -6 c 0,31,32
 375 -6 375 -6 355.5 11.5 c 128,-1,33
 336 29 336 29 329 54 c 1,34,-1
 329 58 l 1,35,36
 326 55 326 55 317 44.5 c 128,-1,37
 308 34 308 34 304 30 c 0,38,39
 255 -11 255 -11 190 -11 c 0,40,41
 138 -11 138 -11 97 11 c 128,-1,42
 56 33 56 33 42 69 c 0,43,44
 34 88 34 88 34 107 c 0,45,46
 34 154 34 154 73 193 c 0,47,48
 96 216 96 216 130 231 c 0,49,50
 198 262 198 262 304 268 c 1,51,-1
 318 268 l 1,52,-1
 318 290 l 2,53,54
 318 324 318 324 312 340 c 0,55,56
 302 373 302 373 277 392 c 128,-1,57
 252 411 252 411 215 411 c 0,58,59
 148 411 148 411 148 403 c 1,60,61
 170 388 170 388 170 359 c 0,62,63
 170 337 170 337 154.5 321 c 128,-1,0
 139 305 139 305 116 305 c 128,-1,1
318 175 m 0,64,65
 318 233 318 233 317 233 c 0,66,67
 314 233 314 233 312 232 c 0,68,69
 175 223 175 223 137 151 c 0,70,71
 126 131 126 131 126 106 c 0,72,73
 126 72 126 72 150 49 c 128,-1,74
 174 26 174 26 209 26 c 0,75,76
 249 26 249 26 277.5 50 c 128,-1,77
 306 74 306 74 315 109 c 0,78,79
 317 116 317 116 318 175 c 0,64,65
EndSplineSet
EndChar

StartChar: b
Encoding: 98 98 68
Width: 556
Flags: W
LayerCount: 2
Fore
SplineSet
98 688 m 0,0,1
 115 689 115 689 135 690.5 c 128,-1,2
 155 692 155 692 165 693 c 128,-1,3
 175 694 175 694 176 694 c 2,4,-1
 179 694 l 1,5,-1
 179 543 l 2,6,7
 179 391 179 391 180 391 c 0,8,9
 183 393 183 393 186 396 c 0,10,11
 241 442 241 442 323 442 c 0,12,13
 341 442 341 442 356 439 c 0,14,15
 427 425 427 425 474.5 364.5 c 128,-1,16
 522 304 522 304 522 216 c 0,17,18
 522 197 522 197 520 181 c 0,19,20
 507 100 507 100 449.5 44.5 c 128,-1,21
 392 -11 392 -11 307 -11 c 0,22,23
 230 -11 230 -11 175 48 c 2,24,-1
 168 55 l 1,25,-1
 158 37 l 2,26,27
 156 34 156 34 152.5 27.5 c 128,-1,28
 149 21 149 21 146.5 16.5 c 128,-1,29
 144 12 144 12 143 10 c 2,30,-1
 138 1 l 1,31,-1
 118 0 l 1,32,-1
 98 0 l 1,33,-1
 98 298 l 2,34,35
 98 599 98 599 97 603 c 0,36,37
 94 622 94 622 82.5 628.5 c 128,-1,38
 71 635 71 635 38 637 c 2,39,-1
 20 637 l 1,40,-1
 20 660 l 2,41,42
 20 683 20 683 22 683 c 2,43,-1
 32 684 l 2,44,45
 42 685 42 685 61 686 c 128,-1,46
 80 687 80 687 98 688 c 0,0,1
331 402 m 0,47,48
 307 405 307 405 300 405 c 0,49,50
 230 405 230 405 188 347 c 2,51,-1
 182 339 l 1,52,-1
 182 98 l 1,53,-1
 187 91 l 2,54,55
 217 43 217 43 264 30 c 0,56,57
 277 26 277 26 295 26 c 0,58,59
 359 26 359 26 396 80 c 0,60,61
 404 91 404 91 412 113 c 0,62,63
 424 148 424 148 424 212 c 0,64,65
 424 286 424 286 412 323 c 0,66,67
 391 386 391 386 331 402 c 0,47,48
EndSplineSet
EndChar

StartChar: c
Encoding: 99 99 69
Width: 444
Flags: W
LayerCount: 2
Fore
SplineSet
350 305 m 128,-1,1
 327 305 327 305 312 320.5 c 128,-1,2
 297 336 297 336 297 358 c 0,3,4
 297 381 297 381 312 396 c 0,5,6
 317 401 317 401 316.5 402 c 128,-1,7
 316 403 316 403 307 404 c 0,8,9
 281 408 281 408 258 408 c 0,10,11
 207 408 207 408 178 376 c 0,12,13
 131 329 131 329 131 219 c 0,14,15
 131 137 131 137 162 90 c 0,16,17
 203 29 203 29 272 29 c 0,18,19
 297 29 297 29 316 39 c 0,20,21
 358 60 358 60 374 117 c 0,22,23
 376 125 376 125 379 127 c 128,-1,24
 382 129 382 129 395 129 c 2,25,-1
 409 129 l 1,26,27
 415 123 415 123 415 120 c 0,28,29
 415 101 415 101 390 61 c 0,30,31
 340 -11 340 -11 249 -11 c 0,32,33
 199 -11 199 -11 154 12 c 0,34,35
 55 63 55 63 35 182 c 0,36,37
 34 188 34 188 34 214 c 128,-1,38
 34 240 34 240 35 247 c 0,39,40
 47 341 47 341 117 400 c 0,41,42
 177 448 177 448 250 448 c 0,43,44
 379 448 379 448 401 380 c 0,45,46
 404 371 404 371 404 357 c 0,47,48
 404 334 404 334 388.5 319.5 c 128,-1,0
 373 305 373 305 350 305 c 128,-1,1
EndSplineSet
EndChar

StartChar: d
Encoding: 100 100 70
Width: 556
Flags: W
LayerCount: 2
Fore
SplineSet
244 442 m 0,0,1
 318 442 318 442 376 393 c 1,2,-1
 376 495 l 2,3,4
 376 599 376 599 375 603 c 0,5,6
 372 622 372 622 360.5 628.5 c 128,-1,7
 349 635 349 635 316 637 c 2,8,-1
 298 637 l 1,9,-1
 298 660 l 2,10,11
 298 683 298 683 300 683 c 2,12,-1
 310 684 l 2,13,14
 320 685 320 685 339 686 c 128,-1,15
 358 687 358 687 376 688 c 0,16,17
 393 689 393 689 413 690.5 c 128,-1,18
 433 692 433 692 443 693 c 128,-1,19
 453 694 453 694 454 694 c 2,20,-1
 457 694 l 1,21,-1
 457 390 l 2,22,23
 457 84 457 84 458 81 c 0,24,25
 461 61 461 61 472.5 54.5 c 128,-1,26
 484 48 484 48 517 46 c 2,27,-1
 535 46 l 1,28,-1
 535 0 l 1,29,30
 533 0 533 0 458.5 -5 c 128,-1,31
 384 -10 384 -10 380 -11 c 2,32,-1
 373 -11 l 1,33,-1
 373 44 l 1,34,-1
 365 37 l 2,35,36
 308 -11 308 -11 235 -11 c 0,37,38
 165 -11 165 -11 111 36 c 0,39,40
 49 91 49 91 35 180 c 0,41,42
 34 188 34 188 34 215 c 0,43,44
 34 312 34 312 96 377 c 128,-1,45
 158 442 158 442 244 442 c 0,0,1
373 342 m 1,46,47
 328 405 328 405 260 405 c 0,48,49
 211 405 211 405 173 369 c 0,50,51
 148 343 148 343 139.5 308 c 128,-1,52
 131 273 131 273 131 211 c 0,53,54
 131 100 131 100 173 59 c 0,55,56
 204 26 204 26 251 26 c 0,57,58
 286 26 286 26 318 45 c 128,-1,59
 350 64 350 64 369 97 c 2,60,-1
 373 103 l 1,61,-1
 373 342 l 1,46,47
EndSplineSet
EndChar

StartChar: e
Encoding: 101 101 71
Width: 444
Flags: W
LayerCount: 2
Fore
SplineSet
415 245 m 0,0,1
 415 238 415 238 408 231 c 1,2,-1
 126 231 l 1,3,-1
 126 216 l 2,4,5
 126 142 126 142 146 104 c 0,6,7
 182 30 182 30 270 30 c 0,8,9
 313 30 313 30 342 62 c 0,10,11
 362 82 362 82 373 114 c 0,12,13
 376 125 376 125 379 128 c 128,-1,14
 382 131 382 131 395 131 c 0,15,16
 415 131 415 131 415 121 c 0,17,18
 415 117 415 117 412 108 c 0,19,20
 393 56 393 56 351.5 22.5 c 128,-1,21
 310 -11 310 -11 250 -11 c 0,22,23
 231 -11 231 -11 206 -6 c 0,24,25
 149 5 149 5 104 46 c 128,-1,26
 59 87 59 87 40 145 c 0,27,28
 28 181 28 181 28 218 c 0,29,30
 28 310 28 310 82 373.5 c 128,-1,31
 136 437 136 437 215 447 c 0,32,33
 219 448 219 448 229 448 c 0,34,35
 320 448 320 448 367.5 394.5 c 128,-1,36
 415 341 415 341 415 245 c 0,0,1
333 275 m 1,37,38
 324 384 324 384 259 407 c 0,39,40
 252 410 252 410 238 411 c 0,41,42
 186 411 186 411 153 363 c 0,43,44
 133 331 133 331 127 274 c 1,45,-1
 127 267 l 1,46,-1
 333 267 l 1,47,-1
 333 275 l 1,37,38
EndSplineSet
EndChar

StartChar: f
Encoding: 102 102 72
Width: 306
Flags: W
LayerCount: 2
Fore
SplineSet
273 0 m 2,0,1
 255 3 255 3 146 3 c 0,2,3
 48 3 48 3 34 0 c 2,4,-1
 26 0 l 1,5,-1
 26 46 l 1,6,-1
 42 46 l 2,7,8
 70 46 70 46 91 49 c 0,9,10
 99 52 99 52 103 60 c 0,11,12
 104 62 104 62 104 224 c 2,13,-1
 104 385 l 1,14,-1
 33 385 l 1,15,-1
 33 431 l 1,16,-1
 104 431 l 1,17,-1
 104 497 l 1,18,-1
 105 564 l 1,19,-1
 107 574 l 1,20,21
 123 629 123 629 164 663 c 128,-1,22
 205 697 205 697 266 704 c 0,23,24
 267 704 267 704 275.5 704.5 c 128,-1,25
 284 705 284 705 289 705 c 0,26,27
 324 703 324 703 348 682 c 128,-1,28
 372 661 372 661 372 627 c 0,29,30
 372 604 372 604 358 590 c 128,-1,31
 344 576 344 576 321 576 c 128,-1,32
 298 576 298 576 284 590 c 128,-1,33
 270 604 270 604 270 627 c 0,34,35
 270 645 270 645 288 667 c 1,36,-1
 284 667 l 2,37,38
 275 669 275 669 262 667 c 0,39,40
 238 663 238 663 218.5 642.5 c 128,-1,41
 199 622 199 622 189 592 c 0,42,43
 183 572 183 572 182 497 c 2,44,-1
 182 431 l 1,45,-1
 293 431 l 1,46,-1
 293 385 l 1,47,-1
 185 385 l 1,48,-1
 185 225 l 2,49,50
 185 63 185 63 186 61 c 0,51,52
 190 53 190 53 198 51 c 0,53,54
 208 47 208 47 251 46 c 2,55,-1
 282 46 l 1,56,-1
 282 0 l 1,57,-1
 273 0 l 2,0,1
EndSplineSet
EndChar

StartChar: g
Encoding: 103 103 73
Width: 500
Flags: W
LayerCount: 2
Fore
SplineSet
329 409 m 1,0,1
 373 453 373 453 429 453 c 0,2,3
 453 453 453 453 469 437 c 128,-1,4
 485 421 485 421 485 396 c 0,5,6
 485 380 485 380 475 370 c 128,-1,7
 465 360 465 360 449 360 c 0,8,9
 417 360 417 360 412 390 c 0,10,11
 410 404 410 404 415 411 c 0,12,13
 415 412 415 412 416 414 c 2,14,-1
 416 415 l 1,15,16
 412 414 412 414 407 413 c 0,17,18
 383 409 383 409 363 393 c 0,19,20
 355 388 355 388 355 386 c 0,21,22
 357 384 357 384 359 381 c 0,23,24
 392 340 392 340 392 292 c 0,25,26
 392 251 392 251 365 212 c 0,27,28
 318 143 318 143 222 143 c 0,29,30
 174 143 174 143 123 171 c 1,31,32
 112 151 112 151 112 133 c 0,33,34
 112 98 112 98 138 81 c 0,35,36
 147 75 147 75 155.5 74.5 c 128,-1,37
 164 74 164 74 227 73 c 0,38,39
 311 72 311 72 335 67 c 0,40,41
 396 58 396 58 431 26 c 0,42,43
 470 -13 470 -13 470 -72 c 0,44,45
 470 -90 470 -90 468 -96 c 0,46,47
 454 -145 454 -145 392 -175 c 0,48,49
 333 -206 333 -206 250 -206 c 0,50,51
 168 -206 168 -206 107 -175 c 0,52,53
 45 -145 45 -145 31 -96 c 0,54,55
 29 -90 29 -90 29 -75 c 0,56,57
 29 -34 29 -34 60 -5 c 0,58,59
 75 10 75 10 92 18 c 2,60,-1
 103 24 l 1,61,62
 67 55 67 55 67 108 c 0,63,64
 67 154 67 154 96 193 c 1,65,66
 52 237 52 237 52 292 c 0,67,68
 52 334 52 334 79 373 c 0,69,70
 100 404 100 404 138 423 c 128,-1,71
 176 442 176 442 223 442 c 0,72,73
 274 442 274 442 318 416 c 2,74,-1
 329 409 l 1,0,1
142 292 m 0,75,76
 142 238 142 238 159 210 c 128,-1,77
 176 182 176 182 222 182 c 0,78,79
 254 182 254 182 274 198.5 c 128,-1,80
 294 215 294 215 299 242 c 0,81,82
 302 258 302 258 302 292 c 128,-1,83
 302 326 302 326 299 343 c 0,84,85
 287 404 287 404 221 404 c 0,86,87
 192 404 192 404 171 387.5 c 128,-1,88
 150 371 150 371 145 343 c 0,89,90
 142 326 142 326 142 292 c 0,75,76
375 -23 m 0,91,92
 353 -8 353 -8 325.5 -4 c 128,-1,93
 298 0 298 0 247 0 c 2,94,-1
 218 0 l 2,95,96
 151 0 151 0 138 -6 c 0,97,98
 118 -15 118 -15 106.5 -34 c 128,-1,99
 95 -53 95 -53 95 -74 c 0,100,101
 95 -85 95 -85 98 -94 c 0,102,103
 106 -117 106 -117 134 -136.5 c 128,-1,104
 162 -156 162 -156 199 -163 c 0,105,106
 217 -167 217 -167 250 -167 c 0,107,108
 282 -167 282 -167 300 -163 c 0,109,110
 337 -155 337 -155 365.5 -135.5 c 128,-1,111
 394 -116 394 -116 401 -93 c 0,112,113
 403 -88 403 -88 403 -75 c 0,114,115
 403 -41 403 -41 375 -23 c 0,91,92
EndSplineSet
EndChar

StartChar: h
Encoding: 104 104 74
Width: 556
Flags: W
LayerCount: 2
Fore
SplineSet
188 60 m 1,0,1
 196 46 196 46 235 46 c 2,2,-1
 249 46 l 1,3,-1
 265 46 l 1,4,-1
 265 0 l 1,5,-1
 257 0 l 2,6,7
 244 3 244 3 145 3 c 128,-1,8
 46 3 46 3 33 0 c 2,9,-1
 25 0 l 1,10,-1
 25 46 l 1,11,-1
 41 46 l 1,12,-1
 55 46 l 2,13,14
 94 46 94 46 102 60 c 1,15,-1
 102 68 l 2,16,17
 102 77 102 77 102 91 c 128,-1,18
 102 105 102 105 102 124 c 128,-1,19
 102 143 102 143 102.5 167.5 c 128,-1,20
 103 192 103 192 103 217.5 c 128,-1,21
 103 243 103 243 103 272.5 c 128,-1,22
 103 302 103 302 103 329 c 0,23,24
 103 366 103 366 103 407.5 c 128,-1,25
 103 449 103 449 102.5 482 c 128,-1,26
 102 515 102 515 102 542.5 c 128,-1,27
 102 570 102 570 102 586 c 128,-1,28
 102 602 102 602 102 603 c 0,29,30
 99 622 99 622 87.5 628.5 c 128,-1,31
 76 635 76 635 43 637 c 2,32,-1
 25 637 l 1,33,-1
 25 660 l 2,34,35
 25 683 25 683 27 683 c 2,36,-1
 37 684 l 2,37,38
 47 685 47 685 66 686 c 128,-1,39
 85 687 85 687 103 688 c 0,40,41
 120 689 120 689 140 690.5 c 128,-1,42
 160 692 160 692 170 693 c 128,-1,43
 180 694 180 694 181 694 c 2,44,-1
 184 694 l 1,45,-1
 184 367 l 1,46,47
 246 442 246 442 328 442 c 0,48,49
 451 442 451 442 463 329 c 0,50,51
 464 322 464 322 464 190 c 0,52,53
 464 62 464 62 465 60 c 0,54,55
 469 52 469 52 477 49 c 0,56,57
 498 46 498 46 526 46 c 2,58,-1
 542 46 l 1,59,-1
 542 0 l 1,60,-1
 534 0 l 2,61,62
 521 3 521 3 422 3 c 128,-1,63
 323 3 323 3 310 0 c 2,64,-1
 302 0 l 1,65,-1
 302 46 l 1,66,-1
 318 46 l 1,67,-1
 326 46 l 2,68,69
 379 46 379 46 379 62 c 0,70,71
 380 64 380 64 380 200 c 0,72,73
 379 335 379 335 378 343 c 0,74,75
 371 375 371 375 355.5 389.5 c 128,-1,76
 340 404 340 404 308 404 c 0,77,78
 263 404 263 404 229 370 c 0,79,80
 194 335 194 335 188 282 c 0,81,82
 188 281 188 281 188 263.5 c 128,-1,83
 188 246 188 246 187.5 219 c 128,-1,84
 187 192 187 192 187 168 c 0,85,86
 187 153 187 153 187 136.5 c 128,-1,87
 187 120 187 120 187.5 107 c 128,-1,88
 188 94 188 94 188 83.5 c 128,-1,89
 188 73 188 73 188 66 c 2,90,-1
 188 60 l 1,0,1
EndSplineSet
EndChar

StartChar: i
Encoding: 105 105 75
Width: 278
Flags: W
LayerCount: 2
Fore
SplineSet
131 669 m 0,0,1
 156 667 156 667 172 651.5 c 128,-1,2
 188 636 188 636 188 609 c 0,3,4
 188 573 188 573 161 558 c 0,5,6
 148 549 148 549 129 549 c 0,7,8
 109 549 109 549 96 558 c 0,9,10
 69 573 69 573 69 609 c 0,11,12
 69 637 69 637 86.5 653 c 128,-1,13
 104 669 104 669 131 669 c 0,0,1
247 0 m 2,14,15
 236 3 236 3 143 3 c 0,16,17
 52 3 52 3 34 0 c 2,18,-1
 26 0 l 1,19,-1
 26 46 l 1,20,-1
 42 46 l 2,21,22
 70 46 70 46 91 49 c 0,23,24
 99 52 99 52 103 60 c 0,25,26
 104 62 104 62 104 205 c 0,27,28
 104 355 104 355 100 365 c 0,29,30
 92 385 92 385 41 385 c 2,31,-1
 30 385 l 1,32,-1
 30 408 l 2,33,34
 30 431 30 431 32 431 c 2,35,-1
 42 432 l 2,36,37
 52 433 52 433 70 434 c 128,-1,38
 88 435 88 435 106 436 c 0,39,40
 123 437 123 437 142 438.5 c 128,-1,41
 161 440 161 440 171 441 c 128,-1,42
 181 442 181 442 182 442 c 2,43,-1
 185 442 l 1,44,-1
 185 62 l 1,45,46
 190 52 190 52 197 49.5 c 128,-1,47
 204 47 204 47 232 46 c 2,48,-1
 255 46 l 1,49,-1
 255 0 l 1,50,-1
 247 0 l 2,14,15
EndSplineSet
EndChar

StartChar: j
Encoding: 106 106 76
Width: 306
Flags: W
LayerCount: 2
Fore
SplineSet
160 669 m 0,0,1
 185 667 185 667 201 651.5 c 128,-1,2
 217 636 217 636 217 609 c 0,3,4
 217 573 217 573 190 558 c 0,5,6
 177 549 177 549 158 549 c 0,7,8
 138 549 138 549 125 558 c 0,9,10
 98 573 98 573 98 609 c 0,11,12
 98 637 98 637 115.5 653 c 128,-1,13
 133 669 133 669 160 669 c 0,0,1
28 -163 m 1,14,15
 58 -168 58 -168 64 -168 c 0,16,17
 76 -168 76 -168 85 -165 c 0,18,19
 127 -150 127 -150 135 -77 c 0,20,21
 137 -65 137 -65 137 141 c 128,-1,22
 137 347 137 347 136 353 c 0,23,24
 132 373 132 373 119 378.5 c 128,-1,25
 106 384 106 384 72 385 c 2,26,-1
 52 385 l 1,27,-1
 52 408 l 2,28,29
 52 431 52 431 54 431 c 2,30,-1
 58 432 l 2,31,32
 62 432 62 432 70 432.5 c 128,-1,33
 78 433 78 433 87 433.5 c 128,-1,34
 96 434 96 434 108.5 434.5 c 128,-1,35
 121 435 121 435 133 436 c 0,36,37
 151 437 151 437 171.5 438.5 c 128,-1,38
 192 440 192 440 202.5 441 c 128,-1,39
 213 442 213 442 214 442 c 2,40,-1
 218 442 l 1,41,-1
 218 184 l 2,42,43
 217 -36 217 -36 216.5 -59.5 c 128,-1,44
 216 -83 216 -83 211 -98 c 0,45,46
 196 -144 196 -144 155 -174.5 c 128,-1,47
 114 -205 114 -205 58 -205 c 0,48,49
 13 -205 13 -205 -21 -181.5 c 128,-1,50
 -55 -158 -55 -158 -55 -117 c 0,51,52
 -55 -94 -55 -94 -40 -79 c 128,-1,53
 -25 -64 -25 -64 -2 -64 c 128,-1,54
 21 -64 21 -64 36.5 -79.5 c 128,-1,55
 52 -95 52 -95 52 -118 c 0,56,57
 52 -143 52 -143 28 -163 c 1,14,15
EndSplineSet
EndChar

StartChar: k
Encoding: 107 107 77
Width: 528
Flags: W
LayerCount: 2
Fore
SplineSet
36 46 m 1,0,-1
 50 46 l 2,1,2
 89 46 89 46 97 60 c 1,3,-1
 97 68 l 2,4,5
 97 77 97 77 97 91 c 128,-1,6
 97 105 97 105 97.5 124 c 128,-1,7
 98 143 98 143 98 167.5 c 128,-1,8
 98 192 98 192 98 217.5 c 128,-1,9
 98 243 98 243 98 272.5 c 128,-1,10
 98 302 98 302 98 329 c 0,11,12
 98 366 98 366 98 407.5 c 128,-1,13
 98 449 98 449 98 482 c 128,-1,14
 98 515 98 515 97.5 542.5 c 128,-1,15
 97 570 97 570 97 586 c 128,-1,16
 97 602 97 602 97 603 c 0,17,18
 94 622 94 622 82.5 628.5 c 128,-1,19
 71 635 71 635 38 637 c 2,20,-1
 20 637 l 1,21,-1
 20 660 l 2,22,23
 20 683 20 683 22 683 c 2,24,-1
 32 684 l 2,25,26
 42 685 42 685 61 686 c 128,-1,27
 80 687 80 687 98 688 c 0,28,29
 115 689 115 689 135 690.5 c 128,-1,30
 155 692 155 692 165 693 c 128,-1,31
 175 694 175 694 176 694 c 2,32,-1
 179 694 l 1,33,-1
 179 463 l 1,34,-1
 180 233 l 1,35,-1
 240 287 l 2,36,37
 300 341 300 341 304 347 c 0,38,39
 310 356 310 356 310 364 c 0,40,41
 310 382 310 382 289 385 c 2,42,-1
 284 385 l 1,43,-1
 284 431 l 1,44,-1
 293 431 l 2,45,46
 306 428 306 428 412 428 c 0,47,48
 419 428 419 428 430.5 428.5 c 128,-1,49
 442 429 442 429 448 429 c 128,-1,50
 454 429 454 429 463.5 429.5 c 128,-1,51
 473 430 473 430 478 430.5 c 128,-1,52
 483 431 483 431 484 431 c 2,53,-1
 489 431 l 1,54,-1
 489 385 l 1,55,-1
 476 385 l 1,56,57
 407 380 407 380 360 341 c 0,58,59
 286 278 286 278 286 274 c 0,60,61
 286 273 286 273 349.5 180.5 c 128,-1,62
 413 88 413 88 420 79 c 0,63,64
 434 60 434 60 451.5 53 c 128,-1,65
 469 46 469 46 500 46 c 2,66,-1
 511 46 l 1,67,-1
 511 0 l 1,68,-1
 505 0 l 2,69,70
 493 3 493 3 418 3 c 0,71,72
 320 3 320 3 307 0 c 2,73,-1
 299 0 l 1,74,-1
 299 46 l 1,75,-1
 306 46 l 2,76,77
 330 48 330 48 330 65 c 0,78,79
 330 72 330 72 326 79 c 0,80,81
 323 84 323 84 276 153 c 128,-1,82
 229 222 229 222 228 222 c 0,83,84
 216 212 216 212 202 199 c 2,85,-1
 176 176 l 1,86,-1
 176 120 l 2,87,88
 176 62 176 62 177 60 c 0,89,90
 181 52 181 52 189 49 c 0,91,92
 210 46 210 46 238 46 c 2,93,-1
 254 46 l 1,94,-1
 254 0 l 1,95,-1
 246 0 l 2,96,97
 235 3 235 3 137 3 c 128,-1,98
 39 3 39 3 28 0 c 2,99,-1
 20 0 l 1,100,-1
 20 46 l 1,101,-1
 36 46 l 1,0,-1
EndSplineSet
EndChar

StartChar: l
Encoding: 108 108 78
Width: 278
Flags: W
LayerCount: 2
Fore
SplineSet
42 46 m 1,0,-1
 56 46 l 2,1,2
 95 46 95 46 103 60 c 1,3,-1
 103 68 l 2,4,5
 103 77 103 77 103 91 c 128,-1,6
 103 105 103 105 103.5 124 c 128,-1,7
 104 143 104 143 104 167.5 c 128,-1,8
 104 192 104 192 104 217.5 c 128,-1,9
 104 243 104 243 104 272.5 c 128,-1,10
 104 302 104 302 104 329 c 0,11,12
 104 366 104 366 104 407.5 c 128,-1,13
 104 449 104 449 104 482 c 128,-1,14
 104 515 104 515 103.5 542.5 c 128,-1,15
 103 570 103 570 103 586 c 128,-1,16
 103 602 103 602 103 603 c 0,17,18
 100 622 100 622 88.5 628.5 c 128,-1,19
 77 635 77 635 44 637 c 2,20,-1
 26 637 l 1,21,-1
 26 660 l 2,22,23
 26 683 26 683 28 683 c 2,24,-1
 38 684 l 2,25,26
 48 685 48 685 67 686 c 128,-1,27
 86 687 86 687 104 688 c 0,28,29
 121 689 121 689 141 690.5 c 128,-1,30
 161 692 161 692 171 693 c 128,-1,31
 181 694 181 694 182 694 c 2,32,-1
 185 694 l 1,33,-1
 185 379 l 2,34,35
 185 62 185 62 186 60 c 0,36,37
 190 52 190 52 198 49 c 0,38,39
 219 46 219 46 247 46 c 2,40,-1
 263 46 l 1,41,-1
 263 0 l 1,42,-1
 255 0 l 2,43,44
 237 3 237 3 145 3 c 0,45,46
 47 3 47 3 34 0 c 2,47,-1
 26 0 l 1,48,-1
 26 46 l 1,49,-1
 42 46 l 1,0,-1
EndSplineSet
EndChar

StartChar: m
Encoding: 109 109 79
Width: 833
Flags: W
LayerCount: 2
Fore
SplineSet
188 60 m 1,0,1
 196 46 196 46 235 46 c 2,2,-1
 249 46 l 1,3,-1
 265 46 l 1,4,-1
 265 0 l 1,5,-1
 257 0 l 2,6,7
 244 3 244 3 145 3 c 128,-1,8
 46 3 46 3 33 0 c 2,9,-1
 25 0 l 1,10,-1
 25 46 l 1,11,-1
 41 46 l 1,12,-1
 55 46 l 2,13,14
 94 46 94 46 102 60 c 1,15,-1
 102 68 l 2,16,17
 102 77 102 77 102 91 c 128,-1,18
 102 105 102 105 102.5 122.5 c 128,-1,19
 103 140 103 140 103 161.5 c 128,-1,20
 103 183 103 183 103 203 c 0,21,22
 103 234 103 234 102.5 269.5 c 128,-1,23
 102 305 102 305 102 328 c 2,24,-1
 102 351 l 2,25,26
 99 370 99 370 87.5 376.5 c 128,-1,27
 76 383 76 383 43 385 c 2,28,-1
 25 385 l 1,29,-1
 25 408 l 2,30,31
 25 431 25 431 27 431 c 2,32,-1
 37 432 l 2,33,34
 47 433 47 433 65.5 434 c 128,-1,35
 84 435 84 435 102 436 c 0,36,37
 119 437 119 437 138 438.5 c 128,-1,38
 157 440 157 440 167 441 c 128,-1,39
 177 442 177 442 178 442 c 2,40,-1
 181 442 l 1,41,-1
 181 402 l 2,42,43
 181 364 181 364 182 364 c 2,44,-1
 183 365 l 1,45,46
 237 442 237 442 336 442 c 0,47,48
 433 439 433 439 455 366 c 1,49,-1
 457 361 l 1,50,51
 481 391 481 391 484 394 c 0,52,53
 535 442 535 442 603 442 c 0,54,55
 728 442 728 442 740 329 c 0,56,57
 741 322 741 322 741 190 c 0,58,59
 741 62 741 62 742 60 c 0,60,61
 746 52 746 52 754 49 c 0,62,63
 775 46 775 46 803 46 c 2,64,-1
 819 46 l 1,65,-1
 819 0 l 1,66,-1
 811 0 l 2,67,68
 798 3 798 3 699 3 c 128,-1,69
 600 3 600 3 587 0 c 2,70,-1
 579 0 l 1,71,-1
 579 46 l 1,72,-1
 595 46 l 1,73,-1
 603 46 l 2,74,75
 656 46 656 46 656 62 c 0,76,77
 657 64 657 64 657 200 c 0,78,79
 656 335 656 335 655 343 c 0,80,81
 648 375 648 375 632.5 389.5 c 128,-1,82
 617 404 617 404 585 404 c 0,83,84
 540 404 540 404 506 370 c 0,85,86
 471 335 471 335 465 282 c 0,87,88
 465 281 465 281 464.5 263.5 c 128,-1,89
 464 246 464 246 464 219 c 128,-1,90
 464 192 464 192 464 168 c 0,91,92
 464 153 464 153 464 136.5 c 128,-1,93
 464 120 464 120 464 107 c 128,-1,94
 464 94 464 94 464.5 83.5 c 128,-1,95
 465 73 465 73 465 66 c 2,96,-1
 465 60 l 1,97,98
 473 46 473 46 512 46 c 2,99,-1
 526 46 l 1,100,-1
 542 46 l 1,101,-1
 542 0 l 1,102,-1
 534 0 l 2,103,104
 521 3 521 3 422 3 c 128,-1,105
 323 3 323 3 310 0 c 2,106,-1
 302 0 l 1,107,-1
 302 46 l 1,108,-1
 318 46 l 1,109,-1
 326 46 l 2,110,111
 379 46 379 46 379 62 c 0,112,113
 380 64 380 64 380 200 c 0,114,115
 379 335 379 335 378 343 c 0,116,117
 371 375 371 375 355.5 389.5 c 128,-1,118
 340 404 340 404 308 404 c 0,119,120
 263 404 263 404 229 370 c 0,121,122
 194 335 194 335 188 282 c 0,123,124
 188 281 188 281 188 263.5 c 128,-1,125
 188 246 188 246 187.5 219 c 128,-1,126
 187 192 187 192 187 168 c 0,127,128
 187 153 187 153 187 136.5 c 128,-1,129
 187 120 187 120 187.5 107 c 128,-1,130
 188 94 188 94 188 83.5 c 128,-1,131
 188 73 188 73 188 66 c 2,132,-1
 188 60 l 1,0,1
EndSplineSet
EndChar

StartChar: n
Encoding: 110 110 80
Width: 556
Flags: W
LayerCount: 2
Fore
SplineSet
188 60 m 1,0,1
 196 46 196 46 235 46 c 2,2,-1
 249 46 l 1,3,-1
 265 46 l 1,4,-1
 265 0 l 1,5,-1
 257 0 l 2,6,7
 244 3 244 3 145 3 c 128,-1,8
 46 3 46 3 33 0 c 2,9,-1
 25 0 l 1,10,-1
 25 46 l 1,11,-1
 41 46 l 1,12,-1
 55 46 l 2,13,14
 94 46 94 46 102 60 c 1,15,-1
 102 68 l 2,16,17
 102 77 102 77 102 91 c 128,-1,18
 102 105 102 105 102.5 122.5 c 128,-1,19
 103 140 103 140 103 161.5 c 128,-1,20
 103 183 103 183 103 203 c 0,21,22
 103 234 103 234 102.5 269.5 c 128,-1,23
 102 305 102 305 102 328 c 2,24,-1
 102 351 l 2,25,26
 99 370 99 370 87.5 376.5 c 128,-1,27
 76 383 76 383 43 385 c 2,28,-1
 25 385 l 1,29,-1
 25 408 l 2,30,31
 25 431 25 431 27 431 c 2,32,-1
 37 432 l 2,33,34
 47 433 47 433 65.5 434 c 128,-1,35
 84 435 84 435 102 436 c 0,36,37
 119 437 119 437 138 438.5 c 128,-1,38
 157 440 157 440 167 441 c 128,-1,39
 177 442 177 442 178 442 c 2,40,-1
 181 442 l 1,41,-1
 181 402 l 2,42,43
 181 364 181 364 182 364 c 2,44,-1
 183 365 l 1,45,46
 237 442 237 442 336 442 c 0,47,48
 451 438 451 438 463 329 c 0,49,50
 464 322 464 322 464 190 c 0,51,52
 464 62 464 62 465 60 c 0,53,54
 469 52 469 52 477 49 c 0,55,56
 498 46 498 46 526 46 c 2,57,-1
 542 46 l 1,58,-1
 542 0 l 1,59,-1
 534 0 l 2,60,61
 521 3 521 3 422 3 c 128,-1,62
 323 3 323 3 310 0 c 2,63,-1
 302 0 l 1,64,-1
 302 46 l 1,65,-1
 318 46 l 1,66,-1
 326 46 l 2,67,68
 379 46 379 46 379 62 c 0,69,70
 380 64 380 64 380 200 c 0,71,72
 379 335 379 335 378 343 c 0,73,74
 371 375 371 375 355.5 389.5 c 128,-1,75
 340 404 340 404 308 404 c 0,76,77
 263 404 263 404 229 370 c 0,78,79
 194 335 194 335 188 282 c 0,80,81
 188 281 188 281 188 263.5 c 128,-1,82
 188 246 188 246 187.5 219 c 128,-1,83
 187 192 187 192 187 168 c 0,84,85
 187 153 187 153 187 136.5 c 128,-1,86
 187 120 187 120 187.5 107 c 128,-1,87
 188 94 188 94 188 83.5 c 128,-1,88
 188 73 188 73 188 66 c 2,89,-1
 188 60 l 1,0,1
EndSplineSet
EndChar

StartChar: o
Encoding: 111 111 81
Width: 500
Flags: W
LayerCount: 2
Fore
SplineSet
28 214 m 0,0,1
 28 305 28 305 86 370.5 c 128,-1,2
 144 436 144 436 225 446 c 0,3,4
 241 448 241 448 250 448 c 0,5,6
 337 448 337 448 401 384 c 0,7,8
 471 314 471 314 471 215 c 0,9,10
 471 195 471 195 466 168 c 0,11,12
 454 105 454 105 409.5 58.5 c 128,-1,13
 365 12 365 12 302 -4 c 0,14,15
 279 -10 279 -10 250 -10 c 0,16,17
 220 -10 220 -10 197 -4 c 0,18,19
 122 15 122 15 75 75.5 c 128,-1,20
 28 136 28 136 28 214 c 0,0,1
268 410 m 0,21,22
 263 411 263 411 252 411 c 0,23,24
 222 411 222 411 195 399 c 0,25,26
 139 371 139 371 128 290 c 0,27,28
 126 272 126 272 126 226 c 0,29,30
 126 131 126 131 145 91 c 0,31,32
 177 30 177 30 250 30 c 0,33,34
 372 30 372 30 372 193 c 2,35,-1
 372 225 l 2,36,37
 372 290 372 290 367 313 c 0,38,39
 350 392 350 392 268 410 c 0,21,22
EndSplineSet
EndChar

StartChar: p
Encoding: 112 112 82
Width: 556
Flags: W
LayerCount: 2
Fore
SplineSet
36 -148 m 1,0,-1
 50 -148 l 2,1,2
 89 -148 89 -148 97 -134 c 1,3,-1
 97 -126 l 2,4,5
 97 -119 97 -119 97 -106.5 c 128,-1,6
 97 -94 97 -94 97.5 -77 c 128,-1,7
 98 -60 98 -60 98 -38 c 128,-1,8
 98 -16 98 -16 98 6.5 c 128,-1,9
 98 29 98 29 98 55.5 c 128,-1,10
 98 82 98 82 98 106 c 0,11,12
 98 140 98 140 98 177 c 128,-1,13
 98 214 98 214 98 243 c 128,-1,14
 98 272 98 272 97.5 296.5 c 128,-1,15
 97 321 97 321 97 335.5 c 128,-1,16
 97 350 97 350 97 351 c 0,17,18
 94 370 94 370 82.5 376.5 c 128,-1,19
 71 383 71 383 38 385 c 2,20,-1
 20 385 l 1,21,-1
 20 408 l 2,22,23
 20 431 20 431 22 431 c 2,24,-1
 32 432 l 2,25,26
 42 433 42 433 61 434 c 128,-1,27
 80 435 80 435 98 436 c 0,28,29
 115 437 115 437 135 438.5 c 128,-1,30
 155 440 155 440 165 441 c 128,-1,31
 175 442 175 442 176 442 c 2,32,-1
 179 442 l 1,33,-1
 179 416 l 1,34,-1
 180 390 l 1,35,-1
 188 397 l 1,36,37
 249 441 249 441 326 441 c 0,38,39
 348 441 348 441 358 439 c 0,40,41
 428 425 428 425 475 364 c 128,-1,42
 522 303 522 303 522 216 c 0,43,44
 522 197 522 197 520 181 c 0,45,46
 510 116 510 116 471.5 69 c 128,-1,47
 433 22 433 22 372 -1 c 0,48,49
 342 -11 342 -11 310 -11 c 0,50,51
 242 -11 242 -11 190 33 c 2,52,-1
 182 40 l 1,53,-1
 182 -45 l 2,54,55
 182 -132 182 -132 183 -134 c 0,56,57
 187 -142 187 -142 195 -145 c 0,58,59
 216 -148 216 -148 244 -148 c 2,60,-1
 260 -148 l 1,61,-1
 260 -194 l 1,62,-1
 252 -194 l 2,63,64
 239 -191 239 -191 140 -191 c 128,-1,65
 41 -191 41 -191 28 -194 c 2,66,-1
 20 -194 l 1,67,-1
 20 -148 l 1,68,-1
 36 -148 l 1,0,-1
424 218 m 0,69,70
 424 287 424 287 393.5 340 c 128,-1,71
 363 393 363 393 319 401 c 0,72,73
 317 401 317 401 312.5 401.5 c 128,-1,74
 308 402 308 402 305 402 c 0,75,76
 234 402 234 402 182 337 c 1,77,-1
 182 98 l 1,78,79
 223 26 223 26 294 26 c 0,80,81
 336 26 336 26 370 63 c 0,82,83
 424 119 424 119 424 218 c 0,69,70
EndSplineSet
EndChar

StartChar: q
Encoding: 113 113 83
Width: 528
Flags: W
LayerCount: 2
Fore
SplineSet
373 49 m 1,0,1
 313 -11 313 -11 236 -11 c 0,2,3
 180 -11 180 -11 135 19 c 128,-1,4
 90 49 90 49 65 93 c 0,5,6
 33 149 33 149 33 218 c 2,7,-1
 33 224 l 1,8,9
 37 292 37 292 70.5 343.5 c 128,-1,10
 104 395 104 395 156 421 c 0,11,12
 198 441 198 441 236 441 c 0,13,14
 266 441 266 441 273 440 c 0,15,16
 340 427 340 427 381 372 c 2,17,-1
 387 364 l 2,18,19
 388 364 388 364 404 403 c 2,20,-1
 420 442 l 1,21,-1
 457 442 l 1,22,-1
 457 156 l 2,23,24
 457 -132 457 -132 458 -134 c 0,25,26
 462 -142 462 -142 470 -145 c 0,27,28
 491 -148 491 -148 519 -148 c 2,29,-1
 535 -148 l 1,30,-1
 535 -194 l 1,31,-1
 527 -194 l 2,32,33
 514 -191 514 -191 415 -191 c 128,-1,34
 316 -191 316 -191 303 -194 c 2,35,-1
 295 -194 l 1,36,-1
 295 -148 l 1,37,-1
 311 -148 l 2,38,39
 339 -148 339 -148 360 -145 c 0,40,41
 368 -142 368 -142 372 -134 c 0,42,43
 373 -132 373 -132 373 -41 c 2,44,-1
 373 49 l 1,0,1
376 300 m 1,45,46
 346 389 346 389 278 401 c 0,47,48
 275 401 275 401 269 401.5 c 128,-1,49
 263 402 263 402 261 402 c 0,50,51
 201 400 201 400 160 333 c 0,52,53
 131 284 131 284 131 214 c 0,54,55
 131 148 131 148 159 94.5 c 128,-1,56
 187 41 187 41 230 29 c 0,57,58
 236 27 236 27 253 27 c 0,59,60
 268 27 268 27 274 28 c 0,61,62
 343 44 343 44 376 118 c 1,63,-1
 376 300 l 1,45,46
EndSplineSet
EndChar

StartChar: r
Encoding: 114 114 84
Width: 392
Flags: W
LayerCount: 2
Fore
SplineSet
36 46 m 1,0,-1
 50 46 l 2,1,2
 89 46 89 46 97 60 c 1,3,-1
 97 68 l 2,4,5
 97 77 97 77 97.5 91 c 128,-1,6
 98 105 98 105 98 122.5 c 128,-1,7
 98 140 98 140 98 161.5 c 128,-1,8
 98 183 98 183 98 203 c 0,9,10
 98 234 98 234 98 269.5 c 128,-1,11
 98 305 98 305 98 328 c 2,12,-1
 97 351 l 2,13,14
 94 370 94 370 82.5 376.5 c 128,-1,15
 71 383 71 383 38 385 c 2,16,-1
 20 385 l 1,17,-1
 20 408 l 2,18,19
 20 431 20 431 22 431 c 2,20,-1
 32 432 l 2,21,22
 42 433 42 433 60 434 c 128,-1,23
 78 435 78 435 96 436 c 0,24,25
 112 437 112 437 131 438.5 c 128,-1,26
 150 440 150 440 160 441 c 128,-1,27
 170 442 170 442 171 442 c 2,28,-1
 174 442 l 1,29,-1
 174 373 l 1,30,31
 193 405 193 405 216 423 c 128,-1,32
 239 441 239 441 277 441 c 0,33,34
 305 441 305 441 325 430 c 0,35,36
 364 410 364 410 364 373 c 0,37,38
 364 351 364 351 349 336.5 c 128,-1,39
 334 322 334 322 313 322 c 128,-1,40
 292 322 292 322 277.5 336 c 128,-1,41
 263 350 263 350 263 372 c 0,42,43
 263 389 263 389 271 400 c 0,44,45
 273 404 273 404 273 405 c 0,46,47
 271 407 271 407 250 401 c 0,48,49
 234 393 234 393 226 386 c 0,50,51
 186 348 186 348 180 260 c 1,52,-1
 180 221 l 2,53,54
 179 182 179 182 179 154 c 0,55,56
 179 141 179 141 179 126.5 c 128,-1,57
 179 112 179 112 179.5 101 c 128,-1,58
 180 90 180 90 180 81 c 128,-1,59
 180 72 180 72 180 66 c 2,60,-1
 180 61 l 1,61,62
 184 53 184 53 192 51 c 0,63,64
 202 47 202 47 245 46 c 2,65,-1
 276 46 l 1,66,-1
 276 0 l 1,67,-1
 267 0 l 2,68,69
 249 3 249 3 140 3 c 0,70,71
 42 3 42 3 28 0 c 2,72,-1
 20 0 l 1,73,-1
 20 46 l 1,74,-1
 36 46 l 1,0,-1
EndSplineSet
EndChar

StartChar: s
Encoding: 115 115 85
Width: 394
Flags: W
LayerCount: 2
Fore
SplineSet
190 414 m 0,0,1
 98 414 98 414 98 349 c 0,2,3
 98 336 98 336 100 332 c 0,4,5
 109 308 109 308 131 297.5 c 128,-1,6
 153 287 153 287 199 278 c 0,7,8
 256 268 256 268 277 256 c 0,9,10
 340 226 340 226 358 157 c 0,11,12
 359 151 359 151 359 133 c 0,13,14
 359 94 359 94 345 64 c 0,15,16
 306 -10 306 -10 198 -10 c 0,17,18
 138 -10 138 -10 94 26 c 1,19,-1
 86 19 l 1,20,-1
 77 10 l 2,21,22
 71 4 71 4 65 -1 c 2,23,-1
 54 -11 l 1,24,-1
 46 -11 l 2,25,26
 39 -11 39 -11 33 -5 c 1,27,-1
 33 74 l 2,28,29
 33 139 33 139 33.5 149 c 128,-1,30
 34 159 34 159 38 161 c 0,31,32
 40 162 40 162 54 162 c 0,33,34
 67 162 67 162 69.5 160 c 128,-1,35
 72 158 72 158 75 146 c 0,36,37
 83 108 83 108 101 77 c 0,38,39
 136 26 136 26 198 26 c 0,40,41
 295 26 295 26 295 104 c 0,42,43
 295 133 295 133 277 151 c 0,44,45
 261 170 261 170 235 178 c 0,46,47
 218 182 218 182 187 189 c 0,48,49
 131 200 131 200 111 210 c 0,50,51
 45 241 45 241 34 303 c 0,52,53
 33 307 33 307 33 318 c 0,54,55
 33 433 33 433 174 447 c 0,56,57
 178 449 178 449 198 447 c 0,58,59
 238 447 238 447 268 432 c 2,60,-1
 283 424 l 1,61,-1
 292 431 l 2,62,63
 305 442 305 442 314 448 c 1,64,-1
 322 448 l 2,65,66
 329 448 329 448 335 442 c 1,67,-1
 335 310 l 1,68,-1
 329 304 l 1,69,-1
 301 304 l 1,70,71
 295 310 295 310 295 316 c 0,72,73
 295 362 295 362 267 388 c 128,-1,74
 239 414 239 414 190 414 c 0,0,1
EndSplineSet
EndChar

StartChar: t
Encoding: 116 116 86
Width: 389
Flags: W
LayerCount: 2
Fore
SplineSet
141 600 m 1,0,-1
 141 615 l 1,1,-1
 181 615 l 1,2,-1
 181 431 l 1,3,-1
 316 431 l 1,4,-1
 316 385 l 1,5,-1
 181 385 l 1,6,-1
 181 241 l 2,7,8
 182 116 182 116 182.5 99.5 c 128,-1,9
 183 83 183 83 189 68 c 0,10,11
 203 29 203 29 238 29 c 0,12,13
 282 29 282 29 292 100 c 0,14,15
 293 108 293 108 293 146 c 2,16,-1
 293 181 l 1,17,-1
 333 181 l 1,18,-1
 333 146 l 2,19,20
 333 100 333 100 328 80 c 0,21,22
 317 40 317 40 290.5 15 c 128,-1,23
 264 -10 264 -10 221 -10 c 0,24,25
 167 -10 167 -10 135 19.5 c 128,-1,26
 103 49 103 49 98 100 c 0,27,28
 97 107 97 107 97 248 c 2,29,-1
 97 385 l 1,30,-1
 18 385 l 1,31,-1
 18 422 l 1,32,-1
 27 422 l 2,33,34
 64 425 64 425 90 454 c 0,35,36
 136 502 136 502 141 600 c 1,0,-1
EndSplineSet
EndChar

StartChar: u
Encoding: 117 117 87
Width: 556
Flags: W
LayerCount: 2
Fore
SplineSet
105 436 m 0,0,1
 122 437 122 437 142 438.5 c 128,-1,2
 162 440 162 440 172.5 441 c 128,-1,3
 183 442 183 442 184 442 c 2,4,-1
 187 442 l 1,5,-1
 187 261 l 2,6,7
 188 77 188 77 189 71 c 0,8,9
 193 50 193 50 204 40 c 0,10,11
 224 26 224 26 264 26 c 0,12,13
 292 26 292 26 311 35 c 0,14,15
 369 63 369 63 379 144 c 0,16,17
 379 145 379 145 379.5 161 c 128,-1,18
 380 177 380 177 380 201.5 c 128,-1,19
 380 226 380 226 380 248 c 128,-1,20
 380 270 380 270 380 294.5 c 128,-1,21
 380 319 380 319 380 335 c 2,22,-1
 379 351 l 2,23,24
 376 370 376 370 364.5 376.5 c 128,-1,25
 353 383 353 383 320 385 c 2,26,-1
 302 385 l 1,27,-1
 302 431 l 1,28,29
 304 431 304 431 378.5 436 c 128,-1,30
 453 441 453 441 457 442 c 2,31,-1
 464 442 l 1,32,-1
 464 264 l 2,33,34
 464 84 464 84 465 81 c 0,35,36
 468 61 468 61 479.5 54.5 c 128,-1,37
 491 48 491 48 524 46 c 2,38,-1
 542 46 l 1,39,-1
 542 0 l 1,40,41
 540 0 540 0 467 -5 c 128,-1,42
 394 -10 394 -10 390 -11 c 2,43,-1
 383 -11 l 1,44,-1
 383 58 l 1,45,46
 341 7 341 7 302 -3 c 0,47,48
 283 -10 283 -10 249 -10 c 0,49,50
 185 -10 185 -10 150 13.5 c 128,-1,51
 115 37 115 37 105 89 c 0,52,53
 104 96 104 96 103 226 c 0,54,55
 102 335 102 335 101.5 348 c 128,-1,56
 101 361 101 361 96 369 c 0,57,58
 86 385 86 385 36 385 c 2,59,-1
 25 385 l 1,60,-1
 25 408 l 2,61,62
 25 431 25 431 27 431 c 2,63,-1
 38 432 l 2,64,65
 48 433 48 433 67 434 c 128,-1,66
 86 435 86 435 105 436 c 0,0,1
EndSplineSet
EndChar

StartChar: v
Encoding: 118 118 88
Width: 528
Flags: W
LayerCount: 2
Fore
SplineSet
338 431 m 2,0,1
 343 429 343 429 386 429 c 2,2,-1
 422 429 l 2,3,4
 479 429 479 429 503 431 c 2,5,-1
 508 431 l 1,6,-1
 508 385 l 1,7,-1
 497 385 l 2,8,9
 441 382 441 382 423 345 c 0,10,11
 421 341 421 341 355.5 172 c 128,-1,12
 290 3 290 3 288 -2 c 0,13,14
 283 -11 283 -11 263 -11 c 0,15,16
 244 -11 244 -11 239 -2 c 0,17,18
 99 359 99 359 98 364 c 0,19,20
 94 374 94 374 86.5 378 c 128,-1,21
 79 382 79 382 73 383 c 128,-1,22
 67 384 67 384 43 385 c 2,23,-1
 19 385 l 1,24,-1
 19 431 l 1,25,-1
 25 431 l 2,26,27
 35 428 35 428 122 428 c 0,28,29
 217 428 217 428 232 431 c 2,30,-1
 240 431 l 1,31,-1
 240 385 l 1,32,-1
 226 385 l 2,33,34
 187 384 187 384 184 370 c 0,35,36
 184 366 184 366 235 234 c 2,37,-1
 286 102 l 1,38,39
 317 181 317 181 377 341 c 1,40,-1
 377 349 l 2,41,42
 377 365 377 365 364 375 c 128,-1,43
 351 385 351 385 335 385 c 2,44,-1
 331 385 l 1,45,-1
 331 431 l 1,46,-1
 338 431 l 2,0,1
EndSplineSet
EndChar

StartChar: w
Encoding: 119 119 89
Width: 722
Flags: W
LayerCount: 2
Fore
SplineSet
452 385 m 2,0,1
 404 385 404 385 404 369 c 0,2,3
 404 361 404 361 449 233 c 128,-1,4
 494 105 494 105 496 100 c 1,5,-1
 537 219 l 2,6,7
 579 341 579 341 579 347 c 0,8,9
 579 364 579 364 564.5 373.5 c 128,-1,10
 550 383 550 383 530 385 c 2,11,-1
 522 385 l 1,12,-1
 522 431 l 1,13,-1
 529 431 l 2,14,15
 542 428 542 428 624 428 c 0,16,17
 692 428 692 428 698 431 c 2,18,-1
 703 431 l 1,19,-1
 703 385 l 1,20,-1
 697 385 l 2,21,22
 696 385 696 385 690.5 384.5 c 128,-1,23
 685 384 685 384 682 384 c 0,24,25
 635 377 635 377 619 334 c 2,26,-1
 501 -3 l 2,27,28
 497 -11 497 -11 479 -11 c 0,29,30
 460 -11 460 -11 456 -4 c 0,31,32
 455 -3 455 -3 407 133 c 2,33,-1
 361 267 l 1,34,35
 276 35 276 35 266 -4 c 0,36,37
 261 -11 261 -11 243 -11 c 0,38,39
 224 -11 224 -11 220 -3 c 2,40,-1
 90 368 l 2,41,42
 83 379 83 379 75 381.5 c 128,-1,43
 67 384 67 384 40 385 c 2,44,-1
 18 385 l 1,45,-1
 18 431 l 1,46,-1
 24 431 l 2,47,48
 35 428 35 428 116 428 c 0,49,50
 206 428 206 428 221 431 c 2,51,-1
 229 431 l 1,52,-1
 229 385 l 1,53,-1
 215 385 l 2,54,55
 177 383 177 383 177 368 c 0,56,57
 177 367 177 367 221 239 c 2,58,-1
 265 113 l 1,59,60
 266 117 266 117 271.5 132.5 c 128,-1,61
 277 148 277 148 286 173 c 128,-1,62
 295 198 295 198 304 226 c 2,63,-1
 339 328 l 1,64,-1
 333 345 l 2,65,66
 324 371 324 371 321 375 c 0,67,68
 312 384 312 384 278 385 c 2,69,-1
 258 385 l 1,70,-1
 258 431 l 1,71,-1
 264 431 l 2,72,73
 274 428 274 428 348 428 c 0,74,75
 441 428 441 428 454 431 c 2,76,-1
 461 431 l 1,77,-1
 461 385 l 1,78,-1
 452 385 l 2,0,1
EndSplineSet
EndChar

StartChar: x
Encoding: 120 120 90
Width: 528
Flags: W
LayerCount: 2
Fore
SplineSet
201 0 m 2,0,1
 186 3 186 3 102 3 c 0,2,3
 28 3 28 3 17 0 c 2,4,-1
 11 0 l 1,5,-1
 11 46 l 1,6,-1
 25 46 l 1,7,8
 96 51 96 51 129 84 c 0,9,10
 133 88 133 88 180 150 c 2,11,-1
 226 210 l 1,12,-1
 168 288 l 2,13,14
 109 369 109 369 107 371 c 0,15,16
 98 380 98 380 80 383 c 0,17,18
 74 383 74 383 44 385 c 2,19,-1
 16 385 l 1,20,-1
 16 431 l 1,21,-1
 23 431 l 2,22,23
 59 429 59 429 126 429 c 2,24,-1
 170 429 l 2,25,26
 223 429 223 429 229 431 c 2,27,-1
 237 431 l 1,28,-1
 237 385 l 1,29,30
 201 380 201 380 201 369 c 0,31,32
 201 366 201 366 232.5 322 c 128,-1,33
 264 278 264 278 272 270 c 1,34,-1
 297 304 l 2,35,36
 324 339 324 339 325 342 c 0,37,38
 329 349 329 349 329 358 c 0,39,40
 329 374 329 374 317 381 c 0,41,42
 315 382 315 382 311.5 383.5 c 128,-1,43
 308 385 308 385 307 385 c 2,44,-1
 302 385 l 1,45,-1
 302 431 l 1,46,-1
 309 431 l 2,47,48
 322 428 322 428 408 428 c 0,49,50
 484 428 484 428 493 431 c 2,51,-1
 499 431 l 1,52,-1
 499 385 l 1,53,-1
 492 385 l 2,54,55
 443 385 443 385 411 368 c 0,56,57
 396 361 396 361 385 350 c 128,-1,58
 374 339 374 339 350 308 c 0,59,60
 343 298 343 298 328.5 279 c 128,-1,61
 314 260 314 260 312 257 c 2,62,-1
 296 236 l 1,63,-1
 358 151 l 2,64,65
 423 63 423 63 425 61 c 0,66,67
 440 46 440 46 499 46 c 2,68,-1
 516 46 l 1,69,-1
 516 0 l 1,70,-1
 510 0 l 2,71,72
 500 3 500 3 414 3 c 0,73,74
 322 3 322 3 304 0 c 2,75,-1
 295 0 l 1,76,-1
 295 46 l 1,77,-1
 298 46 l 2,78,79
 309 46 309 46 320 51.5 c 128,-1,80
 331 57 331 57 331 63 c 0,81,82
 331 64 331 64 250 175 c 1,83,84
 249 174 249 174 218.5 133 c 128,-1,85
 188 92 188 92 185 88 c 0,86,87
 181 81 181 81 181 73 c 0,88,89
 181 62 181 62 188.5 54 c 128,-1,90
 196 46 196 46 206 46 c 0,91,92
 208 46 208 46 208 23 c 2,93,-1
 208 0 l 1,94,-1
 201 0 l 2,0,1
EndSplineSet
EndChar

StartChar: y
Encoding: 121 121 91
Width: 528
Flags: W
LayerCount: 2
Fore
SplineSet
69 -66 m 128,-1,1
 90 -66 90 -66 104 -80.5 c 128,-1,2
 118 -95 118 -95 118 -116 c 0,3,4
 118 -130 118 -130 110 -143 c 128,-1,5
 102 -156 102 -156 91 -160 c 0,6,7
 87 -162 87 -162 91 -164 c 0,8,9
 98 -168 98 -168 111 -168 c 0,10,11
 126 -168 126 -168 140 -162 c 0,12,13
 170 -150 170 -150 188 -122 c 128,-1,14
 206 -94 206 -94 225 -43 c 2,15,-1
 242 0 l 1,16,-1
 170 183 l 1,17,-1
 95 370 l 2,18,19
 88 385 88 385 43 385 c 2,20,-1
 34 385 l 1,21,-1
 19 385 l 1,22,-1
 19 431 l 1,23,-1
 26 431 l 2,24,25
 37 428 37 428 122 428 c 0,26,27
 216 428 216 428 233 431 c 2,28,-1
 241 431 l 1,29,-1
 241 385 l 1,30,-1
 232 385 l 2,31,32
 185 385 185 385 185 368 c 1,33,-1
 286 112 l 1,34,35
 286 113 286 113 332 227 c 2,36,-1
 376 341 l 1,37,-1
 376 350 l 2,38,39
 376 366 376 366 364 375.5 c 128,-1,40
 352 385 352 385 334 385 c 2,41,-1
 331 385 l 1,42,-1
 331 431 l 1,43,-1
 337 431 l 2,44,45
 346 429 346 429 422 429 c 0,46,47
 477 429 477 429 503 431 c 2,48,-1
 508 431 l 1,49,-1
 508 385 l 1,50,-1
 497 385 l 1,51,52
 441 380 441 380 422 345 c 0,53,54
 420 343 420 343 378 234.5 c 128,-1,55
 336 126 336 126 289 8.5 c 128,-1,56
 242 -109 242 -109 227 -131 c 0,57,58
 188 -191 188 -191 134 -203 c 0,59,60
 129 -204 129 -204 113 -204 c 0,61,62
 72 -204 72 -204 45.5 -179.5 c 128,-1,63
 19 -155 19 -155 19 -116 c 0,64,65
 19 -93 19 -93 33.5 -79.5 c 128,-1,0
 48 -66 48 -66 69 -66 c 128,-1,1
EndSplineSet
EndChar

StartChar: z
Encoding: 122 122 92
Width: 444
Flags: W
LayerCount: 2
Fore
SplineSet
42 263 m 2,0,1
 42 265 42 265 47 342.5 c 128,-1,2
 52 420 52 420 53 423 c 2,3,-1
 53 431 l 1,4,-1
 393 431 l 1,5,6
 399 425 399 425 399 415 c 0,7,8
 399 403 399 403 398 402 c 2,9,-1
 381 378 l 2,10,11
 364 355 364 355 330.5 309 c 128,-1,12
 297 263 297 263 265 220 c 2,13,-1
 134 41 l 1,14,-1
 182 40 l 2,15,16
 244 40 244 40 268 43 c 0,17,18
 311 51 311 51 331 77 c 0,19,20
 352 105 352 105 359 185 c 2,21,-1
 361 201 l 2,22,23
 361 202 361 202 381 202 c 2,24,-1
 401 202 l 1,25,-1
 401 196 l 2,26,27
 401 195 401 195 393 101 c 128,-1,28
 385 7 385 7 384 6 c 2,29,-1
 384 0 l 1,30,-1
 209 0 l 1,31,-1
 34 1 l 1,32,-1
 31 3 l 2,33,34
 28 8 28 8 28 17 c 0,35,36
 28 30 28 30 29 31 c 0,37,38
 31 33 31 33 161.5 211.5 c 128,-1,39
 292 390 292 390 294 394 c 1,40,-1
 236 394 l 2,41,42
 169 393 169 393 152 388 c 0,43,44
 127 382 127 382 113 367 c 0,45,46
 89 344 89 344 82 264 c 1,47,-1
 82 255 l 1,48,-1
 42 255 l 1,49,-1
 42 263 l 2,0,1
EndSplineSet
EndChar

StartChar: braceleft
Encoding: 123 123 93
Width: 500
Flags: W
LayerCount: 2
Fore
SplineSet
434 -231 m 0,0,1
 434 -244 434 -244 428 -250 c 1,2,-1
 410 -250 l 2,3,4
 334 -250 334 -250 279.5 -224.5 c 128,-1,5
 225 -199 225 -199 212 -145 c 0,6,7
 210 -138 210 -138 209 0 c 0,8,9
 209 21 209 21 209 53 c 0,10,11
 208 142 208 142 204 153 c 0,12,13
 203 154 203 154 203 155 c 0,14,15
 191 186 191 186 157 208.5 c 128,-1,16
 123 231 123 231 82 231 c 0,17,18
 71 231 71 231 68 234 c 128,-1,19
 65 237 65 237 65 250 c 128,-1,20
 65 263 65 263 68 266 c 128,-1,21
 71 269 71 269 82 269 c 0,22,23
 123 269 123 269 157 291.5 c 128,-1,24
 191 314 191 314 203 345 c 0,25,26
 207 357 207 357 207.5 370 c 128,-1,27
 208 383 208 383 209 501 c 0,28,29
 210 638 210 638 212 645 c 0,30,31
 220 677 220 677 244 698 c 0,32,33
 270 724 270 724 324 740 c 0,34,35
 361 748 361 748 377 749 c 0,36,37
 379 749 379 749 390.5 749.5 c 128,-1,38
 402 750 402 750 408 750 c 2,39,-1
 428 750 l 1,40,41
 434 744 434 744 434 732 c 0,42,43
 434 719 434 719 431 716 c 0,44,45
 429 713 429 713 415 713 c 0,46,47
 359 710 359 710 322 681 c 0,48,49
 302 666 302 666 296 647 c 0,50,51
 291 634 291 634 291 499 c 0,52,53
 291 369 291 369 290 363 c 0,54,55
 280 285 280 285 170 250 c 1,56,57
 221 232 221 232 253 206 c 128,-1,58
 285 180 285 180 290 137 c 0,59,60
 291 131 291 131 291 1 c 0,61,62
 291 -134 291 -134 296 -147 c 0,63,64
 306 -175 306 -175 340 -193 c 128,-1,65
 374 -211 374 -211 415 -213 c 0,66,67
 429 -213 429 -213 431 -216 c 0,68,69
 434 -219 434 -219 434 -231 c 0,0,1
EndSplineSet
EndChar

StartChar: bar
Encoding: 124 124 94
Width: 278
Flags: W
LayerCount: 2
Fore
SplineSet
139 -249 m 128,-1,1
 126 -249 126 -249 119 -235 c 1,2,-1
 119 251 l 1,3,-1
 120 737 l 1,4,5
 130 750 130 750 139 750 c 0,6,7
 152 750 152 750 159 735 c 1,8,-1
 159 -235 l 1,9,0
 152 -249 152 -249 139 -249 c 128,-1,1
EndSplineSet
EndChar

StartChar: braceright
Encoding: 125 125 95
Width: 500
Flags: W
LayerCount: 2
Fore
SplineSet
65 731 m 0,0,1
 65 744 65 744 67 747 c 128,-1,2
 69 750 69 750 79 750 c 2,3,-1
 88 750 l 2,4,5
 168 750 168 750 221 723 c 128,-1,6
 274 696 274 696 288 645 c 0,7,8
 291 636 291 636 291.5 500.5 c 128,-1,9
 292 365 292 365 293 357 c 0,10,11
 303 321 303 321 338 295 c 128,-1,12
 373 269 373 269 417 269 c 0,13,14
 428 269 428 269 431 266 c 128,-1,15
 434 263 434 263 434 250 c 128,-1,16
 434 237 434 237 431 234 c 128,-1,17
 428 231 428 231 417 231 c 0,18,19
 378 231 378 231 343.5 209 c 128,-1,20
 309 187 309 187 298 157 c 0,21,22
 293 144 293 144 292.5 130.5 c 128,-1,23
 292 117 292 117 291 0 c 0,24,25
 290 -138 290 -138 288 -145 c 0,26,27
 280 -177 280 -177 256 -198 c 0,28,29
 202 -250 202 -250 89 -250 c 2,30,-1
 78 -250 l 2,31,32
 70 -250 70 -250 67.5 -246.5 c 128,-1,33
 65 -243 65 -243 65 -230 c 0,34,35
 65 -219 65 -219 67 -216 c 128,-1,36
 69 -213 69 -213 77 -213 c 0,37,38
 126 -213 126 -213 161.5 -192 c 128,-1,39
 197 -171 197 -171 207 -139 c 0,40,41
 208 -134 208 -134 209 3 c 2,42,-1
 210 139 l 1,43,44
 230 223 230 223 330 250 c 1,45,46
 297 261 297 261 280 270 c 0,47,48
 225 303 225 303 212 352 c 2,49,-1
 210 362 l 1,50,-1
 209 498 l 2,51,52
 208 635 208 635 207 640 c 0,53,54
 197 672 197 672 161.5 692.5 c 128,-1,55
 126 713 126 713 77 713 c 0,56,57
 69 713 69 713 67 716 c 128,-1,58
 65 719 65 719 65 731 c 0,0,1
EndSplineSet
EndChar

StartChar: asciitilde
Encoding: 126 126 96
Width: 500
Flags: W
LayerCount: 2
Fore
SplineSet
142 304 m 0,0,1
 164 318 164 318 187 318 c 0,2,3
 208 318 208 318 253 300 c 0,4,5
 296 282 296 282 320 282 c 0,6,7
 355 282 355 282 381 311 c 2,8,-1
 388 318 l 1,9,-1
 402 306 l 1,10,-1
 416 295 l 2,11,12
 416 294 416 294 396 270 c 0,13,14
 363 231 363 231 344 222 c 0,15,16
 330 215 330 215 313 215 c 0,17,18
 290 215 290 215 247 233 c 0,19,20
 203 251 203 251 179 251 c 0,21,22
 144 251 144 251 118 222 c 2,23,-1
 111 215 l 1,24,-1
 97 227 l 1,25,-1
 83 238 l 2,26,27
 83 239 83 239 103 263 c 0,28,29
 133 297 133 297 142 304 c 0,0,1
EndSplineSet
EndChar

StartChar: sterling
Encoding: 163 163 98
Width: 769
Flags: W
LayerCount: 2
Fore
SplineSet
253 332 m 0,0,1
 253 350 253 350 265 370 c 1,2,-1
 300 370 l 1,3,-1
 334 371 l 1,4,-1
 355 453 l 2,5,6
 374 532 374 532 379 546 c 0,7,8
 398 595 398 595 425 627 c 0,9,10
 466 681 466 681 528 703 c 0,11,12
 561 714 561 714 583 714 c 0,13,14
 639 714 639 714 669 676 c 128,-1,15
 699 638 699 638 699 578 c 0,16,17
 699 473 699 473 635 473 c 0,18,19
 597 473 597 473 595 508 c 0,20,21
 595 532 595 532 610.5 549 c 128,-1,22
 626 566 626 566 648 568 c 2,23,-1
 654 569 l 1,24,-1
 654 576 l 2,25,26
 654 677 654 677 581 677 c 0,27,28
 539 677 539 677 508 643 c 128,-1,29
 477 609 477 609 463 561 c 0,30,31
 460 554 460 554 437 463.5 c 128,-1,32
 414 373 414 373 414 371 c 0,33,34
 414 370 414 370 458 370 c 2,35,-1
 502 370 l 1,36,37
 508 364 508 364 508 362 c 0,38,39
 508 359 508 359 503.5 343.5 c 128,-1,40
 499 328 499 328 498 327 c 2,41,-1
 495 324 l 1,42,-1
 402 324 l 1,43,-1
 382 241 l 2,44,45
 377 224 377 224 372 204 c 128,-1,46
 367 184 367 184 365 176.5 c 128,-1,47
 363 169 363 169 360 158.5 c 128,-1,48
 357 148 357 148 353.5 140 c 128,-1,49
 350 132 350 132 344 120 c 0,50,51
 340 112 340 112 337.5 106.5 c 128,-1,52
 335 101 335 101 336 101 c 0,53,54
 344 96 344 96 354 90 c 0,55,56
 398 63 398 63 429 51 c 1,57,58
 459 44 459 44 476 44 c 0,59,60
 491 44 491 44 495 45 c 0,61,62
 520 52 520 52 542 76 c 128,-1,63
 564 100 564 100 574 133 c 0,64,65
 578 144 578 144 580.5 146 c 128,-1,66
 583 148 583 148 598 148 c 0,67,68
 622 148 622 148 622 140 c 0,69,70
 622 138 622 138 620 130 c 0,71,72
 602 73 602 73 555 31 c 128,-1,73
 508 -11 508 -11 447 -11 c 0,74,75
 422 -11 422 -11 397.5 -3 c 128,-1,76
 373 5 373 5 359.5 12.5 c 128,-1,77
 346 20 346 20 317 38 c 2,78,-1
 294 51 l 1,79,80
 248 5 248 5 183 -8 c 0,81,82
 174 -10 174 -10 155 -10 c 0,83,84
 108 -10 108 -10 93 19 c 0,85,86
 88 31 88 31 88 39 c 0,87,88
 88 42 88 42 90 52 c 0,89,90
 99 88 99 88 136.5 113.5 c 128,-1,91
 174 139 174 139 224 139 c 0,92,93
 242 139 242 139 264 134 c 0,94,95
 266 133 266 133 268 132.5 c 128,-1,96
 270 132 270 132 272 132 c 2,97,-1
 273 132 l 2,98,99
 275 133 275 133 302 239 c 2,100,-1
 323 324 l 1,101,-1
 259 324 l 1,102,103
 253 330 253 330 253 332 c 0,0,1
245 76 m 1,104,105
 211 85 211 85 195 85 c 0,106,107
 174 85 174 85 158 71.5 c 128,-1,108
 142 58 142 58 142 42 c 128,-1,109
 142 26 142 26 163 26 c 0,110,111
 210 29 210 29 245 76 c 1,104,105
EndSplineSet
EndChar

StartChar: section
Encoding: 167 167 99
Width: 444
Flags: W
LayerCount: 2
Fore
SplineSet
69 547 m 0,0,1
 69 606 69 606 108 651 c 128,-1,2
 147 696 147 696 203 704 c 1,3,-1
 226 704 l 2,4,5
 260 704 260 704 289 688 c 0,6,7
 320 674 320 674 340 645 c 128,-1,8
 360 616 360 616 360 579 c 0,9,10
 360 560 360 560 349 548 c 128,-1,11
 338 536 338 536 319 536 c 0,12,13
 302 536 302 536 290 548 c 128,-1,14
 278 560 278 560 278 578 c 0,15,16
 278 608 278 608 306 616 c 1,17,-1
 310 618 l 1,18,19
 275 668 275 668 221 668 c 0,20,21
 210 668 210 668 201 665 c 0,22,23
 175 655 175 655 158 622.5 c 128,-1,24
 141 590 141 590 141 548 c 0,25,26
 141 502 141 502 165 466 c 128,-1,27
 189 430 189 430 229 411 c 0,28,29
 280 388 280 388 309.5 364.5 c 128,-1,30
 339 341 339 341 360 304 c 1,31,32
 374 271 374 271 374 241 c 0,33,34
 374 194 374 194 350.5 158 c 128,-1,35
 327 122 327 122 288 102 c 2,36,-1
 276 96 l 1,37,38
 347 51 347 51 369 -9 c 0,39,40
 374 -29 374 -29 374 -47 c 0,41,42
 374 -111 374 -111 330.5 -157.5 c 128,-1,43
 287 -204 287 -204 222 -204 c 0,44,45
 185 -204 185 -204 154 -188 c 0,46,47
 123 -174 123 -174 103 -145 c 128,-1,48
 83 -116 83 -116 83 -79 c 0,49,50
 83 -60 83 -60 94 -48 c 128,-1,51
 105 -36 105 -36 124 -36 c 0,52,53
 141 -36 141 -36 153 -48 c 128,-1,54
 165 -60 165 -60 165 -78 c 0,55,56
 165 -108 165 -108 137 -116 c 1,57,-1
 133 -118 l 1,58,59
 168 -168 168 -168 222 -168 c 0,60,61
 233 -168 233 -168 242 -165 c 0,62,63
 268 -155 268 -155 285 -122.5 c 128,-1,64
 302 -90 302 -90 302 -48 c 0,65,66
 302 -2 302 -2 278 34 c 128,-1,67
 254 70 254 70 214 89 c 0,68,69
 147 120 147 120 116 153 c 0,70,71
 97 171 97 171 83 197 c 0,72,73
 69 230 69 230 69 259 c 0,74,75
 69 306 69 306 92.5 342 c 128,-1,76
 116 378 116 378 155 398 c 2,77,-1
 167 404 l 1,78,79
 94 450 94 450 74 510 c 0,80,81
 69 530 69 530 69 547 c 0,0,1
225 124 m 0,82,83
 258 124 258 124 280 158.5 c 128,-1,84
 302 193 302 193 302 242 c 0,85,86
 302 330 302 330 228 373 c 1,87,-1
 218 377 l 1,88,89
 185 375 185 375 163 341.5 c 128,-1,90
 141 308 141 308 141 258 c 0,91,92
 141 177 141 177 204 134 c 0,93,94
 219 124 219 124 225 124 c 0,82,83
EndSplineSet
EndChar

StartChar: dieresis
Encoding: 168 168 100
Width: 500
Flags: W
LayerCount: 2
Fore
SplineSet
95 612 m 0,0,1
 95 634 95 634 111.5 651.5 c 128,-1,2
 128 669 128 669 153 669 c 0,3,4
 177 669 177 669 193.5 651.5 c 128,-1,5
 210 634 210 634 210 612 c 0,6,7
 210 589 210 589 193.5 571.5 c 128,-1,8
 177 554 177 554 152 554 c 1,9,-1
 127 560 l 1,10,11
 95 577 95 577 95 612 c 0,0,1
289 611 m 0,12,13
 289 631 289 631 302.5 647.5 c 128,-1,14
 316 664 316 664 335 668 c 0,15,16
 336 668 336 668 340 668.5 c 128,-1,17
 344 669 344 669 346 669 c 0,18,19
 369 669 369 669 386.5 652 c 128,-1,20
 404 635 404 635 404 612 c 0,21,22
 404 588 404 588 386.5 571 c 128,-1,23
 369 554 369 554 346 554 c 0,24,25
 324 554 324 554 306.5 570 c 128,-1,26
 289 586 289 586 289 611 c 0,12,13
EndSplineSet
EndChar

StartChar: logicalnot
Encoding: 172 172 101
Width: 667
Flags: W
LayerCount: 2
Fore
SplineSet
56 336 m 128,-1,1
 56 349 56 349 70 356 c 1,2,-1
 596 356 l 2,3,4
 603 353 603 353 611 343 c 1,5,-1
 611 102 l 1,6,7
 598 89 598 89 591 89 c 0,8,9
 581 89 581 89 572 102 c 1,10,-1
 571 209 l 1,11,-1
 571 316 l 1,12,-1
 70 316 l 1,13,0
 56 323 56 323 56 336 c 128,-1,1
EndSplineSet
EndChar

StartChar: degree
Encoding: 176 176 102
Width: 500
Flags: W
LayerCount: 2
Fore
SplineSet
148 647 m 0,0,1
 156 676 156 676 182 695.5 c 128,-1,2
 208 715 208 715 244 715 c 0,3,4
 320 715 320 715 346 660 c 0,5,6
 352 647 352 647 352 629 c 0,7,8
 352 610 352 610 346 597 c 0,9,10
 320 542 320 542 249 542 c 0,11,12
 210 542 210 542 183 561 c 128,-1,13
 156 580 156 580 148 610 c 0,14,15
 147 614 147 614 147 628 c 0,16,17
 147 643 147 643 148 647 c 0,0,1
250 579 m 0,18,19
 287 579 287 579 300 588.5 c 128,-1,20
 313 598 313 598 313 628 c 0,21,22
 313 669 313 669 282 677 c 0,23,24
 277 678 277 678 253 678 c 0,25,26
 248 678 248 678 241.5 678.5 c 128,-1,27
 235 679 235 679 234 679 c 0,28,29
 209 679 209 679 198 667.5 c 128,-1,30
 187 656 187 656 187 629 c 0,31,32
 187 600 187 600 198 590 c 0,33,34
 210 579 210 579 250 579 c 0,18,19
EndSplineSet
EndChar

StartChar: plusminus
Encoding: 177 177 103
Width: 778
Flags: W
LayerCount: 2
Fore
SplineSet
56 333 m 128,-1,1
 56 346 56 346 70 353 c 1,2,-1
 369 353 l 1,3,-1
 369 502 l 2,4,5
 369 651 369 651 371 655 c 0,6,7
 378 666 378 666 388 666 c 0,8,9
 395 666 395 666 403 660 c 0,10,11
 408 655 408 655 408.5 636.5 c 128,-1,12
 409 618 409 618 409 500 c 2,13,-1
 409 353 l 1,14,-1
 707 353 l 1,15,16
 722 346 722 346 722 333 c 128,-1,17
 722 320 722 320 707 313 c 1,18,-1
 409 313 l 1,19,-1
 409 40 l 1,20,-1
 707 40 l 1,21,22
 722 32 722 32 722 20 c 128,-1,23
 722 8 722 8 707 0 c 1,24,-1
 70 0 l 1,25,26
 56 7 56 7 56 20 c 128,-1,27
 56 33 56 33 70 40 c 1,28,-1
 369 40 l 1,29,-1
 369 313 l 1,30,-1
 70 313 l 1,31,0
 56 320 56 320 56 333 c 128,-1,1
EndSplineSet
EndChar

StartChar: paragraph
Encoding: 182 182 104
Width: 611
Flags: W
LayerCount: 2
Fore
SplineSet
55 463 m 0,0,1
 55 555 55 555 122 620 c 128,-1,2
 189 685 189 685 280 693 c 0,3,4
 281 693 281 693 289.5 693 c 128,-1,5
 298 693 298 693 312 693.5 c 128,-1,6
 326 694 326 694 343.5 694 c 128,-1,7
 361 694 361 694 383.5 694 c 128,-1,8
 406 694 406 694 428 694 c 2,9,-1
 567 694 l 1,10,11
 582 686 582 686 582 674 c 0,12,13
 582 663 582 663 571 656 c 0,14,15
 567 654 567 654 533 654 c 2,16,-1
 499 654 l 1,17,-1
 499 -179 l 1,18,19
 492 -193 492 -193 479 -193 c 128,-1,20
 466 -193 466 -193 459 -179 c 1,21,-1
 459 654 l 1,22,-1
 389 654 l 1,23,-1
 389 -179 l 1,24,25
 382 -193 382 -193 369 -193 c 128,-1,26
 356 -193 356 -193 349 -179 c 1,27,-1
 349 26 l 2,28,29
 349 230 349 230 347 230 c 1,30,31
 347 231 347 231 340 231 c 0,32,33
 312 231 312 231 264 243 c 0,34,35
 184 262 184 262 129 307 c 128,-1,36
 74 352 74 352 59 422 c 0,37,38
 55 439 55 439 55 463 c 0,0,1
EndSplineSet
EndChar

StartChar: cedilla
Encoding: 184 184 105
Width: 444
Flags: W
LayerCount: 2
Fore
SplineSet
207 -71 m 1,0,-1
 207 -22 l 1,1,-1
 291 -22 l 1,2,-1
 291 -43 l 1,3,-1
 295 -43 l 1,4,5
 315 -49 315 -49 328 -56 c 0,6,7
 374 -78 374 -78 374 -122 c 0,8,9
 374 -150 374 -150 357 -168 c 0,10,11
 321 -206 321 -206 185 -210 c 1,12,-1
 137 -210 l 1,13,-1
 124 -211 l 1,14,-1
 124 -174 l 1,15,-1
 129 -174 l 2,16,17
 132 -173 132 -173 167 -173 c 0,18,19
 254 -172 254 -172 279 -148 c 0,20,21
 289 -139 289 -139 289 -122 c 0,22,23
 289 -86 289 -86 244 -76 c 0,24,25
 227 -71 227 -71 212 -71 c 2,26,-1
 207 -71 l 1,0,-1
EndSplineSet
EndChar

StartChar: AE
Encoding: 198 198 106
Width: 903
Flags: W
LayerCount: 2
Fore
SplineSet
256 0 m 2,0,1
 238 3 238 3 140 3 c 0,2,3
 51 3 51 3 39 0 c 2,4,-1
 32 0 l 1,5,-1
 32 46 l 1,6,-1
 40 46 l 2,7,8
 113 46 113 46 138 84 c 0,9,10
 148 104 148 104 331 637 c 1,11,-1
 258 637 l 1,12,-1
 258 683 l 1,13,-1
 819 683 l 1,14,-1
 819 679 l 2,15,16
 819 678 819 678 833 563 c 128,-1,17
 847 448 847 448 847 447 c 2,18,-1
 847 443 l 1,19,-1
 807 443 l 1,20,21
 802 487 802 487 796.5 514 c 128,-1,22
 791 541 791 541 781.5 565 c 128,-1,23
 772 589 772 589 759 601 c 128,-1,24
 746 613 746 613 724.5 622 c 128,-1,25
 703 631 703 631 676 634 c 128,-1,26
 649 637 649 637 608 637 c 0,27,28
 535 637 535 637 527 635 c 0,29,30
 518 634 518 634 515 624 c 0,31,32
 514 622 514 622 514 486 c 2,33,-1
 514 351 l 1,34,-1
 554 351 l 2,35,36
 628 351 628 351 652 367 c 128,-1,37
 676 383 676 383 679 447 c 2,38,-1
 679 468 l 1,39,-1
 719 468 l 1,40,-1
 719 188 l 1,41,-1
 679 188 l 1,42,-1
 679 209 l 2,43,44
 676 273 676 273 652 289 c 128,-1,45
 628 305 628 305 554 305 c 2,46,-1
 514 305 l 1,47,-1
 514 184 l 2,48,49
 514 61 514 61 515 59 c 0,50,51
 518 49 518 49 527 48 c 0,52,53
 535 46 535 46 610 46 c 0,54,55
 673 46 673 46 709.5 53.5 c 128,-1,56
 746 61 746 61 770.5 85 c 128,-1,57
 795 109 795 109 807 143.5 c 128,-1,58
 819 178 819 178 829 242 c 0,59,60
 833 268 833 268 834 270 c 2,61,-1
 834 273 l 1,62,-1
 874 273 l 1,63,-1
 874 270 l 2,64,65
 872 267 872 267 852.5 136.5 c 128,-1,66
 833 6 833 6 832 3 c 2,67,-1
 832 0 l 1,68,-1
 339 0 l 1,69,-1
 339 46 l 1,70,-1
 355 46 l 2,71,72
 382 46 382 46 403 49 c 0,73,74
 411 52 411 52 415 60 c 0,75,76
 416 62 416 62 416 184 c 2,77,-1
 416 305 l 1,78,-1
 265 305 l 1,79,-1
 228 199 l 2,80,81
 219 174 219 174 209.5 146.5 c 128,-1,82
 200 119 200 119 195 104 c 2,83,-1
 190 90 l 2,84,85
 187 72 187 72 210.5 59 c 128,-1,86
 234 46 234 46 259 46 c 2,87,-1
 264 46 l 1,88,-1
 264 0 l 1,89,-1
 256 0 l 2,0,1
416 620 m 1,90,91
 407 634 407 634 384 634 c 1,92,-1
 379 635 l 1,93,94
 378 630 378 630 353.5 560 c 128,-1,95
 329 490 329 490 305 422 c 128,-1,96
 281 354 281 354 281 353 c 0,97,98
 281 351 281 351 348 351 c 2,99,-1
 416 351 l 1,100,-1
 416 620 l 1,90,91
EndSplineSet
EndChar

StartChar: multiply
Encoding: 215 215 107
Width: 778
Flags: W
LayerCount: 2
Fore
SplineSet
630 29 m 0,0,1
 630 21 630 21 624 15 c 128,-1,2
 618 9 618 9 609 9 c 0,3,4
 604 9 604 9 587 25 c 128,-1,5
 570 41 570 41 493 118 c 2,6,-1
 389 222 l 1,7,-1
 284 117 l 2,8,9
 178 13 178 13 175 11 c 0,10,11
 169 9 169 9 167 9 c 0,12,13
 159 9 159 9 153 15 c 128,-1,14
 147 21 147 21 147 29 c 0,15,16
 147 31 147 31 149 37 c 0,17,18
 152 43 152 43 255 146 c 2,19,-1
 359 250 l 1,20,-1
 255 354 l 2,21,22
 152 457 152 457 149 463 c 0,23,24
 147 469 147 469 147 471 c 0,25,26
 147 479 147 479 153 485 c 128,-1,27
 159 491 159 491 167 491 c 0,28,29
 169 491 169 491 175 489 c 0,30,31
 178 487 178 487 284 383 c 2,32,-1
 389 278 l 1,33,-1
 493 382 l 2,34,35
 570 459 570 459 587 475 c 128,-1,36
 604 491 604 491 609 491 c 0,37,38
 618 491 618 491 624 485 c 128,-1,39
 630 479 630 479 630 471 c 0,40,41
 630 467 630 467 628 463 c 128,-1,42
 626 459 626 459 522 355 c 2,43,-1
 418 250 l 1,44,-1
 522 145 l 2,45,46
 626 41 626 41 628 37 c 128,-1,47
 630 33 630 33 630 29 c 0,0,1
EndSplineSet
EndChar

StartChar: Oslash
Encoding: 216 216 108
Width: 778
Flags: W
LayerCount: 2
Fore
SplineSet
560 653 m 1,0,-1
 616 742 l 1,1,-1
 624 737 l 2,2,3
 632 732 632 732 640.5 727 c 128,-1,4
 649 722 649 722 650 722 c 1,5,-1
 646 716 l 2,6,7
 643 710 643 710 635 697.5 c 128,-1,8
 627 685 627 685 621 675 c 2,9,-1
 592 629 l 2,10,11
 593 628 593 628 615 608 c 0,12,13
 694 526 694 526 715 411 c 0,14,15
 721 380 721 380 721 340 c 0,16,17
 721 298 721 298 716 273 c 0,18,19
 697 160 697 160 620.5 79.5 c 128,-1,20
 544 -1 544 -1 438 -18 c 0,21,22
 417 -22 417 -22 389 -22 c 0,23,24
 301 -22 301 -22 224 25 c 2,25,-1
 217 29 l 1,26,27
 161 -59 161 -59 160 -59 c 2,28,-1
 128 -38 l 2,29,30
 128 -37 128 -37 156 8 c 2,31,-1
 184 53 l 1,32,-1
 175 62 l 1,33,34
 74 154 74 154 57 299 c 0,35,36
 56 308 56 308 56 341 c 128,-1,37
 56 374 56 374 57 383 c 0,38,39
 71 495 71 495 138 581 c 0,40,41
 169 617 169 617 191 633 c 0,42,43
 281 705 281 705 389 705 c 0,44,45
 453 705 453 705 513 678 c 0,46,47
 521 674 521 674 560 653 c 1,0,-1
505 632 m 0,48,49
 454 668 454 668 387 668 c 0,50,51
 289 668 289 668 225 591 c 0,52,53
 159 510 159 510 159 341 c 0,54,55
 159 256 159 256 172 202 c 128,-1,56
 185 148 185 148 216 103 c 1,57,-1
 374 356 l 1,58,-1
 533 610 l 2,59,60
 533 613 533 613 505 632 c 0,48,49
618 336 m 128,-1,62
 618 492 618 492 568 568 c 2,63,-1
 561 579 l 2,64,65
 560 579 560 579 402 326.5 c 128,-1,66
 244 74 244 74 244 73 c 0,67,68
 244 70 244 70 260 58.5 c 128,-1,69
 276 47 276 47 289 40 c 0,70,71
 335 15 335 15 388 15 c 0,72,73
 439 15 439 15 485.5 39.5 c 128,-1,74
 532 64 532 64 560 101 c 0,75,61
 618 180 618 180 618 336 c 128,-1,62
EndSplineSet
EndChar

StartChar: germandbls
Encoding: 223 223 109
Width: 500
Flags: W
LayerCount: 2
Fore
SplineSet
131 3 m 0,0,1
 40 3 40 3 28 0 c 2,2,-1
 20 0 l 1,3,-1
 20 46 l 1,4,-1
 36 46 l 2,5,6
 64 46 64 46 85 49 c 0,7,8
 93 52 93 52 97 60 c 0,9,10
 98 62 98 62 98 224 c 2,11,-1
 98 385 l 1,12,-1
 20 385 l 1,13,-1
 20 431 l 1,14,-1
 98 431 l 1,15,-1
 98 504 l 2,16,17
 99 582 99 582 103 593 c 0,18,19
 103 594 103 594 105 599 c 0,20,21
 118 646 118 646 164 675.5 c 128,-1,22
 210 705 210 705 268 705 c 0,23,24
 325 705 325 705 368.5 679.5 c 128,-1,25
 412 654 412 654 432 613 c 0,26,27
 443 587 443 587 443 558 c 0,28,29
 443 506 443 506 410.5 467.5 c 128,-1,30
 378 429 378 429 332 411 c 1,31,-1
 341 406 l 2,32,33
 398 374 398 374 434.5 313.5 c 128,-1,34
 471 253 471 253 471 174 c 0,35,36
 471 98 471 98 422 45.5 c 128,-1,37
 373 -7 373 -7 302 -11 c 0,38,39
 236 -11 236 -11 214 42 c 0,40,41
 208 57 208 57 208 71 c 0,42,43
 208 91 208 91 220.5 104 c 128,-1,44
 233 117 233 117 252 117 c 0,45,46
 270 117 270 117 282.5 105 c 128,-1,47
 295 93 295 93 295 74 c 0,48,49
 295 47 295 47 274 36 c 0,50,51
 270 34 270 34 271 32 c 0,52,53
 280 26 280 26 298 26 c 0,54,55
 305 26 305 26 308 27 c 0,56,57
 331 32 331 32 349.5 54 c 128,-1,58
 368 76 368 76 375 107 c 0,59,60
 381 133 381 133 381 174 c 0,61,62
 381 300 381 300 322 358 c 0,63,64
 289 391 289 391 249 394 c 0,65,66
 240 394 240 394 237 397 c 128,-1,67
 234 400 234 400 234 411 c 0,68,69
 234 424 234 424 236.5 427 c 128,-1,70
 239 430 239 430 251 431 c 0,71,72
 299 434 299 434 326.5 468 c 128,-1,73
 354 502 354 502 354 558 c 0,74,75
 354 641 354 641 299 663 c 0,76,77
 284 668 284 668 270 668 c 0,78,79
 233 668 233 668 210.5 646.5 c 128,-1,80
 188 625 188 625 181 590 c 0,81,82
 180 583 180 583 179 291 c 2,83,-1
 179 0 l 1,84,-1
 176 0 l 1,85,-1
 173 0 l 2,86,87
 170 1 170 1 164.5 1.5 c 128,-1,88
 159 2 159 2 156 2 c 128,-1,89
 153 2 153 2 144.5 2.5 c 128,-1,90
 136 3 136 3 131 3 c 0,0,1
EndSplineSet
EndChar

StartChar: ae
Encoding: 230 230 110
Width: 722
Flags: W
LayerCount: 2
Fore
SplineSet
116 305 m 128,-1,1
 93 305 93 305 78 321 c 128,-1,2
 63 337 63 337 63 359 c 0,3,4
 63 373 63 373 71 391 c 0,5,6
 83 416 83 416 119.5 431.5 c 128,-1,7
 156 447 156 447 208 447 c 0,8,9
 239 447 239 447 259 445 c 0,10,11
 334 432 334 432 377 379 c 1,12,13
 401 408 401 408 439.5 428 c 128,-1,14
 478 448 478 448 522 448 c 0,15,16
 601 448 601 448 646.5 394 c 128,-1,17
 692 340 692 340 692 255 c 1,18,-1
 693 237 l 2,19,20
 690 235 690 235 686 231 c 1,21,-1
 403 231 l 1,22,-1
 403 219 l 2,23,24
 403 82 403 82 496 41 c 0,25,26
 527 29 527 29 555 29 c 0,27,28
 587 29 587 29 613 52 c 128,-1,29
 639 75 639 75 651 114 c 0,30,31
 653 124 653 124 657 128 c 0,32,33
 660 131 660 131 673 131 c 128,-1,34
 686 131 686 131 689 128 c 0,35,36
 695 123 695 123 689 106 c 0,37,38
 677 67 677 67 648.5 38 c 128,-1,39
 620 9 620 9 584 -3 c 0,40,41
 558 -11 558 -11 534 -11 c 0,42,43
 443 -11 443 -11 379 60 c 2,44,-1
 372 68 l 1,45,46
 346 32 346 32 298 10.5 c 128,-1,47
 250 -11 250 -11 191 -11 c 0,48,49
 106 -11 106 -11 61 39 c 0,50,51
 37 67 37 67 37 104 c 0,52,53
 37 162 37 162 96 203 c 0,54,55
 157 245 157 245 264 254 c 0,56,57
 288 258 288 258 318 258 c 0,58,59
 319 258 319 258 319 279 c 0,60,61
 319 314 319 314 318 322 c 0,62,63
 313 354 313 354 293 377.5 c 128,-1,64
 273 401 273 401 244 408 c 0,65,66
 237 410 237 410 214 410 c 0,67,68
 187 410 187 410 181 409 c 0,69,70
 176 409 176 409 168 407.5 c 128,-1,71
 160 406 160 406 154 405 c 2,72,-1
 148 404 l 1,73,-1
 149 403 l 2,74,75
 150 402 150 402 151.5 400.5 c 128,-1,76
 153 399 153 399 154 397 c 0,77,78
 170 382 170 382 170 359 c 0,79,80
 170 337 170 337 154.5 321 c 128,-1,0
 139 305 139 305 116 305 c 128,-1,1
570 391 m 0,81,82
 548 411 548 411 518 411 c 0,83,84
 480 411 480 411 446 377 c 0,85,86
 414 342 414 342 407 282 c 0,87,88
 405 270 405 270 405 269 c 0,89,90
 405 267 405 267 508 267 c 2,91,-1
 611 267 l 1,92,-1
 611 273 l 2,93,94
 611 306 611 306 599 340 c 128,-1,95
 587 374 587 374 570 391 c 0,81,82
331 133 m 0,96,97
 331 141 331 141 326.5 159.5 c 128,-1,98
 322 178 322 178 321 184 c 0,99,100
 321 194 321 194 319 208 c 2,101,-1
 319 222 l 1,102,-1
 308 221 l 2,103,104
 245 217 245 217 196 193.5 c 128,-1,105
 147 170 147 170 133 130 c 0,106,107
 129 119 129 119 129 105 c 0,108,109
 129 74 129 74 151 50 c 128,-1,110
 173 26 173 26 207 26 c 0,111,112
 259 26 259 26 295 56.5 c 128,-1,113
 331 87 331 87 331 133 c 0,96,97
EndSplineSet
EndChar

StartChar: divide
Encoding: 247 247 111
Width: 778
Flags: W
LayerCount: 2
Fore
SplineSet
318 466 m 0,0,1
 318 497 318 497 337 517 c 128,-1,2
 356 537 356 537 386 537 c 0,3,4
 438 537 438 537 455 488 c 0,5,6
 458 480 458 480 458 466 c 0,7,8
 458 434 458 434 439 415 c 128,-1,9
 420 396 420 396 388 396 c 0,10,11
 339 396 339 396 321 444 c 0,12,13
 318 452 318 452 318 466 c 0,0,1
56 250 m 128,-1,15
 56 263 56 263 70 270 c 1,16,-1
 706 270 l 1,17,18
 721 262 721 262 721 250 c 128,-1,19
 721 238 721 238 706 230 c 1,20,-1
 70 230 l 1,21,14
 56 237 56 237 56 250 c 128,-1,15
318 34 m 0,22,23
 318 65 318 65 337 85 c 128,-1,24
 356 105 356 105 386 105 c 0,25,26
 438 105 438 105 455 56 c 0,27,28
 458 48 458 48 458 34 c 0,29,30
 458 2 458 2 439 -17 c 128,-1,31
 420 -36 420 -36 388 -36 c 0,32,33
 339 -36 339 -36 321 12 c 0,34,35
 318 20 318 20 318 34 c 0,22,23
EndSplineSet
EndChar

StartChar: oslash
Encoding: 248 248 112
Width: 500
Flags: W
LayerCount: 2
Fore
SplineSet
348 425 m 1,0,-1
 412 535 l 2,1,2
 412 537 412 537 414 537 c 1,3,4
 414 535 414 535 430 528 c 2,5,-1
 445 519 l 1,6,7
 443 515 443 515 438.5 507 c 128,-1,8
 434 499 434 499 425.5 485 c 128,-1,9
 417 471 417 471 410 457 c 2,10,-1
 379 404 l 1,11,12
 382 401 382 401 393.5 390.5 c 128,-1,13
 405 380 405 380 409 376 c 0,14,15
 471 306 471 306 471 214 c 0,16,17
 471 119 471 119 407 54.5 c 128,-1,18
 343 -10 343 -10 250 -10 c 0,19,20
 195 -10 195 -10 154 11 c 0,21,22
 154 13 154 13 137 -17 c 128,-1,23
 120 -47 120 -47 103 -77 c 128,-1,24
 86 -107 86 -107 86 -105 c 2,25,-1
 82 -104 l 2,26,27
 79 -102 79 -102 74.5 -99.5 c 128,-1,28
 70 -97 70 -97 65.5 -94 c 128,-1,29
 61 -91 61 -91 58 -89 c 2,30,-1
 55 -87 l 1,31,-1
 88 -28 l 2,32,33
 121 29 121 29 121 30 c 0,34,35
 116 34 116 34 111 39 c 0,36,37
 72 70 72 70 50 116.5 c 128,-1,38
 28 163 28 163 28 214 c 0,39,40
 28 287 28 287 67 345 c 0,41,42
 99 394 99 394 147 421 c 128,-1,43
 195 448 195 448 249 448 c 0,44,45
 295 448 295 448 336 429 c 0,46,47
 339 428 339 428 342 426.5 c 128,-1,48
 345 425 345 425 346 425 c 2,49,-1
 348 425 l 1,0,-1
326 387 m 2,50,51
 326 390 326 390 306.5 398 c 128,-1,52
 287 406 287 406 276 409 c 0,53,54
 270 410 270 410 245 410 c 0,55,56
 167 410 167 410 132 339 c 0,57,58
 112 299 112 299 112 214 c 0,59,60
 112 114 112 114 146 72 c 1,61,-1
 236 229 l 1,62,-1
 326 387 l 2,50,51
362 348 m 0,63,64
 358 356 358 356 354 360 c 1,65,66
 177 50 177 50 175 48 c 0,67,68
 175 47 175 47 179.5 44 c 128,-1,69
 184 41 184 41 190.5 38 c 128,-1,70
 197 35 197 35 202 34 c 0,71,72
 222 27 222 27 250 27 c 0,73,74
 355 27 355 27 380 127 c 0,75,76
 387 159 387 159 387 214 c 0,77,78
 387 305 387 305 362 348 c 0,63,64
EndSplineSet
EndChar

StartChar: dotlessi
Encoding: 305 305 113
Width: 278
Flags: W
LayerCount: 2
Fore
SplineSet
247 0 m 2,0,1
 236 3 236 3 143 3 c 0,2,3
 52 3 52 3 34 0 c 2,4,-1
 26 0 l 1,5,-1
 26 46 l 1,6,-1
 42 46 l 2,7,8
 70 46 70 46 91 49 c 0,9,10
 99 52 99 52 103 60 c 0,11,12
 104 62 104 62 104 205 c 0,13,14
 104 355 104 355 100 365 c 0,15,16
 92 385 92 385 41 385 c 2,17,-1
 30 385 l 1,18,-1
 30 408 l 2,19,20
 30 431 30 431 32 431 c 2,21,-1
 42 432 l 2,22,23
 52 433 52 433 70 434 c 128,-1,24
 88 435 88 435 106 436 c 0,25,26
 123 437 123 437 142 438.5 c 128,-1,27
 161 440 161 440 171 441 c 128,-1,28
 181 442 181 442 182 442 c 2,29,-1
 185 442 l 1,30,-1
 185 62 l 1,31,32
 190 52 190 52 197 49.5 c 128,-1,33
 204 47 204 47 232 46 c 2,34,-1
 255 46 l 1,35,-1
 255 0 l 1,36,-1
 247 0 l 2,0,1
EndSplineSet
EndChar

StartChar: OE
Encoding: 338 338 114
Width: 1014
Flags: W
LayerCount: 2
Fore
SplineSet
985 270 m 2,0,1
 984 267 984 267 964 136.5 c 128,-1,2
 944 6 944 6 943 3 c 2,3,-1
 943 0 l 1,4,-1
 740 0 l 2,5,6
 535 -1 535 -1 526 -2 c 0,7,8
 515 -4 515 -4 481 -11 c 0,9,10
 428 -22 428 -22 402 -22 c 0,11,12
 299 -22 299 -22 213 42 c 0,13,14
 90 135 90 135 71 299 c 0,15,16
 70 308 70 308 70 341 c 128,-1,17
 70 374 70 374 71 383 c 0,18,19
 85 495 85 495 152 581 c 0,20,21
 183 617 183 617 205 633 c 0,22,23
 280 695 280 695 376 704 c 1,24,-1
 392 704 l 2,25,26
 434 704 434 704 481 694 c 0,27,28
 515 687 515 687 526 685 c 0,29,30
 535 684 535 684 733 683 c 2,31,-1
 930 683 l 1,32,-1
 930 679 l 2,33,34
 930 678 930 678 944 563 c 128,-1,35
 958 448 958 448 958 447 c 2,36,-1
 958 443 l 1,37,-1
 918 443 l 1,38,-1
 918 447 l 2,39,40
 918 448 918 448 917 451.5 c 128,-1,41
 916 455 916 455 915.5 461 c 128,-1,42
 915 467 915 467 914 471 c 0,43,44
 903 569 903 569 870 600 c 0,45,46
 846 624 846 624 815 630 c 128,-1,47
 784 636 784 636 721 636 c 2,48,-1
 697 636 l 2,49,50
 623 636 623 636 619 635 c 0,51,52
 609 634 609 634 606 624 c 0,53,54
 605 622 605 622 605 499 c 2,55,-1
 605 378 l 1,56,-1
 665 378 l 2,57,58
 732 380 732 380 733 380 c 0,59,60
 772 385 772 385 787 405.5 c 128,-1,61
 802 426 802 426 804 475 c 2,62,-1
 804 495 l 1,63,-1
 844 495 l 1,64,-1
 844 215 l 1,65,-1
 804 215 l 1,66,-1
 804 235 l 2,67,68
 802 284 802 284 787.5 304.5 c 128,-1,69
 773 325 773 325 733 330 c 0,70,71
 732 330 732 330 665 332 c 2,72,-1
 605 332 l 1,73,-1
 605 197 l 2,74,75
 605 61 605 61 606 59 c 0,76,77
 609 49 609 49 619 48 c 0,78,79
 627 46 627 46 697 46 c 0,80,81
 778 46 778 46 815.5 53 c 128,-1,82
 853 60 853 60 884 88 c 0,83,84
 921 123 921 123 941 251 c 0,85,86
 942 254 942 254 942.5 258.5 c 128,-1,87
 943 263 943 263 944 266 c 128,-1,88
 945 269 945 269 945 270 c 2,89,-1
 945 273 l 1,90,-1
 985 273 l 1,91,-1
 985 270 l 2,0,1
478 648 m 0,92,93
 457 668 457 668 403 668 c 0,94,95
 399 668 399 668 392.5 667.5 c 128,-1,96
 386 667 386 667 384 667 c 0,97,98
 299 656 299 656 241.5 566 c 128,-1,99
 184 476 184 476 184 353 c 0,100,101
 184 237 184 237 232.5 143 c 128,-1,102
 281 49 281 49 355 23 c 0,103,104
 381 15 381 15 406 15 c 0,105,106
 455 15 455 15 478 35 c 0,107,108
 503 54 503 54 511 128 c 0,109,110
 514 161 514 161 514 342 c 0,111,112
 514 522 514 522 511 556 c 0,113,114
 503 629 503 629 478 648 c 0,92,93
EndSplineSet
EndChar

StartChar: oe
Encoding: 339 339 115
Width: 778
Flags: W
LayerCount: 2
Fore
SplineSet
749 246 m 0,0,1
 749 238 749 238 742 231 c 1,2,-1
 458 231 l 1,3,-1
 458 219 l 2,4,5
 458 58 458 58 582 32 c 0,6,7
 590 30 590 30 608 30 c 0,8,9
 681 30 681 30 706 114 c 0,10,11
 710 125 710 125 713 128 c 128,-1,12
 716 131 716 131 729 131 c 128,-1,13
 742 131 742 131 745 128 c 0,14,15
 751 123 751 123 746 106 c 0,16,17
 729 55 729 55 689 22.5 c 128,-1,18
 649 -10 649 -10 590 -10 c 0,19,20
 563 -10 563 -10 540 -4 c 0,21,22
 460 15 460 15 416 82 c 1,23,-1
 410 73 l 1,24,25
 345 -11 345 -11 245 -11 c 0,26,27
 183 -11 183 -11 130 24 c 0,28,29
 47 79 47 79 30 185 c 0,30,31
 29 193 29 193 29 217 c 0,32,33
 29 247 29 247 31 257 c 0,34,35
 44 333 44 333 95 385 c 0,36,37
 161 447 161 447 239 447 c 128,-1,38
 317 447 317 447 374 402 c 0,39,40
 397 382 397 382 409 366 c 0,41,42
 414 359 414 359 415 359 c 0,43,44
 419 363 419 363 423 369 c 0,45,46
 487 448 487 448 578 448 c 0,47,48
 660 448 660 448 704.5 392 c 128,-1,49
 749 336 749 336 749 246 c 0,0,1
329 376 m 0,50,51
 292 411 292 411 245 411 c 0,52,53
 209 411 209 411 182 391 c 0,54,55
 147 368 147 368 132 324 c 0,56,57
 121 291 121 291 121 223 c 0,58,59
 121 167 121 167 127 139 c 0,60,61
 136 90 136 90 166 58.5 c 128,-1,62
 196 27 196 27 245 27 c 0,63,64
 293 27 293 27 329 63 c 0,65,66
 374 111 374 111 374 220 c 0,67,68
 374 330 374 330 329 376 c 0,50,51
667 278 m 1,69,70
 660 387 660 387 598 408 c 0,71,72
 594 409 594 409 579 411 c 0,73,74
 561 411 561 411 547 406 c 0,75,76
 483 384 483 384 466 305 c 0,77,78
 460 283 460 283 460 269 c 0,79,80
 460 267 460 267 564 267 c 2,81,-1
 667 267 l 1,82,-1
 667 278 l 1,69,70
EndSplineSet
EndChar

StartChar: uni0237
Encoding: 567 567 116
Width: 306
Flags: W
LayerCount: 2
Fore
SplineSet
28 -163 m 1,0,1
 58 -168 58 -168 64 -168 c 0,2,3
 76 -168 76 -168 85 -165 c 0,4,5
 127 -150 127 -150 135 -77 c 0,6,7
 137 -65 137 -65 137 141 c 128,-1,8
 137 347 137 347 136 353 c 0,9,10
 132 373 132 373 119 378.5 c 128,-1,11
 106 384 106 384 72 385 c 2,12,-1
 52 385 l 1,13,-1
 52 408 l 2,14,15
 52 431 52 431 54 431 c 2,16,-1
 58 432 l 2,17,18
 62 432 62 432 70 432.5 c 128,-1,19
 78 433 78 433 87 433.5 c 128,-1,20
 96 434 96 434 108.5 434.5 c 128,-1,21
 121 435 121 435 133 436 c 0,22,23
 151 437 151 437 171.5 438.5 c 128,-1,24
 192 440 192 440 202.5 441 c 128,-1,25
 213 442 213 442 214 442 c 2,26,-1
 218 442 l 1,27,-1
 218 184 l 2,28,29
 217 -36 217 -36 216.5 -59.5 c 128,-1,30
 216 -83 216 -83 211 -98 c 0,31,32
 196 -144 196 -144 155 -174.5 c 128,-1,33
 114 -205 114 -205 58 -205 c 0,34,35
 13 -205 13 -205 -21 -181.5 c 128,-1,36
 -55 -158 -55 -158 -55 -117 c 0,37,38
 -55 -94 -55 -94 -40 -79 c 128,-1,39
 -25 -64 -25 -64 -2 -64 c 128,-1,40
 21 -64 21 -64 36.5 -79.5 c 128,-1,41
 52 -95 52 -95 52 -118 c 0,42,43
 52 -143 52 -143 28 -163 c 1,0,1
EndSplineSet
EndChar

StartChar: circumflex
Encoding: 710 710 117
Width: 500
Flags: W
LayerCount: 2
Fore
SplineSet
190 637 m 2,0,-1
 249 694 l 1,1,-1
 257 686 l 1,2,3
 387 562 387 562 387 560 c 0,4,5
 381 553 381 553 374 545 c 2,6,-1
 361 531 l 1,7,8
 357 533 357 533 303 581 c 2,9,-1
 250 627 l 1,10,-1
 195 580 l 2,11,12
 182 569 182 569 168.5 557 c 128,-1,13
 155 545 155 545 148 538 c 2,14,-1
 140 532 l 2,15,16
 138 530 138 530 125 546 c 2,17,-1
 112 560 l 1,18,-1
 122 570 l 2,19,20
 158 606 158 606 190 637 c 2,0,-1
EndSplineSet
EndChar

StartChar: caron
Encoding: 711 711 118
Width: 500
Flags: W
LayerCount: 2
Fore
SplineSet
114 611 m 1,0,-1
 120 620 l 2,1,2
 125 628 125 628 130 635 c 128,-1,3
 135 642 135 642 136 644 c 0,4,5
 138 644 138 644 193 612 c 0,6,7
 248 581 248 581 250 581 c 128,-1,8
 252 581 252 581 307 612.5 c 128,-1,9
 362 644 362 644 363 644 c 0,10,11
 367 638 367 638 374.5 627 c 128,-1,12
 382 616 382 616 385 611 c 1,13,-1
 318 562 l 1,14,-1
 249 513 l 1,15,16
 219 535 219 535 181 562 c 2,17,-1
 114 611 l 1,0,-1
EndSplineSet
EndChar

StartChar: uni02C9
Encoding: 713 713 119
Width: 500
Flags: W
LayerCount: 2
Fore
SplineSet
69 544 m 1,0,-1
 69 590 l 1,1,-1
 430 590 l 1,2,-1
 430 544 l 1,3,-1
 69 544 l 1,0,-1
EndSplineSet
EndChar

StartChar: uni02CA
Encoding: 714 714 120
Width: 500
Flags: W
LayerCount: 2
Fore
SplineSet
349 699 m 0,0,1
 365 699 365 699 379 686 c 128,-1,2
 393 673 393 673 393 656 c 0,3,4
 393 640 393 640 379 626 c 0,5,6
 378 625 378 625 303 563 c 2,7,-1
 232 505 l 1,8,-1
 217 519 l 2,9,10
 203 533 203 533 204 533 c 1,11,12
 204 534 204 534 229.5 567.5 c 128,-1,13
 255 601 255 601 282 636.5 c 128,-1,14
 309 672 309 672 313 678 c 0,15,16
 331 699 331 699 349 699 c 0,0,1
EndSplineSet
EndChar

StartChar: uni02CB
Encoding: 715 715 121
Width: 500
Flags: W
LayerCount: 2
Fore
SplineSet
106 655 m 0,0,1
 106 672 106 672 119.5 685.5 c 128,-1,2
 133 699 133 699 150 699 c 0,3,4
 166 699 166 699 177 688 c 0,5,6
 180 685 180 685 237.5 610.5 c 128,-1,7
 295 536 295 536 295 533 c 0,8,9
 295 532 295 532 282 519 c 2,10,-1
 267 505 l 1,11,-1
 196 563 l 2,12,13
 121 625 121 625 120 626 c 0,14,15
 106 640 106 640 106 655 c 0,0,1
EndSplineSet
EndChar

StartChar: breve
Encoding: 728 728 122
Width: 500
Flags: W
LayerCount: 2
Fore
SplineSet
130 675 m 0,0,1
 138 629 138 629 170 598 c 128,-1,2
 202 567 202 567 248 567 c 0,3,4
 282 567 282 567 311 585 c 128,-1,5
 340 603 340 603 356 636 c 0,6,7
 370 666 370 666 370 689 c 2,8,-1
 370 694 l 1,9,-1
 407 694 l 1,10,-1
 407 683 l 1,11,12
 403 626 403 626 373 582 c 128,-1,13
 343 538 343 538 297 522 c 0,14,15
 277 515 277 515 250 515 c 0,16,17
 222 515 222 515 202 522 c 0,18,19
 156 538 156 538 126 582 c 128,-1,20
 96 626 96 626 92 683 c 1,21,-1
 92 694 l 1,22,-1
 129 694 l 1,23,-1
 129 689 l 2,24,25
 129 688 129 688 129.5 683 c 128,-1,26
 130 678 130 678 130 675 c 0,0,1
EndSplineSet
EndChar

StartChar: dotaccent
Encoding: 729 729 123
Width: 278
Flags: W
LayerCount: 2
Fore
SplineSet
141 669 m 0,0,1
 166 667 166 667 182 651.5 c 128,-1,2
 198 636 198 636 198 609 c 0,3,4
 198 573 198 573 171 558 c 0,5,6
 158 549 158 549 139 549 c 0,7,8
 119 549 119 549 106 558 c 0,9,10
 79 573 79 573 79 609 c 0,11,12
 79 637 79 637 96.5 653 c 128,-1,13
 114 669 114 669 141 669 c 0,0,1
EndSplineSet
EndChar

StartChar: ring
Encoding: 730 730 124
Width: 750
Flags: W
LayerCount: 2
Fore
SplineSet
273 647 m 0,0,1
 281 676 281 676 307 695.5 c 128,-1,2
 333 715 333 715 369 715 c 0,3,4
 445 715 445 715 471 660 c 0,5,6
 477 647 477 647 477 629 c 0,7,8
 477 610 477 610 471 597 c 0,9,10
 445 542 445 542 374 542 c 0,11,12
 335 542 335 542 308 561 c 128,-1,13
 281 580 281 580 273 610 c 0,14,15
 272 614 272 614 272 628 c 0,16,17
 272 643 272 643 273 647 c 0,0,1
375 579 m 0,18,19
 412 579 412 579 425 588.5 c 128,-1,20
 438 598 438 598 438 628 c 0,21,22
 438 669 438 669 407 677 c 0,23,24
 402 678 402 678 378 678 c 0,25,26
 373 678 373 678 366.5 678.5 c 128,-1,27
 360 679 360 679 359 679 c 0,28,29
 334 679 334 679 323 667.5 c 128,-1,30
 312 656 312 656 312 629 c 0,31,32
 312 600 312 600 323 590 c 0,33,34
 335 579 335 579 375 579 c 0,18,19
EndSplineSet
EndChar

StartChar: tilde
Encoding: 732 732 125
Width: 500
Flags: W
LayerCount: 2
Fore
SplineSet
142 654 m 0,0,1
 164 668 164 668 187 668 c 0,2,3
 208 668 208 668 253 650 c 0,4,5
 296 632 296 632 320 632 c 0,6,7
 355 632 355 632 381 661 c 2,8,-1
 388 668 l 1,9,-1
 402 656 l 1,10,-1
 416 645 l 2,11,12
 416 644 416 644 396 620 c 0,13,14
 363 581 363 581 344 572 c 0,15,16
 330 565 330 565 313 565 c 0,17,18
 290 565 290 565 247 583 c 0,19,20
 203 601 203 601 179 601 c 0,21,22
 144 601 144 601 118 572 c 2,23,-1
 111 565 l 1,24,-1
 97 577 l 1,25,-1
 83 588 l 2,26,27
 83 589 83 589 103 613 c 0,28,29
 133 647 133 647 142 654 c 0,0,1
EndSplineSet
EndChar

StartChar: hungarumlaut
Encoding: 733 733 126
Width: 500
Flags: W
LayerCount: 2
Fore
SplineSet
208 701 m 0,0,1
 226 701 226 701 240 688 c 128,-1,2
 254 675 254 675 254 658 c 0,3,4
 254 649 254 649 250 641 c 0,5,6
 248 637 248 637 202.5 573.5 c 128,-1,7
 157 510 157 510 156 510 c 0,8,9
 122 527 122 527 122 528 c 0,10,11
 122 530 122 530 145.5 598 c 128,-1,12
 169 666 169 666 173 676 c 0,13,14
 184 701 184 701 208 701 c 0,0,1
374 701 m 0,15,16
 392 701 392 701 406 688 c 128,-1,17
 420 675 420 675 420 658 c 0,18,19
 420 649 420 649 416 641 c 0,20,21
 414 637 414 637 368.5 573.5 c 128,-1,22
 323 510 323 510 322 510 c 0,23,24
 288 527 288 527 288 528 c 0,25,26
 288 530 288 530 311.5 598 c 128,-1,27
 335 666 335 666 339 676 c 0,28,29
 350 701 350 701 374 701 c 0,15,16
EndSplineSet
EndChar

StartChar: Gamma
Encoding: 915 915 127
Width: 625
Flags: W
LayerCount: 2
Fore
SplineSet
128 619 m 1,0,1
 118 629 118 629 108.5 631 c 128,-1,2
 99 633 99 633 58 634 c 2,3,-1
 25 634 l 1,4,-1
 25 680 l 1,5,-1
 554 680 l 1,6,-1
 554 676 l 1,7,-1
 568 560 l 2,8,9
 582 445 582 445 582 444 c 2,10,-1
 582 440 l 1,11,-1
 542 440 l 1,12,-1
 542 444 l 2,13,14
 542 445 542 445 541 449 c 128,-1,15
 540 453 540 453 539.5 459 c 128,-1,16
 539 465 539 465 538 469 c 0,17,18
 525 572 525 572 485.5 603 c 128,-1,19
 446 634 446 634 334 634 c 0,20,21
 253 634 253 634 245 632 c 0,22,23
 235 630 235 630 233 621 c 0,24,25
 232 618 232 618 232 339 c 2,26,-1
 233 61 l 1,27,28
 241 53 241 53 249 50.5 c 128,-1,29
 257 48 257 48 285 47 c 0,30,31
 296 46 296 46 333 46 c 2,32,-1
 360 46 l 1,33,-1
 360 0 l 1,34,-1
 348 0 l 2,35,36
 322 3 322 3 182 3 c 0,37,38
 55 3 55 3 36 0 c 2,39,-1
 25 0 l 1,40,-1
 25 46 l 1,41,-1
 58 46 l 2,42,43
 99 47 99 47 108.5 49 c 128,-1,44
 118 51 118 51 128 61 c 1,45,-1
 128 619 l 1,0,1
EndSplineSet
EndChar

StartChar: Delta
Encoding: 916 916 128
Width: 833
Flags: W
LayerCount: 2
Fore
SplineSet
51 0 m 2,0,1
 46 2 46 2 46 7 c 0,2,3
 46 9 46 9 215.5 357 c 128,-1,4
 385 705 385 705 388 709 c 0,5,6
 392 716 392 716 407 716 c 2,7,-1
 416 716 l 2,8,9
 439 716 439 716 444 709 c 0,10,11
 447 705 447 705 616.5 357 c 128,-1,12
 786 9 786 9 786 7 c 0,13,14
 786 2 786 2 781 0 c 2,15,-1
 51 0 l 2,0,1
630 91 m 1,16,-1
 384 596 l 1,17,18
 328 483 328 483 260 344 c 2,19,-1
 137 92 l 1,20,-1
 383 91 l 1,21,-1
 630 91 l 1,16,-1
EndSplineSet
EndChar

StartChar: Theta
Encoding: 920 920 129
Width: 778
Flags: W
LayerCount: 2
Fore
SplineSet
722 341 m 0,0,1
 722 190 722 190 624 84 c 128,-1,2
 526 -22 526 -22 388 -22 c 0,3,4
 362 -22 362 -22 339 -18 c 0,5,6
 233 -1 233 -1 156.5 79.5 c 128,-1,7
 80 160 80 160 61 273 c 0,8,9
 56 298 56 298 56 340 c 0,10,11
 56 475 56 475 138 581 c 0,12,13
 169 617 169 617 191 633 c 0,14,15
 266 695 266 695 362 704 c 0,16,17
 371 705 371 705 388 705 c 0,18,19
 497 705 497 705 587 633 c 0,20,21
 609 616 609 616 639 581 c 0,22,23
 705 499 705 499 720 383 c 0,24,25
 722 365 722 365 722 341 c 0,0,1
418 665 m 0,26,27
 406 668 406 668 384 668 c 0,28,29
 380 668 380 668 374 667.5 c 128,-1,30
 368 667 368 667 366 667 c 0,31,32
 275 653 275 653 221 566 c 0,33,34
 168 487 168 487 168 339 c 0,35,36
 168 274 168 274 176 235 c 0,37,38
 189 158 189 158 228 104.5 c 128,-1,39
 267 51 267 51 324 28 c 0,40,41
 356 16 356 16 388 16 c 0,42,43
 439 16 439 16 485 44.5 c 128,-1,44
 531 73 531 73 561 123 c 0,45,46
 610 206 610 206 610 339 c 0,47,48
 610 436 610 436 583 512 c 0,49,50
 562 571 562 571 517 613.5 c 128,-1,51
 472 656 472 656 418 665 c 0,26,27
223 263 m 1,52,-1
 223 422 l 1,53,-1
 263 422 l 1,54,-1
 263 388 l 1,55,-1
 514 388 l 1,56,-1
 514 422 l 1,57,-1
 554 422 l 1,58,-1
 554 263 l 1,59,-1
 514 263 l 1,60,-1
 514 297 l 1,61,-1
 263 297 l 1,62,-1
 263 263 l 1,63,-1
 223 263 l 1,52,-1
EndSplineSet
EndChar

StartChar: Lambda
Encoding: 923 923 130
Width: 694
Flags: W
LayerCount: 2
Fore
SplineSet
320 708 m 0,0,1
 326 716 326 716 339 716 c 2,2,-1
 348 716 l 2,3,4
 362 716 362 716 365.5 715 c 128,-1,5
 369 714 369 714 372 708 c 0,6,7
 374 706 374 706 423.5 546.5 c 128,-1,8
 473 387 473 387 523 226 c 128,-1,9
 573 65 573 65 575 62 c 128,-1,10
 577 59 577 59 579 56.5 c 128,-1,11
 581 54 581 54 583 52.5 c 128,-1,12
 585 51 585 51 589 50 c 128,-1,13
 593 49 593 49 595 48 c 128,-1,14
 597 47 597 47 602.5 47 c 128,-1,15
 608 47 608 47 611 46.5 c 128,-1,16
 614 46 614 46 622 46 c 128,-1,17
 630 46 630 46 634 46 c 2,18,-1
 661 46 l 1,19,-1
 661 0 l 1,20,-1
 653 0 l 2,21,22
 638 3 638 3 532 3 c 0,23,24
 412 3 412 3 390 0 c 2,25,-1
 379 0 l 1,26,-1
 379 46 l 1,27,-1
 392 46 l 2,28,29
 464 46 464 46 464 65 c 0,30,31
 463 70 463 70 390 305 c 128,-1,32
 317 540 317 540 316 539 c 0,33,34
 177 102 177 102 177 84 c 0,35,36
 177 81 177 81 179 77 c 0,37,38
 185 64 185 64 204.5 55 c 128,-1,39
 224 46 224 46 248 46 c 2,40,-1
 253 46 l 1,41,-1
 253 0 l 1,42,-1
 245 0 l 2,43,44
 228 3 228 3 130 3 c 0,45,46
 49 3 49 3 38 0 c 2,47,-1
 32 0 l 1,48,-1
 32 46 l 1,49,-1
 45 46 l 1,50,51
 112 51 112 51 127 91 c 0,52,53
 128 92 128 92 224 399.5 c 128,-1,54
 320 707 320 707 320 708 c 0,0,1
EndSplineSet
EndChar

StartChar: Xi
Encoding: 926 926 131
Width: 667
Flags: W
LayerCount: 2
Fore
SplineSet
47 509 m 2,0,-1
 55 676 l 2,1,2
 55 677 55 677 333 677 c 128,-1,3
 611 677 611 677 611 676 c 2,4,-1
 619 509 l 2,5,6
 619 508 619 508 599 508 c 128,-1,7
 579 508 579 508 579 510 c 0,8,9
 579 529 579 529 575 557.5 c 128,-1,10
 571 586 571 586 564 589 c 0,11,12
 550 594 550 594 333 594 c 128,-1,13
 116 594 116 594 102 589 c 0,14,15
 95 586 95 586 91 557.5 c 128,-1,16
 87 529 87 529 87 510 c 0,17,18
 87 508 87 508 67 508 c 128,-1,19
 47 508 47 508 47 509 c 2,0,-1
139 260 m 1,20,-1
 139 445 l 1,21,-1
 179 445 l 1,22,-1
 179 394 l 1,23,-1
 487 394 l 1,24,-1
 487 445 l 1,25,-1
 527 445 l 1,26,-1
 527 260 l 1,27,-1
 487 260 l 1,28,-1
 487 311 l 1,29,-1
 179 311 l 1,30,-1
 179 260 l 1,31,-1
 139 260 l 1,20,-1
50 0 m 1,32,-1
 42 180 l 1,33,-1
 62 180 l 2,34,35
 82 180 82 180 82 178 c 0,36,37
 82 133 82 133 89 105 c 0,38,39
 92 93 92 93 95 90 c 128,-1,40
 98 87 98 87 108 86 c 0,41,42
 137 83 137 83 333 83 c 0,43,44
 530 83 530 83 558 86 c 0,45,46
 568 87 568 87 571 90 c 128,-1,47
 574 93 574 93 577 105 c 0,48,49
 584 133 584 133 584 178 c 0,50,51
 584 180 584 180 604 180 c 2,52,-1
 624 180 l 1,53,-1
 616 0 l 1,54,-1
 50 0 l 1,32,-1
EndSplineSet
EndChar

StartChar: Pi
Encoding: 928 928 132
Width: 750
Flags: W
LayerCount: 2
Fore
SplineSet
128 619 m 1,0,1
 118 629 118 629 108.5 631 c 128,-1,2
 99 633 99 633 58 634 c 2,3,-1
 25 634 l 1,4,-1
 25 680 l 1,5,-1
 724 680 l 1,6,-1
 724 634 l 1,7,-1
 691 634 l 2,8,9
 650 633 650 633 639.5 631 c 128,-1,10
 629 629 629 629 622 619 c 1,11,-1
 622 61 l 1,12,13
 629 51 629 51 639.5 49 c 128,-1,14
 650 47 650 47 691 46 c 2,15,-1
 724 46 l 1,16,-1
 724 0 l 1,17,-1
 713 0 l 2,18,19
 696 3 696 3 569 3 c 128,-1,20
 442 3 442 3 425 0 c 2,21,-1
 414 0 l 1,22,-1
 414 46 l 1,23,-1
 447 46 l 2,24,25
 488 47 488 47 497.5 49 c 128,-1,26
 507 51 507 51 517 61 c 1,27,-1
 517 634 l 1,28,-1
 232 634 l 1,29,-1
 232 348 l 1,30,-1
 233 61 l 1,31,32
 240 51 240 51 250.5 49 c 128,-1,33
 261 47 261 47 302 46 c 2,34,-1
 335 46 l 1,35,-1
 335 0 l 1,36,-1
 324 0 l 2,37,38
 307 3 307 3 180 3 c 128,-1,39
 53 3 53 3 36 0 c 2,40,-1
 25 0 l 1,41,-1
 25 46 l 1,42,-1
 58 46 l 2,43,44
 99 47 99 47 108.5 49 c 128,-1,45
 118 51 118 51 128 61 c 1,46,-1
 128 619 l 1,0,1
EndSplineSet
EndChar

StartChar: Sigma
Encoding: 931 931 133
Width: 722
Flags: W
LayerCount: 2
Fore
SplineSet
666 247 m 2,0,1
 664 244 664 244 651.5 125.5 c 128,-1,2
 639 7 639 7 638 4 c 2,3,-1
 638 0 l 1,4,-1
 351 0 l 2,5,6
 131 0 131 0 94.5 0.5 c 128,-1,7
 58 1 58 1 57 5 c 2,8,-1
 57 6 l 2,9,10
 54 12 54 12 57 17 c 2,11,-1
 73 36 l 2,12,13
 89 54 89 54 121 90 c 128,-1,14
 153 126 153 126 182 159 c 2,15,-1
 305 299 l 1,16,17
 179 470 179 470 56 644 c 1,18,-1
 55 658 l 2,19,20
 55 677 55 677 60 681 c 0,21,22
 63 683 63 683 351 683 c 2,23,-1
 638 683 l 1,24,-1
 638 679 l 2,25,26
 638 678 638 678 652 563 c 128,-1,27
 666 448 666 448 666 447 c 2,28,-1
 666 443 l 1,29,-1
 626 443 l 1,30,-1
 626 447 l 1,31,32
 612 543 612 543 580.5 583.5 c 128,-1,33
 549 624 549 624 464 633 c 0,34,35
 425 637 425 637 294 637 c 2,36,-1
 189 637 l 1,37,-1
 293 494 l 2,38,39
 317 461 317 461 344 423 c 128,-1,40
 371 385 371 385 384 366 c 2,41,-1
 398 348 l 2,42,43
 402 341 402 341 399 337 c 2,44,-1
 154 57 l 1,45,46
 407 57 407 57 428 58 c 0,47,48
 489 61 489 61 520 70 c 128,-1,49
 551 79 551 79 575 103 c 0,50,51
 613 143 613 143 624 235 c 0,52,53
 624 238 624 238 624.5 242 c 128,-1,54
 625 246 625 246 626 248 c 2,55,-1
 626 251 l 1,56,-1
 666 251 l 1,57,-1
 666 247 l 2,0,1
EndSplineSet
EndChar

StartChar: Upsilon
Encoding: 933 933 134
Width: 778
Flags: W
LayerCount: 2
Fore
SplineSet
78 536 m 2,0,-1
 73 536 l 2,1,2
 62 536 62 536 58.5 538.5 c 128,-1,3
 55 541 55 541 55 551 c 0,4,5
 55 616 55 616 95 660.5 c 128,-1,6
 135 705 135 705 194 705 c 0,7,8
 214 705 214 705 234 700 c 0,9,10
 348 670 348 670 386 489 c 2,11,-1
 389 474 l 1,12,13
 390 475 390 475 392 489 c 0,14,15
 417 603 417 603 472 658 c 0,16,17
 519 705 519 705 584 705 c 0,18,19
 615 705 615 705 641 692 c 0,20,21
 674 675 674 675 698 636 c 128,-1,22
 722 597 722 597 722 551 c 0,23,24
 722 540 722 540 718.5 538 c 128,-1,25
 715 536 715 536 699 536 c 0,26,27
 680 536 680 536 677 541 c 0,28,29
 677 542 677 542 676.5 544.5 c 128,-1,30
 676 547 676 547 676 548 c 0,31,32
 676 578 676 578 649.5 597 c 128,-1,33
 623 616 623 616 588 616 c 0,34,35
 536 616 536 616 505 582 c 0,36,37
 455 530 455 530 443 403 c 0,38,39
 442 385 442 385 442 222 c 2,40,-1
 442 61 l 1,41,42
 450 53 450 53 458 50.5 c 128,-1,43
 466 48 466 48 494 47 c 0,44,45
 505 46 505 46 542 46 c 2,46,-1
 569 46 l 1,47,-1
 569 0 l 1,48,-1
 557 0 l 2,49,50
 538 3 538 3 389 3 c 128,-1,51
 240 3 240 3 221 0 c 2,52,-1
 209 0 l 1,53,-1
 209 46 l 1,54,-1
 236 46 l 2,55,56
 273 46 273 46 284 47 c 0,57,58
 312 48 312 48 319 50.5 c 128,-1,59
 326 53 326 53 337 61 c 1,60,-1
 337 209 l 2,61,62
 337 383 337 383 333 415 c 0,63,64
 315 597 315 597 213 615 c 0,65,66
 207 616 207 616 189 616 c 0,67,68
 154 616 154 616 127.5 597 c 128,-1,69
 101 578 101 578 101 548 c 0,70,71
 101 540 101 540 96 538 c 128,-1,72
 91 536 91 536 78 536 c 2,0,-1
EndSplineSet
EndChar

StartChar: Phi
Encoding: 934 934 135
Width: 722
Flags: W
LayerCount: 2
Fore
SplineSet
526 0 m 2,0,1
 508 3 508 3 361 3 c 128,-1,2
 214 3 214 3 196 0 c 2,3,-1
 184 0 l 1,4,-1
 184 46 l 1,5,-1
 211 46 l 2,6,7
 248 46 248 46 259 47 c 0,8,9
 287 48 287 48 294 50.5 c 128,-1,10
 301 53 301 53 312 61 c 1,11,-1
 312 150 l 1,12,-1
 310 150 l 2,13,14
 309 151 309 151 294 153 c 0,15,16
 222 161 222 161 160 195 c 0,17,18
 74 243 74 243 57 317 c 0,19,20
 56 323 56 323 56 342 c 0,21,22
 56 360 56 360 57 366 c 0,23,24
 74 440 74 440 160 488 c 0,25,26
 222 522 222 522 294 530 c 0,27,28
 309 532 309 532 310 533 c 2,29,-1
 312 533 l 1,30,-1
 312 622 l 1,31,32
 306 627 306 627 303.5 628.5 c 128,-1,33
 301 630 301 630 295 632 c 128,-1,34
 289 634 289 634 281.5 634.5 c 128,-1,35
 274 635 274 635 259 636 c 0,36,37
 248 637 248 637 211 637 c 2,38,-1
 184 637 l 1,39,-1
 184 683 l 1,40,-1
 196 683 l 2,41,42
 214 680 214 680 361 680 c 128,-1,43
 508 680 508 680 526 683 c 2,44,-1
 538 683 l 1,45,-1
 538 637 l 1,46,-1
 511 637 l 2,47,48
 474 637 474 637 463 636 c 0,49,50
 435 635 435 635 427 632.5 c 128,-1,51
 419 630 419 630 411 622 c 1,52,-1
 411 533 l 1,53,-1
 425 531 l 2,54,55
 502 521 502 521 563.5 486 c 128,-1,56
 625 451 625 451 650 402 c 0,57,58
 665 374 665 374 665 342 c 0,59,60
 665 308 665 308 650 281 c 0,61,62
 625 232 625 232 563.5 197 c 128,-1,63
 502 162 502 162 425 152 c 2,64,-1
 411 150 l 1,65,-1
 411 61 l 1,66,67
 419 53 419 53 427 50.5 c 128,-1,68
 435 48 435 48 463 47 c 0,69,70
 474 46 474 46 511 46 c 2,71,-1
 538 46 l 1,72,-1
 538 0 l 1,73,-1
 526 0 l 2,0,1
170 342 m 0,74,75
 170 272 170 272 204 235 c 128,-1,76
 238 198 238 198 307 188 c 1,77,-1
 312 188 l 1,78,-1
 312 495 l 1,79,-1
 309 495 l 2,80,81
 299 495 299 495 279 489 c 0,82,83
 223 475 223 475 196.5 440 c 128,-1,84
 170 405 170 405 170 342 c 0,74,75
415 188 m 1,85,86
 484 199 484 199 517.5 235 c 128,-1,87
 551 271 551 271 551 342 c 0,88,89
 551 409 551 409 521 444.5 c 128,-1,90
 491 480 491 480 430 492 c 0,91,92
 416 494 416 494 415 495 c 2,93,-1
 410 495 l 1,94,-1
 410 188 l 1,95,-1
 415 188 l 1,85,86
EndSplineSet
EndChar

StartChar: Psi
Encoding: 936 936 136
Width: 778
Flags: W
LayerCount: 2
Fore
SplineSet
69 509 m 0,0,1
 60 509 60 509 57.5 512 c 128,-1,2
 55 515 55 515 55 526 c 128,-1,3
 55 537 55 537 56 540 c 0,4,5
 59 544 59 544 65.5 545 c 128,-1,6
 72 546 72 546 107 546 c 0,7,8
 150 546 150 546 157 544 c 0,9,10
 192 535 192 535 204 493 c 0,11,12
 214 469 214 469 215 411 c 0,13,14
 218 284 218 284 272 230 c 0,15,16
 299 204 299 204 330 195 c 2,17,-1
 339 192 l 2,18,19
 340 192 340 192 340 407 c 2,20,-1
 340 622 l 1,21,22
 334 627 334 627 331.5 628.5 c 128,-1,23
 329 630 329 630 323 632 c 128,-1,24
 317 634 317 634 309.5 634.5 c 128,-1,25
 302 635 302 635 287 636 c 0,26,27
 276 637 276 637 239 637 c 2,28,-1
 212 637 l 1,29,-1
 212 683 l 1,30,-1
 224 683 l 2,31,32
 242 680 242 680 389 680 c 128,-1,33
 536 680 536 680 554 683 c 2,34,-1
 566 683 l 1,35,-1
 566 637 l 1,36,-1
 539 637 l 2,37,38
 502 637 502 637 491 636 c 0,39,40
 463 635 463 635 455 632.5 c 128,-1,41
 447 630 447 630 439 622 c 1,42,-1
 438 407 l 2,43,44
 438 192 438 192 439 192 c 0,45,46
 444 192 444 192 466 203 c 0,47,48
 557 248 557 248 562 411 c 0,49,50
 563 469 563 469 573 493 c 0,51,52
 585 535 585 535 620 544 c 0,53,54
 627 546 627 546 671 546 c 2,55,-1
 715 546 l 1,56,57
 719 542 719 542 722 540 c 2,58,-1
 722 515 l 1,59,60
 714 509 714 509 708 509 c 0,61,62
 685 506 685 506 674 482 c 0,63,64
 661 457 661 457 660 406 c 0,65,66
 657 347 657 347 644 307 c 0,67,68
 599 177 599 177 451 153 c 2,69,-1
 438 151 l 1,70,-1
 438 106 l 1,71,-1
 439 61 l 1,72,73
 447 53 447 53 455 50.5 c 128,-1,74
 463 48 463 48 491 47 c 0,75,76
 502 46 502 46 539 46 c 2,77,-1
 566 46 l 1,78,-1
 566 0 l 1,79,-1
 554 0 l 2,80,81
 536 3 536 3 389 3 c 128,-1,82
 242 3 242 3 224 0 c 2,83,-1
 212 0 l 1,84,-1
 212 46 l 1,85,-1
 239 46 l 2,86,87
 276 46 276 46 287 47 c 0,88,89
 315 48 315 48 322 50.5 c 128,-1,90
 329 53 329 53 340 61 c 1,91,-1
 340 151 l 1,92,93
 124 179 124 179 117 406 c 0,94,95
 116 457 116 457 103 482 c 0,96,97
 92 506 92 506 69 509 c 0,0,1
EndSplineSet
EndChar

StartChar: Omega
Encoding: 937 937 137
Width: 722
Flags: W
LayerCount: 2
Fore
SplineSet
270 20 m 0,0,1
 270 7 270 7 263 0 c 1,2,-1
 77 0 l 1,3,-1
 77 2 l 2,4,5
 76 3 76 3 61 89 c 2,6,-1
 44 175 l 1,7,-1
 44 177 l 1,8,-1
 84 177 l 1,9,-1
 85 172 l 2,10,11
 85 167 85 167 89 153 c 0,12,13
 96 108 96 108 104 93 c 0,14,15
 108 88 108 88 111 86 c 0,16,17
 124 81 124 81 178 80 c 2,18,-1
 222 80 l 1,19,-1
 222 83 l 1,20,21
 217 99 217 99 200 136 c 0,22,23
 184 167 184 167 145 228 c 0,24,25
 81 331 81 331 65 385 c 0,26,27
 55 422 55 422 55 454 c 0,28,29
 55 484 55 484 63 511 c 0,30,31
 85 586 85 586 156 640.5 c 128,-1,32
 227 695 227 695 322 703 c 0,33,34
 328 704 328 704 337 704 c 2,35,-1
 352 704 l 2,36,37
 493 704 493 704 583 627 c 0,38,39
 640 577 640 577 658 511 c 0,40,41
 666 484 666 484 666 454 c 0,42,43
 666 422 666 422 656 385 c 0,44,45
 640 331 640 331 576 228 c 0,46,47
 537 167 537 167 521 136 c 0,48,49
 504 99 504 99 499 83 c 1,50,-1
 499 80 l 1,51,-1
 543 80 l 2,52,53
 597 81 597 81 610 86 c 0,54,55
 614 88 614 88 617 93 c 0,56,57
 624 108 624 108 632 153 c 0,58,59
 636 167 636 167 636 172 c 2,60,-1
 637 177 l 1,61,-1
 677 177 l 1,62,-1
 677 175 l 1,63,-1
 660 89 l 2,64,65
 645 3 645 3 644 2 c 2,66,-1
 644 0 l 1,67,-1
 552 0 l 2,68,69
 478 0 478 0 466.5 0.5 c 128,-1,70
 455 1 455 1 453 6 c 0,71,72
 451 10 451 10 451 20 c 0,73,74
 451 49 451 49 460 99 c 0,75,76
 468 139 468 139 499 234 c 0,77,78
 531 331 531 331 541 386 c 0,79,80
 548 428 548 428 548 455 c 0,81,82
 548 596 548 596 445 648 c 0,83,84
 403 668 403 668 361 668 c 0,85,86
 259 668 259 668 205 583 c 0,87,88
 174 534 174 534 174 456 c 0,89,90
 174 422 174 422 180 386 c 0,91,92
 190 331 190 331 222 234 c 0,93,94
 253 139 253 139 261 99 c 0,95,96
 270 50 270 50 270 20 c 0,0,1
EndSplineSet
EndChar

StartChar: endash
Encoding: 8211 8211 145
Width: 500
Flags: W
LayerCount: 2
Fore
SplineSet
0 248 m 1,0,-1
 0 285 l 1,1,-1
 499 285 l 1,2,-1
 499 248 l 1,3,-1
 0 248 l 1,0,-1
EndSplineSet
EndChar

StartChar: emdash
Encoding: 8212 8212 146
Width: 1000
Flags: W
LayerCount: 2
Fore
SplineSet
0 248 m 1,0,-1
 0 285 l 1,1,-1
 999 285 l 1,2,-1
 999 248 l 1,3,-1
 0 248 l 1,0,-1
EndSplineSet
EndChar

StartChar: quoteleft
Encoding: 8216 8216 147
Width: 278
Flags: W
LayerCount: 2
Fore
SplineSet
198 440 m 0,0,1
 198 415 198 415 181 397 c 128,-1,2
 164 379 164 379 139 379 c 0,3,4
 101 379 101 379 80 418 c 0,5,6
 64 449 64 449 64 494 c 0,7,8
 64 513 64 513 66 527 c 0,9,10
 78 603 78 603 123 660 c 0,11,12
 154 694 154 694 160 694 c 0,13,14
 163 694 163 694 172.5 684.5 c 128,-1,15
 182 675 182 675 182 672 c 0,16,17
 182 668 182 668 170 656 c 0,18,19
 105 590 105 590 101 501 c 0,20,21
 101 489 101 489 102 489 c 0,22,23
 105 491 105 491 109 493 c 0,24,25
 122 500 122 500 138 500 c 0,26,27
 164 500 164 500 181 483 c 128,-1,28
 198 466 198 466 198 440 c 0,0,1
EndSplineSet
EndChar

StartChar: quoteright
Encoding: 8217 8217 148
Width: 278
Flags: W
LayerCount: 2
Fore
SplineSet
78 634 m 0,0,1
 78 659 78 659 95 676.5 c 128,-1,2
 112 694 112 694 138 694 c 0,3,4
 162 694 162 694 183 675 c 0,5,6
 212 642 212 642 212 579 c 128,-1,7
 212 516 212 516 185 464 c 0,8,9
 165 423 165 423 136 394 c 0,10,11
 121 379 121 379 118 379 c 0,12,13
 114 379 114 379 104.5 388.5 c 128,-1,14
 95 398 95 398 95 401 c 0,15,16
 95 405 95 405 107 417 c 0,17,18
 172 483 172 483 176 572 c 0,19,20
 176 584 176 584 175 584 c 0,21,22
 172 582 172 582 168 580 c 0,23,24
 155 573 155 573 139 573 c 0,25,26
 114 573 114 573 96 590.5 c 128,-1,27
 78 608 78 608 78 634 c 0,0,1
EndSplineSet
EndChar

StartChar: quotedblleft
Encoding: 8220 8220 149
Width: 500
Flags: W
LayerCount: 2
Fore
SplineSet
223 694 m 0,0,1
 227 694 227 694 236 684 c 128,-1,2
 245 674 245 674 245 671 c 128,-1,3
 245 668 245 668 233 656 c 0,4,5
 168 590 168 590 164 501 c 0,6,7
 164 489 164 489 165 489 c 0,8,9
 168 491 168 491 172 493 c 0,10,11
 185 500 185 500 201 500 c 0,12,13
 227 500 227 500 244.5 482.5 c 128,-1,14
 262 465 262 465 262 440 c 128,-1,15
 262 415 262 415 244.5 397 c 128,-1,16
 227 379 227 379 202 379 c 0,17,18
 164 379 164 379 143 418 c 0,19,20
 128 447 128 447 128 494 c 0,21,22
 128 520 128 520 129 527 c 0,23,24
 141 603 141 603 186 660 c 0,25,26
 217 694 217 694 223 694 c 0,0,1
466 440 m 128,-1,28
 466 415 466 415 448.5 397 c 128,-1,29
 431 379 431 379 406 379 c 0,30,31
 368 379 368 379 347 418 c 0,32,33
 332 447 332 447 332 494 c 0,34,35
 332 520 332 520 333 527 c 0,36,37
 345 603 345 603 390 660 c 0,38,39
 421 694 421 694 427 694 c 0,40,41
 430 694 430 694 439.5 684.5 c 128,-1,42
 449 675 449 675 449 672 c 0,43,44
 449 668 449 668 437 656 c 0,45,46
 372 590 372 590 368 501 c 0,47,48
 368 489 368 489 369 489 c 0,49,50
 372 491 372 491 376 493 c 0,51,52
 389 500 389 500 405 500 c 0,53,54
 431 500 431 500 448.5 482.5 c 128,-1,27
 466 465 466 465 466 440 c 128,-1,28
EndSplineSet
EndChar

StartChar: quotedblright
Encoding: 8221 8221 150
Width: 500
Flags: W
LayerCount: 2
Fore
SplineSet
34 634 m 0,0,1
 34 659 34 659 50.5 676.5 c 128,-1,2
 67 694 67 694 93 694 c 0,3,4
 117 694 117 694 138 675 c 0,5,6
 168 641 168 641 168 579 c 0,7,8
 168 518 168 518 140 464 c 0,9,10
 120 423 120 423 91 394 c 0,11,12
 76 379 76 379 73 379 c 128,-1,13
 70 379 70 379 60 388.5 c 128,-1,14
 50 398 50 398 50 401 c 0,15,16
 50 405 50 405 62 417 c 0,17,18
 127 483 127 483 131 572 c 0,19,20
 131 584 131 584 130 584 c 0,21,22
 127 582 127 582 123 580 c 0,23,24
 110 573 110 573 94 573 c 0,25,26
 69 573 69 573 51.5 590.5 c 128,-1,27
 34 608 34 608 34 634 c 0,0,1
238 634 m 0,28,29
 238 659 238 659 254.5 676.5 c 128,-1,30
 271 694 271 694 297 694 c 0,31,32
 321 694 321 694 342 675 c 0,33,34
 372 641 372 641 372 579 c 0,35,36
 372 518 372 518 344 464 c 0,37,38
 324 423 324 423 295 394 c 0,39,40
 280 379 280 379 277 379 c 128,-1,41
 274 379 274 379 264 388.5 c 128,-1,42
 254 398 254 398 254 401 c 0,43,44
 254 405 254 405 266 417 c 0,45,46
 331 483 331 483 335 572 c 0,47,48
 335 584 335 584 334 584 c 0,49,50
 331 582 331 582 327 580 c 0,51,52
 314 573 314 573 298 573 c 0,53,54
 273 573 273 573 255.5 590.5 c 128,-1,55
 238 608 238 608 238 634 c 0,28,29
EndSplineSet
EndChar

StartChar: dagger
Encoding: 8224 8224 151
Width: 444
Flags: W
LayerCount: 2
Fore
SplineSet
182 675 m 1,0,1
 195 705 195 705 222 705 c 0,2,3
 234 705 234 705 242 700 c 128,-1,4
 250 695 250 695 253.5 690.5 c 128,-1,5
 257 686 257 686 263 675 c 1,6,-1
 262 655 l 2,7,8
 262 619 262 619 251 547 c 0,9,10
 241 483 241 483 240 454 c 2,11,-1
 240 449 l 1,12,13
 257 452 257 452 282 460 c 0,14,15
 324 472 324 472 346 472 c 0,16,17
 364 472 364 472 376.5 460.5 c 128,-1,18
 389 449 389 449 389 431 c 128,-1,19
 389 413 389 413 377 401.5 c 128,-1,20
 365 390 365 390 346 390 c 0,21,22
 322 390 322 390 282 403 c 0,23,24
 248 412 248 412 243 412 c 2,25,-1
 240 412 l 1,26,-1
 240 405 l 1,27,28
 245 370 245 370 250 342 c 0,29,30
 263 280 263 280 263 225 c 0,31,32
 263 38 263 38 245 -168 c 0,33,34
 242 -210 242 -210 239 -213 c 128,-1,35
 236 -216 236 -216 222 -216 c 128,-1,36
 208 -216 208 -216 205 -213 c 128,-1,37
 202 -210 202 -210 199 -168 c 0,38,39
 181 38 181 38 181 225 c 0,40,41
 181 280 181 280 194 342 c 0,42,43
 199 370 199 370 204 405 c 1,44,-1
 204 412 l 1,45,-1
 201 412 l 2,46,47
 196 412 196 412 162 403 c 0,48,49
 122 390 122 390 98 390 c 0,50,51
 80 390 80 390 67.5 401.5 c 128,-1,52
 55 413 55 413 55 431 c 0,53,54
 55 448 55 448 67 460 c 128,-1,55
 79 472 79 472 98 472 c 0,56,57
 120 472 120 472 162 460 c 0,58,59
 189 451 189 451 205 449 c 1,60,-1
 204 454 l 1,61,62
 203 483 203 483 193 547 c 0,63,64
 182 619 182 619 182 655 c 2,65,-1
 182 675 l 1,0,1
EndSplineSet
EndChar

StartChar: daggerdbl
Encoding: 8225 8225 152
Width: 444
Flags: W
LayerCount: 2
Fore
SplineSet
181 658 m 0,0,1
 181 705 181 705 222 705 c 128,-1,2
 263 705 263 705 263 658 c 0,3,4
 263 630 263 630 252 575 c 0,5,6
 240 514 240 514 240 497 c 0,7,8
 240 496 240 496 241 496 c 0,9,10
 243 496 243 496 248 497.5 c 128,-1,11
 253 499 253 499 263.5 501.5 c 128,-1,12
 274 504 274 504 282 506 c 0,13,14
 327 519 327 519 345 519 c 0,15,16
 364 519 364 519 376 508 c 128,-1,17
 388 497 388 497 388 478 c 0,18,19
 388 467 388 467 384 459 c 128,-1,20
 380 451 380 451 375.5 447.5 c 128,-1,21
 371 444 371 444 361 438 c 1,22,-1
 344 438 l 2,23,24
 319 438 319 438 282 449 c 0,25,26
 274 451 274 451 263.5 453.5 c 128,-1,27
 253 456 253 456 248 457.5 c 128,-1,28
 243 459 243 459 241 459 c 0,29,30
 240 458 240 458 240 456 c 0,31,32
 240 444 240 444 252 381 c 0,33,34
 263 326 263 326 263 297 c 0,35,36
 263 275 263 275 252 262.5 c 128,-1,37
 241 250 241 250 222 250 c 128,-1,38
 203 250 203 250 192 262.5 c 128,-1,39
 181 275 181 275 181 297 c 0,40,41
 181 326 181 326 192 381 c 0,42,43
 204 441 204 441 204 458 c 0,44,45
 204 459 204 459 203 459 c 0,46,47
 201 459 201 459 196 457.5 c 128,-1,48
 191 456 191 456 180.5 453.5 c 128,-1,49
 170 451 170 451 162 449 c 0,50,51
 125 438 125 438 101 438 c 2,52,-1
 84 438 l 1,53,54
 56 452 56 452 56 478 c 0,55,56
 56 497 56 497 68 508 c 128,-1,57
 80 519 80 519 99 519 c 0,58,59
 117 519 117 519 162 506 c 0,60,61
 170 504 170 504 180.5 501.5 c 128,-1,62
 191 499 191 499 196 497.5 c 128,-1,63
 201 496 201 496 203 496 c 0,64,65
 204 497 204 497 204 499 c 0,66,67
 204 512 204 512 192 575 c 0,68,69
 181 630 181 630 181 658 c 0,0,1
181 202 m 0,70,71
 181 249 181 249 222 249 c 128,-1,72
 263 249 263 249 263 202 c 0,73,74
 263 173 263 173 251 114 c 0,75,76
 244 74 244 74 240 48 c 1,77,-1
 240 41 l 1,78,-1
 243 41 l 2,79,80
 248 41 248 41 282 50 c 0,81,82
 322 63 322 63 346 63 c 0,83,84
 364 63 364 63 376.5 51.5 c 128,-1,85
 389 40 389 40 389 22 c 128,-1,86
 389 4 389 4 377 -7.5 c 128,-1,87
 365 -19 365 -19 346 -19 c 0,88,89
 322 -19 322 -19 282 -6 c 0,90,91
 248 3 248 3 243 3 c 2,92,-1
 240 3 l 1,93,-1
 240 -4 l 1,94,95
 244 -30 244 -30 251 -70 c 0,96,97
 263 -129 263 -129 263 -158 c 0,98,99
 263 -180 263 -180 252 -192.5 c 128,-1,100
 241 -205 241 -205 222 -205 c 128,-1,101
 203 -205 203 -205 192 -192.5 c 128,-1,102
 181 -180 181 -180 181 -158 c 0,103,104
 181 -129 181 -129 193 -70 c 0,105,106
 200 -30 200 -30 204 -4 c 1,107,-1
 204 3 l 1,108,-1
 201 3 l 2,109,110
 196 3 196 3 162 -6 c 0,111,112
 122 -19 122 -19 98 -19 c 0,113,114
 80 -19 80 -19 67.5 -7.5 c 128,-1,115
 55 4 55 4 55 22 c 0,116,117
 55 39 55 39 67 51 c 128,-1,118
 79 63 79 63 98 63 c 0,119,120
 122 63 122 63 162 50 c 0,121,122
 196 41 196 41 201 41 c 2,123,-1
 204 41 l 1,124,-1
 204 48 l 1,125,126
 200 74 200 74 193 114 c 0,127,128
 181 173 181 173 181 202 c 0,70,71
EndSplineSet
EndChar

StartChar: ellipsis
Encoding: 8230 8230 153
Width: 1172
Flags: W
LayerCount: 2
Fore
SplineSet
78 60 m 0,0,1
 78 86 78 86 95 103 c 128,-1,2
 112 120 112 120 138 120 c 128,-1,3
 164 120 164 120 181.5 102.5 c 128,-1,4
 199 85 199 85 199 61 c 0,5,6
 199 35 199 35 181 17.5 c 128,-1,7
 163 0 163 0 139 0 c 0,8,9
 113 0 113 0 95.5 18 c 128,-1,10
 78 36 78 36 78 60 c 0,0,1
525 60 m 0,11,12
 525 86 525 86 542.5 103 c 128,-1,13
 560 120 560 120 585 120 c 0,14,15
 611 120 611 120 628.5 102.5 c 128,-1,16
 646 85 646 85 646 61 c 0,17,18
 646 35 646 35 628 17.5 c 128,-1,19
 610 0 610 0 586 0 c 0,20,21
 560 0 560 0 542.5 18 c 128,-1,22
 525 36 525 36 525 60 c 0,11,12
972 60 m 0,23,24
 972 86 972 86 989 103 c 128,-1,25
 1006 120 1006 120 1032 120 c 128,-1,26
 1058 120 1058 120 1075.5 102.5 c 128,-1,27
 1093 85 1093 85 1093 61 c 0,28,29
 1093 35 1093 35 1075 17.5 c 128,-1,30
 1057 0 1057 0 1033 0 c 0,31,32
 1007 0 1007 0 989.5 18 c 128,-1,33
 972 36 972 36 972 60 c 0,23,24
EndSplineSet
EndChar

StartChar: minute
Encoding: 8242 8242 154
Width: 275
Flags: W
LayerCount: 2
Fore
SplineSet
198 560 m 0,0,1
 224 560 224 560 243 542 c 128,-1,2
 262 524 262 524 262 501 c 0,3,4
 262 496 262 496 260 486 c 0,5,6
 259 479 259 479 172.5 263 c 128,-1,7
 86 47 86 47 84 45 c 128,-1,8
 82 43 82 43 79 43 c 0,9,10
 72 43 72 43 56 48 c 0,11,12
 30 57 30 57 30 61 c 0,13,14
 30 68 30 68 85.5 293 c 128,-1,15
 141 518 141 518 146 528 c 0,16,17
 160 560 160 560 198 560 c 0,0,1
EndSplineSet
EndChar

StartChar: uni20D7
Encoding: 8407 8407 155
Width: 0
Flags: W
LayerCount: 2
Fore
SplineSet
-123 694 m 0,0,1
 -123 702 -123 702 -117.5 708 c 128,-1,2
 -112 714 -112 714 -103 714 c 0,3,4
 -96 714 -96 714 -91 709 c 0,5,6
 -86 705 -86 705 -81 690 c 0,7,8
 -71 653 -71 653 -40 633 c 0,9,10
 -29 626 -29 626 -29 615 c 0,11,12
 -29 606 -29 606 -32 603 c 128,-1,13
 -35 600 -35 600 -46 594 c 0,14,15
 -89 572 -89 572 -121 531 c 0,16,17
 -123 529 -123 529 -126.5 524.5 c 128,-1,18
 -130 520 -130 520 -131.5 519 c 128,-1,19
 -133 518 -133 518 -136 517 c 128,-1,20
 -139 516 -139 516 -143 516 c 0,21,22
 -150 516 -150 516 -156.5 521.5 c 128,-1,23
 -163 527 -163 527 -163 536 c 0,24,25
 -163 555 -163 555 -116 595 c 1,26,-1
 -287 595 l 1,27,-1
 -458 596 l 1,28,29
 -471 605 -471 605 -471 615 c 0,30,31
 -471 622 -471 622 -458 635 c 1,32,-1
 -99 635 l 1,33,34
 -123 673 -123 673 -123 694 c 0,0,1
EndSplineSet
EndChar

StartChar: uni210F
Encoding: 8463 8463 156
Width: 540
Flags: W
LayerCount: 2
Fore
SplineSet
90 563 m 0,0,1
 90 572 90 572 106 582 c 1,2,-1
 187 582 l 1,3,4
 195 612 195 612 195 621 c 0,5,6
 195 631 195 631 186 633.5 c 128,-1,7
 177 636 177 636 149 637 c 2,8,-1
 128 637 l 1,9,10
 122 643 122 643 121.5 645 c 128,-1,11
 121 647 121 647 124 664 c 0,12,13
 129 683 129 683 137 683 c 0,14,15
 138 683 138 683 209.5 688.5 c 128,-1,16
 281 694 281 694 282 694 c 0,17,18
 294 694 294 694 294 684 c 0,19,20
 294 678 294 678 283 634 c 0,21,22
 270 584 270 584 270 583 c 128,-1,23
 270 582 270 582 362 582 c 2,24,-1
 454 582 l 1,25,26
 469 574 469 574 469 562 c 0,27,28
 469 552 469 552 453 542 c 1,29,-1
 260 542 l 1,30,31
 259 538 259 538 249 498 c 128,-1,32
 239 458 239 458 229.5 420 c 128,-1,33
 220 382 220 382 220 381 c 1,34,35
 281 442 281 442 357 442 c 0,36,37
 412 442 412 442 445 415 c 128,-1,38
 478 388 478 388 478 336 c 0,39,40
 478 313 478 313 475 298 c 0,41,42
 466 247 466 247 420 121 c 0,43,44
 402 72 402 72 402 50 c 0,45,46
 403 36 403 36 407 31 c 128,-1,47
 411 26 411 26 422 26 c 0,48,49
 450 26 450 26 474.5 56.5 c 128,-1,50
 499 87 499 87 513 138 c 0,51,52
 516 149 516 149 519 151 c 128,-1,53
 522 153 522 153 535 153 c 0,54,55
 554 150 554 150 555 145 c 0,56,57
 555 144 555 144 551 130 c 0,58,59
 535 71 535 71 500 33 c 0,60,61
 466 -10 466 -10 414 -10 c 0,62,63
 375 -10 375 -10 350 13.5 c 128,-1,64
 325 37 325 37 325 74 c 0,65,66
 325 90 325 90 335 118 c 0,67,68
 382 239 382 239 395 307 c 0,69,70
 398 322 398 322 398 345 c 0,71,72
 398 404 398 404 349 404 c 0,73,74
 331 404 331 404 323 402 c 0,75,76
 256 388 256 388 205 306 c 1,77,-1
 198 293 l 1,78,-1
 164 158 l 2,79,80
 132 28 132 28 127 16 c 0,81,82
 114 -11 114 -11 83 -11 c 0,83,84
 71 -11 71 -11 59.5 -3 c 128,-1,85
 48 5 48 5 48 17 c 0,86,87
 48 28 48 28 80 159 c 128,-1,88
 112 290 112 290 144 415 c 2,89,-1
 177 540 l 2,90,91
 177 542 177 542 143 542 c 0,92,93
 107 542 107 542 105 543 c 0,94,95
 90 548 90 548 90 563 c 0,0,1
EndSplineSet
EndChar

StartChar: Ifraktur
Encoding: 8465 8465 157
Width: 722
Flags: W
LayerCount: 2
Fore
SplineSet
55 507 m 0,0,1
 55 589 55 589 115.5 647 c 128,-1,2
 176 705 176 705 260 705 c 0,3,4
 338 705 338 705 413 653 c 0,5,6
 467 616 467 616 526 541 c 0,7,8
 542 522 542 522 549 517 c 128,-1,9
 556 512 556 512 567 512 c 0,10,11
 598 512 598 512 622.5 521 c 128,-1,12
 647 530 647 530 647 550 c 0,13,14
 647 558 647 558 651.5 559.5 c 128,-1,15
 656 561 656 561 670 561 c 2,16,-1
 679 561 l 2,17,18
 685 561 685 561 687.5 560.5 c 128,-1,19
 690 560 690 560 691.5 557 c 128,-1,20
 693 554 693 554 693 548 c 0,21,22
 693 536 693 536 686 523 c 0,23,24
 661 475 661 475 565 475 c 0,25,26
 521 475 521 475 481 495 c 0,27,28
 439 515 439 515 383 584 c 0,29,30
 331 644 331 644 304 657 c 0,31,32
 283 667 283 667 259 667 c 0,33,34
 231 667 231 667 211 660 c 0,35,36
 169 647 169 647 140 613.5 c 128,-1,37
 111 580 111 580 103 536 c 0,38,39
 102 529 102 529 102 508 c 0,40,41
 102 476 102 476 116 441 c 0,42,43
 136 401 136 401 179 374 c 128,-1,44
 222 347 222 347 273 347 c 0,45,46
 282 347 282 347 284.5 343.5 c 128,-1,47
 287 340 287 340 287 329 c 0,48,49
 287 317 287 317 284.5 313.5 c 128,-1,50
 282 310 282 310 272 310 c 0,51,52
 196 310 196 310 135.5 354.5 c 128,-1,53
 75 399 75 399 59 468 c 0,54,55
 55 485 55 485 55 507 c 0,0,1
667 320 m 2,56,57
 654 320 654 320 650.5 322 c 128,-1,58
 647 324 647 324 647 335 c 0,59,60
 645 360 645 360 621.5 376.5 c 128,-1,61
 598 393 598 393 566 393 c 0,62,63
 553 393 553 393 549 391 c 0,64,65
 517 376 517 376 517 312 c 0,66,67
 517 287 517 287 536 264 c 0,68,69
 543 255 543 255 581 222 c 0,70,71
 614 195 614 195 625 169 c 0,72,73
 631 153 631 153 631 132 c 0,74,75
 630 105 630 105 617 78 c 0,76,77
 580 7 580 7 487 -9 c 0,78,79
 478 -10 478 -10 417 -10 c 0,80,81
 357 -10 357 -10 347 -8 c 0,82,83
 325 -3 325 -3 299.5 10.5 c 128,-1,84
 274 24 274 24 257.5 36.5 c 128,-1,85
 241 49 241 49 212.5 71.5 c 128,-1,86
 184 94 184 94 175 101 c 0,87,88
 119 143 119 143 71 146 c 0,89,90
 61 146 61 146 58 149 c 128,-1,91
 55 152 55 152 55 163 c 0,92,93
 55 180 55 180 60 182 c 2,94,-1
 68 182 l 2,95,96
 75 182 75 182 86.5 182.5 c 128,-1,97
 98 183 98 183 108 183 c 0,98,99
 122 183 122 183 141 182.5 c 128,-1,100
 160 182 160 182 161 182 c 0,101,102
 190 178 190 178 218 162.5 c 128,-1,103
 246 147 246 147 259.5 135 c 128,-1,104
 273 123 273 123 306 93 c 0,105,106
 349 52 349 52 370 37.5 c 128,-1,107
 391 23 391 23 420 13 c 1,108,109
 459 22 459 22 487.5 45.5 c 128,-1,110
 516 69 516 69 527 101 c 0,111,112
 533 117 533 117 533 136 c 0,113,114
 533 151 533 151 529 159 c 0,115,116
 521 180 521 180 483 214 c 0,117,118
 439 249 439 249 428 273 c 0,119,120
 420 290 420 290 420 304 c 2,121,-1
 420 312 l 2,122,123
 420 381 420 381 491 414 c 0,124,125
 525 431 525 431 564 431 c 0,126,127
 615 431 615 431 652 405 c 128,-1,128
 689 379 689 379 693 336 c 0,129,130
 693 325 693 325 689.5 322.5 c 128,-1,131
 686 320 686 320 676 320 c 2,132,-1
 667 320 l 2,56,57
EndSplineSet
EndChar

StartChar: afii61289
Encoding: 8467 8467 158
Width: 417
Flags: W
LayerCount: 2
Fore
SplineSet
349 104 m 128,-1,1
 353 104 353 104 361 94.5 c 128,-1,2
 369 85 369 85 369 80 c 128,-1,3
 369 75 369 75 352 59 c 0,4,5
 267 -20 267 -20 206 -20 c 0,6,7
 118 -20 118 -20 97 114 c 0,8,9
 95 128 95 128 94 129 c 0,10,11
 94 130 94 130 79 115.5 c 128,-1,12
 64 101 64 101 47.5 85.5 c 128,-1,13
 31 70 31 70 28 70 c 0,14,15
 23 70 23 70 13 82 c 0,16,17
 7 90 7 90 7 94 c 128,-1,18
 7 98 7 98 12 103 c 128,-1,19
 17 108 17 108 58 147 c 2,20,-1
 91 179 l 1,21,-1
 91 185 l 2,22,23
 91 186 91 186 91.5 191.5 c 128,-1,24
 92 197 92 197 92 200 c 0,25,26
 92 258 92 258 115 347 c 0,27,28
 153 505 153 505 230 620 c 0,29,30
 278 694 278 694 325 704 c 0,31,32
 327 704 327 704 330.5 704.5 c 128,-1,33
 334 705 334 705 336 705 c 0,34,35
 383 705 383 705 395 660 c 0,36,37
 397 652 397 652 397 627 c 0,38,39
 397 601 397 601 395 587 c 0,40,41
 366 420 366 420 194 233 c 0,42,43
 186 224 186 224 176 213.5 c 128,-1,44
 166 203 166 203 165 201 c 2,45,-1
 163 186 l 2,46,47
 159 142 159 142 159 123 c 0,48,49
 159 109 159 109 161 87 c 0,50,51
 166 50 166 50 176.5 33.5 c 128,-1,52
 187 17 187 17 208 17 c 0,53,54
 246 17 246 17 292 56 c 0,55,56
 301 63 301 63 335 94 c 0,57,0
 345 104 345 104 349 104 c 128,-1,1
360 634 m 0,58,59
 360 652 360 652 355 660 c 128,-1,60
 350 668 350 668 336 668 c 0,61,62
 334 668 334 668 331 667.5 c 128,-1,63
 328 667 328 667 327 667 c 0,64,65
 303 658 303 658 272 592 c 0,66,67
 241 522 241 522 197 347 c 0,68,69
 179 277 179 277 179 273 c 0,70,71
 179 272 179 272 186.5 280 c 128,-1,72
 194 288 194 288 204 300.5 c 128,-1,73
 214 313 214 313 221 322 c 0,74,75
 328 453 328 453 355 590 c 0,76,77
 360 612 360 612 360 634 c 0,58,59
EndSplineSet
EndChar

StartChar: weierstrass
Encoding: 8472 8472 159
Width: 636
Flags: W
LayerCount: 2
Fore
SplineSet
362 109 m 0,0,1
 362 88 362 88 340 76 c 1,2,3
 340 55 340 55 355.5 40.5 c 128,-1,4
 371 26 371 26 393 26 c 0,5,6
 435 26 435 26 474 67 c 0,7,8
 512 106 512 106 535 195 c 0,9,10
 551 258 551 258 551 290 c 0,11,12
 551 327 551 327 534 350 c 128,-1,13
 517 373 517 373 484 373 c 0,14,15
 462 373 462 373 429 366 c 0,16,17
 364 351 364 351 303.5 300.5 c 128,-1,18
 243 250 243 250 197 172 c 0,19,20
 174 132 174 132 174 130 c 2,21,-1
 180 122 l 2,22,23
 186 115 186 115 196.5 101 c 128,-1,24
 207 87 207 87 217 75 c 0,25,26
 260 20 260 20 265 10 c 0,27,28
 276 -15 276 -15 276 -41 c 0,29,30
 276 -99 276 -99 239.5 -153 c 128,-1,31
 203 -207 203 -207 154 -215 c 0,32,33
 150 -216 150 -216 142 -216 c 0,34,35
 67 -216 67 -216 67 -118 c 0,36,37
 67 -40 67 -40 104 64 c 2,38,-1
 110 81 l 1,39,40
 81 118 81 118 81 174 c 0,41,42
 81 264 81 264 128 351.5 c 128,-1,43
 175 439 175 439 235 451 c 0,44,45
 243 453 243 453 247 453 c 0,46,47
 259 453 259 453 259 445 c 0,48,49
 259 432 259 432 253 420 c 0,50,51
 251 416 251 416 242 416 c 0,52,53
 219 413 219 413 193 372 c 0,54,55
 172 343 172 343 157 292.5 c 128,-1,56
 142 242 142 242 142 203 c 0,57,58
 142 165 142 165 149 165 c 1,59,60
 245 334 245 334 382 389 c 0,61,62
 434 410 434 410 485 410 c 0,63,64
 514 410 514 410 536 402 c 0,65,66
 625 367 625 367 625 255 c 0,67,68
 625 149 625 149 539 59 c 0,69,70
 494 16 494 16 443 -1 c 0,71,72
 418 -10 418 -10 389 -10 c 0,73,74
 349 -10 349 -10 325.5 12.5 c 128,-1,75
 302 35 302 35 300 74 c 0,76,77
 300 133 300 133 338 133 c 0,78,79
 362 133 362 133 362 109 c 0,0,1
105 -123 m 0,80,81
 105 -151 105 -151 113.5 -164.5 c 128,-1,82
 122 -178 122 -178 145 -178 c 0,83,84
 155 -178 155 -178 160 -176 c 0,85,86
 181 -165 181 -165 197.5 -135 c 128,-1,87
 214 -105 214 -105 214 -73 c 0,88,89
 214 -60 214 -60 209 -48 c 0,90,91
 208 -45 208 -45 174.5 -1 c 128,-1,92
 141 43 141 43 139 43 c 2,93,-1
 135 33 l 1,94,95
 116 -27 116 -27 107 -86 c 0,96,97
 105 -96 105 -96 105 -123 c 0,80,81
EndSplineSet
EndChar

StartChar: Rfraktur
Encoding: 8476 8476 160
Width: 722
Flags: W
LayerCount: 2
Fore
SplineSet
114 243 m 0,0,1
 86 243 86 243 70.5 266.5 c 128,-1,2
 55 290 55 290 55 322 c 0,3,4
 55 331 55 331 59 333.5 c 128,-1,5
 63 336 63 336 75 336 c 128,-1,6
 87 336 87 336 91 334 c 128,-1,7
 95 332 95 332 95 322 c 0,8,9
 95 280 95 280 113 280 c 0,10,11
 124 280 124 280 131.5 287.5 c 128,-1,12
 139 295 139 295 142 311.5 c 128,-1,13
 145 328 145 328 145.5 340 c 128,-1,14
 146 352 146 352 147 375 c 0,15,16
 147 410 147 410 145 418 c 0,17,18
 138 445 138 445 101 487 c 0,19,20
 67 526 67 526 58 555 c 0,21,22
 56 563 56 563 56 580 c 0,23,24
 56 651 56 651 107 686 c 0,25,26
 131 704 131 704 169 704 c 128,-1,27
 207 704 207 704 244 679 c 0,28,29
 277 654 277 654 300 614 c 1,30,-1
 334 648 l 1,31,32
 407 706 407 706 531 715 c 0,33,34
 534 715 534 715 543.5 715.5 c 128,-1,35
 553 716 553 716 557 716 c 0,36,37
 570 716 570 716 572 714 c 0,38,39
 574 713 574 713 644.5 579.5 c 128,-1,40
 715 446 715 446 715 444 c 0,41,42
 715 441 715 441 713 439 c 0,43,44
 708 434 708 434 638.5 397.5 c 128,-1,45
 569 361 569 361 549 354 c 1,46,-1
 550 348 l 2,47,48
 550 337 550 337 555.5 238 c 128,-1,49
 561 139 561 139 561 128 c 0,50,51
 561 122 561 122 560 114 c 128,-1,52
 559 106 559 106 559 101 c 0,53,54
 559 61 559 61 591 25 c 1,55,-1
 599 18 l 1,56,-1
 631 51 l 2,57,58
 666 86 666 86 669 86 c 0,59,60
 675 86 675 86 687 78.5 c 128,-1,61
 699 71 699 71 702 68 c 0,62,63
 704 63 704 63 702 59 c 0,64,65
 702 58 702 58 659 19.5 c 128,-1,66
 616 -19 616 -19 613 -21 c 0,67,68
 612 -22 612 -22 598 -22 c 0,69,70
 544 -22 544 -22 512 0 c 0,71,72
 490 15 490 15 475.5 42.5 c 128,-1,73
 461 70 461 70 461 101 c 0,74,75
 461 106 461 106 462 114.5 c 128,-1,76
 463 123 463 123 463 129 c 0,77,78
 463 131 463 131 460.5 181.5 c 128,-1,79
 458 232 458 232 455 282 c 2,80,-1
 452 331 l 1,81,-1
 452 338 l 1,82,-1
 343 338 l 1,83,-1
 343 280 l 2,84,85
 342 195 342 195 333 157 c 0,86,87
 316 64 316 64 267 12 c 0,88,89
 233 -22 233 -22 193 -22 c 0,90,91
 150 -22 150 -22 118.5 5.5 c 128,-1,92
 87 33 87 33 72 74 c 0,93,94
 71 76 71 76 67 74 c 0,95,96
 59 72 59 72 48 82 c 0,97,98
 40 91 40 91 40 95 c 0,99,100
 40 103 40 103 57 109 c 1,101,-1
 57 113 l 2,102,103
 57 117 57 117 67 127 c 128,-1,104
 77 137 77 137 81 137 c 0,105,106
 89 137 89 137 93 123 c 1,107,108
 106 126 106 126 108 126 c 0,109,110
 111 124 111 124 118.5 116.5 c 128,-1,111
 126 109 126 109 127 107 c 0,112,113
 127 102 127 102 124.5 99.5 c 128,-1,114
 122 97 122 97 114 94 c 2,115,-1
 107 90 l 1,116,117
 107 85 107 85 120 62 c 0,118,119
 153 15 153 15 192 15 c 128,-1,120
 231 15 231 15 239 96 c 0,121,122
 244 135 244 135 244 334 c 0,123,124
 244 510 244 510 242 542 c 0,125,126
 236 584 236 584 233 596 c 0,127,128
 210 668 210 668 166 668 c 0,129,130
 136 668 136 668 118 642.5 c 128,-1,131
 100 617 100 617 100 584 c 0,132,133
 100 561 100 561 132 528 c 0,134,135
 159 498 159 498 173 475.5 c 128,-1,136
 187 453 187 453 193 423 c 0,137,138
 194 415 194 415 194 389 c 0,139,140
 190 243 190 243 114 243 c 0,0,1
324 562 m 1,141,142
 341 501 341 501 343 427 c 2,143,-1
 343 384 l 1,144,-1
 424 384 l 1,145,-1
 505 385 l 1,146,147
 540 397 540 397 584 422 c 2,148,-1
 609 435 l 2,149,150
 610 435 610 435 594 465.5 c 128,-1,151
 578 496 578 496 550 550 c 0,152,153
 536 575 536 575 520 605.5 c 128,-1,154
 504 636 504 636 496 650 c 2,155,-1
 488 664 l 1,156,-1
 476 662 l 2,157,158
 413 648 413 648 378 624 c 0,159,160
 336 600 336 600 324 562 c 1,141,142
EndSplineSet
EndChar

StartChar: aleph
Encoding: 8501 8501 161
Width: 611
Flags: W
LayerCount: 2
Fore
SplineSet
76 37 m 0,0,1
 110 39 110 39 125 45 c 128,-1,2
 140 51 140 51 140 70 c 0,3,4
 140 88 140 88 133 106 c 0,5,6
 126 122 126 122 107 157 c 0,7,8
 83 201 83 201 83 236 c 0,9,10
 83 256 83 256 89 286 c 0,11,12
 101 348 101 348 149 432 c 0,13,14
 160 450 160 450 159 452 c 0,15,16
 143 468 143 468 95 524 c 0,17,18
 63 563 63 563 56 594 c 0,19,20
 55 599 55 599 55 613 c 0,21,22
 55 642 55 642 59 657 c 0,23,24
 70 694 70 694 85 694 c 0,25,26
 94 694 94 694 94 681 c 0,27,28
 98 632 98 632 134 588 c 0,29,30
 142 577 142 577 408 289 c 1,31,-1
 412 285 l 1,32,33
 415 309 415 309 430.5 400.5 c 128,-1,34
 446 492 446 492 447 509 c 2,35,-1
 447 519 l 1,36,-1
 438 526 l 2,37,38
 413 548 413 548 407 558 c 0,39,40
 388 581 388 581 388 617 c 0,41,42
 388 637 388 637 392 657 c 0,43,44
 403 694 403 694 418 694 c 0,45,46
 425 694 425 694 427 684 c 0,47,48
 430 671 430 671 470 611 c 0,49,50
 475 603 475 603 478 598 c 128,-1,51
 481 593 481 593 485.5 588.5 c 128,-1,52
 490 584 490 584 491.5 582.5 c 128,-1,53
 493 581 493 581 500 574.5 c 128,-1,54
 507 568 507 568 512 564 c 0,55,56
 531 548 531 548 536 543 c 128,-1,57
 541 538 541 538 548 522.5 c 128,-1,58
 555 507 555 507 555 487 c 0,59,60
 555 469 555 469 551 447 c 0,61,62
 548 434 548 434 540.5 422.5 c 128,-1,63
 533 411 533 411 528 409 c 0,64,65
 521 409 521 409 518.5 412 c 128,-1,66
 516 415 516 415 515 426 c 0,67,68
 514 446 514 446 503 463 c 0,69,70
 492 481 492 481 490 481 c 0,71,72
 489 474 489 474 488 465 c 0,73,74
 486 453 486 453 472 368.5 c 128,-1,75
 458 284 458 284 456 267 c 0,76,77
 454 247 454 247 454 246 c 0,78,79
 454 238 454 238 470 222 c 0,80,81
 527 160 527 160 542 132 c 0,82,83
 555 107 555 107 555 79 c 0,84,85
 555 32 555 32 538 9 c 0,86,87
 530 0 530 0 524 0 c 0,88,89
 516 0 516 0 516 13 c 0,90,91
 512 62 512 62 476 106 c 0,92,93
 473 109 473 109 417 170.5 c 128,-1,94
 361 232 361 232 293.5 305.5 c 128,-1,95
 226 379 226 379 200 407 c 2,96,-1
 195 412 l 1,97,-1
 194 408 l 1,98,99
 165 350 165 350 165 240 c 0,100,101
 165 224 165 224 166 220 c 0,102,103
 172 197 172 197 203 161 c 0,104,105
 234 126 234 126 243 106 c 128,-1,106
 252 86 252 86 252 70 c 0,107,108
 252 41 252 41 230 23.5 c 128,-1,109
 208 6 208 6 175 1 c 0,110,111
 170 0 170 0 115 0 c 0,112,113
 73 0 73 0 65.5 0.5 c 128,-1,114
 58 1 58 1 56 5 c 0,115,116
 55 7 55 7 55 20 c 0,117,118
 55 31 55 31 58 34 c 0,119,120
 60 37 60 37 76 37 c 0,0,1
EndSplineSet
EndChar

StartChar: arrowleft
Encoding: 8592 8592 162
Width: 1000
Flags: W
LayerCount: 2
Fore
SplineSet
944 250 m 128,-1,1
 944 238 944 238 929 230 c 1,2,-1
 165 230 l 1,3,-1
 168 227 l 1,4,5
 271 148 271 148 303 25 c 0,6,7
 309 3 309 3 309 0 c 0,8,9
 309 -11 309 -11 288 -11 c 0,10,11
 276 -11 276 -11 272.5 -8.5 c 128,-1,12
 269 -6 269 -6 267 4 c 0,13,14
 265 11 265 11 263 21 c 0,15,16
 245 94 245 94 194.5 151 c 128,-1,17
 144 208 144 208 73 236 c 0,18,19
 58 242 58 242 55 247 c 0,20,21
 55 260 55 260 73 264 c 0,22,23
 144 292 144 292 194.5 349 c 128,-1,24
 245 406 245 406 263 479 c 0,25,26
 264 482 264 482 265 488 c 128,-1,27
 266 494 266 494 266.5 496 c 128,-1,28
 267 498 267 498 268.5 502 c 128,-1,29
 270 506 270 506 272 507.5 c 128,-1,30
 274 509 274 509 278 510 c 128,-1,31
 282 511 282 511 288 511 c 0,32,33
 309 511 309 511 309 500 c 0,34,35
 309 497 309 497 303 475 c 0,36,37
 273 356 273 356 168 273 c 1,38,-1
 165 270 l 1,39,-1
 929 270 l 1,40,0
 944 262 944 262 944 250 c 128,-1,1
EndSplineSet
EndChar

